<svg width="497" height="882" viewBox="0 0 497 882" fill="none" xmlns="http://www.w3.org/2000/svg">
<path d="M488.788 158.268H487.846V59.3727C487.846 26.5816 461.265 0 428.474 0H68.5918C35.8012 0 9.21919 26.5816 9.21919 59.3727V158.268H8.27656C3.99563 158.268 0.525391 161.736 0.525391 166.021V234.428C0.525391 238.712 3.99563 242.18 8.27656 242.18H9.21919V258.497H8.27656C3.99563 258.497 0.525391 261.965 0.525391 266.249V334.656C0.525391 338.941 3.99563 342.409 8.27656 342.409H9.21919V822.627C9.21919 855.418 35.8012 882 68.5918 882H428.474C461.265 882 487.846 855.418 487.846 822.627V284.137H488.788C493.072 284.137 496.541 280.668 496.541 276.384V166.021C496.541 161.736 493.072 158.268 488.788 158.268Z" fill="url(#paint0_linear_55_2241)"/>
<path d="M422.348 864.722H74.7196C48.0867 864.722 26.4961 843.133 26.4961 816.5V62.9064C26.4961 36.2736 48.0867 14.6848 74.7196 14.6848H422.348C448.981 14.6848 470.57 36.2736 470.57 62.9064V816.5C470.57 843.133 448.981 864.722 422.348 864.722Z" fill="black"/>
<path d="M71.5 292.43H133.463V227H191.271" stroke="url(#paint1_linear_55_2241)" stroke-width="2"/>
<path d="M84.7477 326.959H84.7294C85.0965 326.959 85.4489 326.818 85.7133 326.563L101.828 311.082C102.107 310.814 102.265 310.444 102.265 310.057V309.77C102.265 310.157 102.107 310.526 101.828 310.794L85.7133 326.277C85.4489 326.531 85.0965 326.673 84.7294 326.673H16.0541C13.7391 326.673 11.836 324.908 11.6158 322.65C11.6142 322.6 11.6133 322.55 11.6133 322.5V278.38C11.6133 275.917 13.6093 273.92 16.0726 273.92H97.8231C99.9578 273.92 101.742 275.42 102.18 277.423C102.193 277.482 102.205 277.541 102.215 277.6C102.259 277.854 102.283 278.114 102.283 278.38V284.435V310.057C102.283 310.444 102.126 310.814 101.846 311.081L85.7316 326.563C85.4666 326.818 85.1148 326.959 84.7477 326.959ZM16.4862 274.514C14.0662 274.514 12.1043 276.468 12.1043 278.879V322.075C12.1043 324.486 14.0662 326.441 16.4862 326.441H84.5347C84.8563 326.441 85.1668 326.317 85.3987 326.094L87.8993 323.7L85.4436 325.884C85.2146 326.088 84.9183 326.2 84.612 326.2L17.2137 326.145C14.7945 326.145 12.6689 324.559 12.6689 322.182L12.5758 278.902C12.5942 276.273 14.7945 274.514 17.2137 274.514H16.4862ZM23.1697 284.357C21.9901 285.38 21.2684 286.743 21.2684 288.239V289.845V290.29V297.188V297.634V304.751V305.195V311.379V311.824V313.43C21.2684 316.594 24.4967 319.169 28.4643 319.169H45.2059H45.6504H47.5553H47.9998H64.7415C67.0455 319.169 69.0998 318.301 70.4178 316.953C71.5962 315.931 72.3174 314.568 72.3174 313.072V311.467V311.022V304.838V304.393V300.477V297.276V296.832V289.932V289.488V287.881C72.3174 284.717 69.0892 282.143 65.1219 282.143H48.3802H47.9353H46.0305H45.5861H28.8446C26.5418 282.143 24.4877 283.011 23.1697 284.357ZM26.4233 318.477C23.9729 317.866 22.1247 316.186 21.7736 314.139C22.2503 316.153 24.0506 317.798 26.4233 318.477Z" fill="url(#paint2_linear_55_2241)"/>
<path d="M55.4342 289.488L55.4298 289.478L55.3673 289.327L55.3604 289.31L55.321 289.216L55.2749 289.106C55.2205 288.987 55.1594 288.87 55.0875 288.734L55.0448 288.652L54.9717 288.514C54.8622 288.321 54.7423 288.132 54.6148 287.95L54.5342 287.842C54.4253 287.693 54.3128 287.545 54.1918 287.4L54.0726 287.266C53.9567 287.135 53.8389 287.006 53.7135 286.882L53.5876 286.76C53.4792 286.657 53.3655 286.557 53.2512 286.458L53.2245 286.435L53.1788 286.394L53.0636 286.298C52.963 286.218 52.8483 286.135 52.7371 286.052L52.6276 285.971L52.5538 285.915L52.5008 285.879L52.3512 285.79C52.1439 285.654 51.9302 285.526 51.7092 285.406C51.6326 285.364 51.5577 285.32 51.4795 285.281C51.1971 285.138 50.9057 285.006 50.6037 284.89C50.5419 284.867 50.4785 284.847 50.4165 284.825C50.1625 284.733 49.9024 284.652 49.6364 284.582C49.549 284.558 49.4621 284.535 49.3738 284.514C49.0494 284.436 48.72 284.369 48.3818 284.325V282.587H65.1235C68.846 282.587 71.8746 284.963 71.8746 287.881V289.488H55.4342ZM71.8746 296.832H54.0429C54.1489 296.663 54.2469 296.49 54.3707 296.331C55.3763 295.045 55.9081 293.539 55.9081 291.978V291.975V291.975L55.9075 291.967C55.9075 291.663 55.8791 291.363 55.8392 291.067C55.8275 290.979 55.8132 290.892 55.7977 290.804C55.7544 290.559 55.6986 290.316 55.6299 290.079L55.596 289.932H71.8746V296.832ZM71.8746 304.393H54.0231C53.4289 303.447 53.1157 302.346 53.1157 301.197V300.022C53.1157 299.716 53.1442 299.415 53.1878 299.119C53.1989 299.041 53.2141 298.964 53.2284 298.886C53.2717 298.653 53.3296 298.422 53.4008 298.197C53.4207 298.133 53.4365 298.068 53.4594 298.004C53.547 297.754 53.6556 297.512 53.7768 297.276H71.8746V304.393ZM71.8746 311.022H55.2045H55.2039L55.155 311.178C54.3681 313.663 52.1596 315.568 49.366 316.259C48.9662 316.358 48.5554 316.432 48.1344 316.479L47.9369 316.5V318.366H46.0321V316.488V316.487L45.9936 316.482L45.6792 316.436L45.5252 316.41L45.4553 316.399C45.2907 316.371 45.1259 316.343 44.9664 316.308L44.9585 316.306C44.902 316.294 44.8486 316.278 44.7925 316.264C44.1021 316.098 43.4475 315.856 42.8399 315.551L42.7186 315.487C42.4802 315.362 42.2508 315.226 42.0282 315.083C41.9641 315.041 41.8986 315.002 41.8368 314.959C41.6024 314.798 41.3776 314.627 41.1641 314.447C41.0799 314.374 41.0016 314.298 40.9209 314.223C40.7936 314.106 40.6708 313.985 40.5525 313.86C40.4594 313.762 40.3655 313.663 40.2786 313.561C40.1601 313.422 40.0506 313.278 39.9432 313.132C39.8288 312.976 39.7228 312.816 39.622 312.653C39.545 312.528 39.4692 312.401 39.4002 312.27C39.3383 312.154 39.279 312.037 39.2239 311.917C39.1303 311.713 39.0448 311.503 38.9723 311.29L38.9366 311.177C38.8391 310.872 38.7693 310.567 38.7174 310.262L38.6987 310.145C38.6526 309.841 38.6256 309.538 38.6256 309.237C38.6266 307.773 39.1289 306.36 40.0789 305.151L40.1513 305.04C40.2016 304.973 40.2498 304.906 40.2968 304.838H40.3083L40.3745 304.739L40.4088 304.677L40.5986 304.393H40.5772C40.6362 304.292 40.6901 304.188 40.7431 304.084C40.8263 303.918 40.8976 303.747 40.9665 303.576C41.0216 303.436 41.0799 303.3 41.1256 303.158C41.1874 302.963 41.231 302.763 41.2743 302.564C41.3012 302.437 41.3377 302.314 41.3577 302.185C41.4089 301.853 41.4391 301.515 41.4391 301.171V301.17V300.05C41.4391 299.727 41.4089 299.408 41.3619 299.091C41.346 298.979 41.3211 298.869 41.2994 298.757C41.2577 298.552 41.2076 298.351 41.1477 298.152C41.1125 298.035 41.0786 297.92 41.0368 297.806C40.9705 297.625 40.8914 297.451 40.8086 297.276H40.8377L40.668 296.966L40.6652 296.96L40.6576 296.947L40.6417 296.923L40.5917 296.832H40.5818C40.4282 296.564 40.2643 296.303 40.0789 296.066C39.128 294.855 38.6256 293.442 38.625 291.975L38.6256 291.97C38.6256 291.644 38.6609 291.322 38.7102 291.002C38.7222 290.925 38.7326 290.848 38.7469 290.773C38.8029 290.485 38.8806 290.202 38.9758 289.921C39.5003 288.395 40.591 287.066 42.0455 286.126C42.1934 286.031 42.3426 285.938 42.4966 285.852C42.6181 285.784 42.7408 285.717 42.8666 285.654C43.0934 285.541 43.3243 285.436 43.5622 285.342C43.6751 285.297 43.7916 285.258 43.9077 285.217C44.1203 285.142 44.3358 285.074 44.5541 285.015C44.6726 284.984 44.7911 284.953 44.912 284.925C45.157 284.87 45.4051 284.824 45.6559 284.788C45.7168 284.779 45.7758 284.765 45.8378 284.758L46.0321 284.733V284.73V282.587H47.9369V284.72V284.72L48.1344 284.742L48.1801 284.749C48.4968 284.786 48.809 284.843 49.117 284.911C49.206 284.93 49.294 284.952 49.3823 284.974C49.6675 285.046 49.9494 285.128 50.2243 285.226L50.331 285.26C50.633 285.372 50.9251 285.503 51.2109 285.645C51.2882 285.682 51.3631 285.724 51.439 285.763C51.6852 285.894 51.9247 286.036 52.155 286.189C53.3771 287.003 54.3336 288.095 54.8959 289.35L54.9256 289.421C54.9918 289.575 55.0503 289.73 55.1047 289.887C55.2055 290.181 55.2859 290.478 55.3431 290.779C55.3569 290.85 55.3664 290.921 55.3777 290.992C55.4277 291.316 55.463 291.641 55.463 291.97L55.4637 291.975C55.463 293.436 54.9641 294.845 54.021 296.053C53.8315 296.296 53.6659 296.56 53.5117 296.832H53.5021L53.4538 296.921L53.4361 296.948L53.2593 297.276H53.2869C53.2028 297.453 53.1238 297.632 53.0575 297.816C53.026 297.904 52.9997 297.995 52.972 298.085C52.901 298.313 52.8432 298.544 52.7987 298.78C52.7814 298.869 52.7624 298.957 52.7491 299.047C52.7021 299.366 52.6703 299.69 52.6703 300.022V301.197V301.199C52.6703 302.473 53.032 303.699 53.7165 304.738L53.7824 304.838H71.8746V311.022ZM71.8746 313.072C71.8746 315.992 68.846 318.366 65.1235 318.366H48.3818V316.897C48.8048 316.84 49.2188 316.759 49.6214 316.652C52.436 315.908 54.6685 313.981 55.5278 311.467H71.8746V313.072ZM45.5877 318.366H28.8462C25.1232 318.366 22.0949 315.992 22.0949 313.072V311.467H38.5546C38.58 311.54 38.618 311.608 38.6457 311.681C38.7077 311.841 38.7736 311.998 38.8474 312.154C38.9048 312.277 38.9613 312.4 39.0259 312.52C39.1425 312.735 39.2686 312.947 39.4062 313.151C39.4885 313.271 39.5792 313.387 39.6681 313.503C39.7594 313.623 39.8521 313.739 39.9501 313.855C40.0423 313.962 40.1341 314.069 40.2325 314.172C40.4144 314.364 40.6046 314.55 40.8065 314.725C40.8713 314.782 40.9402 314.832 41.0062 314.886C41.1924 315.039 41.3861 315.184 41.5871 315.322C41.6581 315.371 41.7285 315.418 41.8006 315.465C42.3534 315.823 42.9549 316.124 43.5963 316.364L43.6834 316.394C44.2877 316.612 44.9221 316.781 45.5877 316.877V318.366ZM22.0949 304.838H39.7516L39.7288 304.867C38.7158 306.157 38.1807 307.668 38.1807 309.233V309.238V309.242C38.1807 309.526 38.2046 309.806 38.2397 310.084L38.2577 310.201C38.2962 310.464 38.3501 310.725 38.4184 310.981L38.4274 311.022H22.0949V304.838ZM22.0949 297.276H40.3201C40.4441 297.515 40.5543 297.762 40.6444 298.015C40.6693 298.086 40.6881 298.159 40.7099 298.231C40.7789 298.45 40.8362 298.675 40.8789 298.904C40.8941 298.984 40.91 299.063 40.9225 299.144C40.9656 299.442 40.9947 299.743 40.9947 300.05V301.17C40.9947 301.487 40.9656 301.798 40.9195 302.104C40.9022 302.217 40.872 302.326 40.8485 302.438C40.8086 302.628 40.766 302.815 40.7085 302.998C40.6686 303.125 40.6198 303.248 40.5716 303.371C40.5082 303.534 40.4386 303.696 40.3607 303.852C40.3007 303.972 40.2373 304.091 40.1691 304.207C40.1313 304.271 40.0863 304.331 40.0466 304.393H22.0949V297.276ZM22.0949 289.932H38.4933C38.4735 289.995 38.4666 290.061 38.4493 290.125C38.3859 290.345 38.3333 290.569 38.2928 290.795C38.2764 290.889 38.2612 290.983 38.2487 291.077C38.2088 291.37 38.1819 291.666 38.1814 291.967L38.1807 291.975V291.975V291.978C38.1807 293.545 38.7158 295.055 39.7288 296.344C39.85 296.498 39.9453 296.669 40.0501 296.832H22.0949V289.932ZM22.0949 287.881C22.0949 284.963 25.1232 282.587 28.8462 282.587H45.5877V284.339C45.5201 284.349 45.4563 284.368 45.3894 284.379C45.1406 284.421 44.8951 284.47 44.6547 284.529C44.5334 284.559 44.4135 284.593 44.2936 284.627C44.0719 284.691 43.8554 284.762 43.6419 284.84C43.5511 284.874 43.4579 284.903 43.3676 284.939C43.0852 285.053 42.8122 285.181 42.5462 285.318C42.4401 285.374 42.3366 285.434 42.2322 285.493C42.0632 285.59 41.8986 285.691 41.7382 285.797C41.6526 285.852 41.5618 285.898 41.4783 285.956C41.2994 286.083 41.126 286.216 40.9631 286.35L40.8884 286.411C40.7323 286.544 40.5806 286.682 40.4042 286.854L40.3579 286.898C40.2127 287.045 40.0734 287.197 39.9404 287.352L39.8837 287.416C39.5891 287.769 39.3279 288.145 39.1074 288.532C39.0777 288.582 39.051 288.636 39.0238 288.69L38.9772 288.782C38.9179 288.895 38.8599 289.007 38.8075 289.121C38.7732 289.196 38.743 289.273 38.7128 289.35L38.6554 289.488H22.0949V287.881ZM65.1235 282.143H48.3818H47.9369H46.0321H45.5877H28.8462C24.8787 282.143 21.6504 284.717 21.6504 287.881V289.488V289.932V296.832V297.276V304.393V304.838V311.022V311.467V313.072C21.6504 316.237 24.8787 318.811 28.8462 318.811H45.5877H46.0321H47.9369H48.3818H65.1235C69.0908 318.811 72.319 316.237 72.319 313.072V311.467V311.022V304.838V304.393V297.276V296.832V289.932V289.488V287.881C72.319 284.717 69.0908 282.143 65.1235 282.143Z" fill="#E80F0F"/>
<path d="M25.288 311.508V311.449H25.229V311.331H25.17V311.272H25.111V311.213H25.0519V311.095H24.9929V311.036H24.9339V310.977H37.0916V311.036H37.0325V311.095H36.9145V311.154H36.8555V311.213H36.7375V311.272H36.6194V311.331H36.5014V311.39H36.3834V311.449H36.2653V311.508H25.288ZM38.2719 310.387V310.328H38.2129V309.856H38.1539V308.617H38.2129V308.085H38.2719V307.849H38.3309V307.613H38.39V307.377H38.449V307.2H38.508V306.964H38.567V306.787H38.626V306.669H38.685V306.551H38.7441V306.433H38.8031V306.256H38.8621V306.138H38.9211V306.02H38.9801V305.902H39.0392V305.784H39.0982V305.666H39.1572V305.607H39.2162V305.489H39.2752V305.43H39.3342V305.312H39.3933V305.194H39.4523V305.135H39.5113V305.017H39.5703V304.958H39.6293V304.898H39.6883V304.839H22.1601V304.721H22.101V304.485H22.042V304.249H21.983V303.895H21.924V303.541H21.865V303.187H21.806V302.774H21.7469V302.243H21.6879V301.534H21.6289V299.41H21.6879V298.643H21.7469V298.17H21.806V297.757H21.865V297.403H21.924V296.99H21.983V296.695H22.042V296.459H22.101V296.813H39.9834V296.754H39.9244V296.636H39.8654V296.577H39.8064V296.459H39.7474V296.4H39.6883V296.341H39.6293V296.223H39.5703V296.164H39.5113V296.105H39.4523V295.987H39.3933V295.928H39.3342V295.81H39.2752V295.751H39.2162V295.633H39.1572V295.515H39.0982V295.397H39.0392V295.338H38.9801V295.22H38.9211V295.102H38.8621V294.984H38.8031V294.865H38.7441V294.688H38.685V294.57H38.626V294.393H38.567V294.275H38.508V294.098H38.449V293.921H38.39V293.685H38.3309V293.449H38.2719V293.036H38.2129V292.623H38.1539V291.442H38.2129V290.911H38.2719V290.616H38.3309V290.321H38.39V290.085H38.449V289.967H32.3701V289.908H32.4292V289.849H32.5472V289.79H32.6062V289.731H32.7242V289.672H32.8423V289.613H32.9603V289.554H33.0784V289.495H33.1374V289.436H38.626V289.377H38.685V289.259H38.7441V289.082H38.8031V288.964H38.8621V288.846H38.9211V288.728H38.9801V288.61H39.0392V288.492H39.0982V288.433H39.1572V288.314H39.2162V288.255H39.2752V288.137H39.3342V288.078H39.3933V287.96H39.4523V287.901H39.5113V287.842H39.5703V287.724H39.6293V287.665H39.6883V287.547H39.7474V287.488H39.8064V287.429H39.8654V287.311H39.9244V287.252H39.9834V287.193H40.0425V287.134H40.1015V287.075H40.1605V287.016H40.2195V286.957H40.2785V286.898H40.3375V286.839H40.3966V286.78H40.4556V286.721H40.5146V286.662H40.5736V286.603H40.6326V286.544H40.6917V286.485H40.7507V286.426H40.8687V286.367H40.9277V286.308H40.9867V286.249H41.0458V286.19H41.1048V286.131H41.2228V286.072H41.2818V286.013H41.3999V285.954H41.4589V285.895H41.5179V285.836H41.6359V285.777H41.754V285.718H41.813V285.659H41.931V285.6H42.0491V285.541H42.1081V285.482H42.2261V285.423H42.3441V285.364H42.4622V285.305H42.5212V285.246H42.6392V285.187H42.8163V285.128H42.9343V285.069H43.0524V285.01H43.1704V284.95H43.2884V284.891H43.4655V284.832H43.6425V284.773H43.8196V284.714H43.9966V284.655H44.1737V284.596H44.3508V284.537H44.5868V284.478H44.8819V284.419H45.118V284.36H45.4721V284.301H45.5311V282.649H45.5901V282.59H45.6491V282.531H45.7672V282.472H45.8852V282.413H46.0033V282.354H46.1213V282.295H46.2393V282.236H46.2983V282.177H46.4164V282.118H54.974V282.177H55.8002V282.236H56.2723V282.295H56.6265V282.354H57.0396V282.413H57.3937V282.472H57.7478V282.531H57.9839V282.59H48.423V284.301H48.6V284.36H48.9541V284.419H49.2492V284.478H49.4853V284.537H49.7214V284.596H49.8984V284.655H50.0755V284.714H50.3116V284.773H50.4886V284.832H50.6066V284.891H50.7837V284.95H50.9017V285.01H51.0198V285.069H51.1968V285.128H51.3149V285.187H51.4329V285.246H51.5509V285.305H51.669V285.364H51.787V285.423H51.846V285.482H51.964V285.541H52.0821V285.6H52.1411V285.659H52.2591V285.718H52.3772V285.777H52.4362V285.836H52.5542V285.895H52.6132V285.954H52.7313V286.013H52.7903V286.072H52.8493V286.131H52.9674V286.19H53.0264V286.249H53.0854V286.308H53.2034V286.367H53.2624V286.426H53.3215V286.485H53.3805V286.544H53.4395V286.603H53.4985V286.662H53.5575V286.721H53.6165V286.78H53.6756V286.839H53.7346V286.898H53.7936V286.957H53.8526V287.016H53.9116V287.075H53.9707V287.134H54.0297V287.193H54.0887V287.252H54.1477V287.311H54.2067V287.37H54.2657V287.488H54.3248V287.547H54.3838V287.606H54.4428V287.665H54.5018V287.783H54.5608V287.842H54.6198V287.901H54.6789V288.019H54.7379V288.137H54.7969V288.196H54.8559V288.314H54.9149V288.374H54.974V288.492H55.033V288.61H55.092V288.728H55.151V288.846H55.21V288.964H55.269V289.082H55.3281V289.2H55.3871V289.318H55.4461V289.436H68.6661V289.495H68.7251V289.554H68.7841V289.672H68.8431V289.731H68.9022V289.79H68.9612V289.908H69.0202V289.967H55.6231V290.026H55.6822V290.262H55.7412V290.498H55.8002V290.793H55.8592V291.206H55.9182V292.741H55.8592V293.213H55.8002V293.449H55.7412V293.626H55.6822V293.862H55.6231V294.098H55.5641V294.334H55.5051V294.452H55.4461V294.57H55.3871V294.688H55.3281V294.865H55.269V294.984H55.21V295.102H55.151V295.22H55.092V295.338H55.033V295.456H54.974V295.574H54.9149V295.633H54.8559V295.751H54.7969V295.81H54.7379V295.928H54.6789V296.046H54.6198V296.105H54.5608V296.164H54.5018V296.282H54.4428V296.341H54.3838V296.4H54.3248V296.518H54.2657V296.577H54.2067V296.695H54.1477V296.813H62.7643V296.872H62.6463V296.931H62.5872V296.99H62.4692V297.049H62.3512V297.108H62.2331V297.167H62.1741V297.226H62.0561V297.285H53.7936V297.403H53.7346V297.521H53.6756V297.639H53.6165V297.757H53.5575V297.934H53.4985V298.111H53.4395V298.289H53.3805V298.525H53.3215V298.761H53.2624V299.056H53.2034V299.528H53.1444V301.712H53.2034V302.302H53.0854V302.361H52.9674V302.42H52.8493V302.479H52.7313V302.066H52.6723V301.534H52.6132V299.705H52.6723V299.174H52.7313V298.82H52.7903V298.525H52.8493V298.289H52.9083V298.052H52.9674V297.875H53.0264V297.698H53.0854V297.58H53.1444V297.462H53.2034V297.226H53.2624V297.108H53.3215V297.049H53.3805V296.931H53.4395V296.813H53.4985V296.695H53.5575V296.636H53.6165V296.518H53.6756V296.459H53.7346V296.341H53.7936V296.282H53.8526V296.164H53.9116V296.105H53.9707V295.987H54.0297V295.928H54.0887V295.869H54.1477V295.81H54.2067V295.692H54.2657V295.574H54.3248V295.515H54.3838V295.397H54.4428V295.338H54.5018V295.22H54.5608V295.102H54.6198V294.984H54.6789V294.865H54.7379V294.747H54.7969V294.629H54.8559V294.452H54.9149V294.334H54.974V294.216H55.033V294.098H55.092V293.862H55.151V293.626H55.21V293.39H55.269V293.213H55.3281V292.859H55.3871V292.387H55.4461V291.619H55.3871V291.088H55.3281V290.734H55.269V290.498H55.21V290.262H55.151V290.085H55.092V289.908H55.033V289.731H54.974V289.554H54.9149V289.436H54.8559V289.318H54.7969V289.141H54.7379V289.082H54.6789V288.964H54.6198V288.846H54.5608V288.728H54.5018V288.669H54.4428V288.551H54.3838V288.433H54.3248V288.374H54.2657V288.314H54.2067V288.196H54.1477V288.137H54.0887V288.078H54.0297V287.96H53.9707V287.901H53.9116V287.842H53.8526V287.724H53.7936V287.665H53.7346V287.606H53.6756V287.547H53.6165V287.488H53.5575V287.429H53.4985V287.37H53.4395V287.311H53.3805V287.252H53.3215V287.193H53.2624V287.134H53.2034V287.075H53.1444V287.016H53.0854V286.957H53.0264V286.898H52.9674V286.839H52.9083V286.78H52.8493V286.721H52.7313V286.662H52.6723V286.603H52.6132V286.544H52.5542V286.485H52.4362V286.426H52.3772V286.367H52.3182V286.308H52.2001V286.249H52.1411V286.19H52.0231V286.131H51.905V286.072H51.846V286.013H51.728V285.954H51.6099V285.895H51.5509V285.836H51.4329V285.777H51.3149V285.718H51.1968V285.659H51.0788V285.6H50.9607V285.541H50.8427V285.482H50.6657V285.423H50.5476V285.364H50.4296V285.305H50.2525V285.246H50.0755V285.187H49.8984V285.128H49.6624V285.069H49.4853V285.01H49.2492V284.95H49.0132V284.891H48.6591V284.832H48.3049V284.773H47.8918V282.59H46.0623V284.773H45.7672V284.832H45.4131V284.891H45.118V284.95H44.8229V285.01H44.5868V285.069H44.4098V285.128H44.2327V285.187H44.0557V285.246H43.8786V285.305H43.7016V285.364H43.5245V285.423H43.4065V285.482H43.2884V285.541H43.1704V285.6H42.9933V285.659H42.8753V285.718H42.7573V285.777H42.6392V285.836H42.5802V285.895H42.4622V285.954H42.3441V286.013H42.2851V286.072H42.1671V286.131H42.0491V286.19H41.99V286.249H41.872V286.308H41.813V286.367H41.754V286.426H41.6359V286.485H41.5769V286.544H41.5179V286.603H41.3999V286.662H41.3408V286.721H41.2818V286.78H41.2228V286.839H41.1638V286.898H41.0458V286.957H40.9867V287.016H40.9277V287.075H40.8687V287.134H40.8097V287.193H40.7507V287.252H40.6917V287.311H40.6326V287.37H40.5736V287.429H40.5146V287.488H40.4556V287.547H40.3966V287.606H40.3375V287.724H40.2785V287.783H40.2195V287.842H40.1605V287.901H40.1015V288.019H40.0425V288.078H39.9834V288.137H39.9244V288.255H39.8654V288.314H39.8064V288.433H39.7474V288.492H39.6883V288.61H39.6293V288.669H39.5703V288.787H39.5113V288.905H39.4523V289.023H39.3933V289.141H39.3342V289.2H39.2752V289.377H39.2162V289.495H39.1572V289.613H39.0982V289.79H39.0392V289.908H38.9801V290.144H38.9211V290.38H38.8621V290.557H38.8031V290.793H38.7441V291.206H38.685V291.797H38.626V292.21H38.685V292.741H38.7441V293.154H38.8031V293.331H38.8621V293.567H38.9211V293.803H38.9801V294.039H39.0392V294.157H39.0982V294.334H39.1572V294.452H39.2162V294.57H39.2752V294.688H39.3342V294.865H39.3933V294.984H39.4523V295.102H39.5113V295.22H39.5703V295.279H39.6293V295.397H39.6883V295.456H39.7474V295.574H39.8064V295.633H39.8654V295.751H39.9244V295.869H39.9834V295.928H40.0425V295.987H40.1015V296.046H40.1605V296.164H40.2195V296.223H40.2785V296.341H40.3375V296.4H40.3966V296.518H40.4556V296.577H40.5146V296.695H40.5736V296.813H40.6326V296.872H40.6917V296.99H40.7507V297.108H40.8097V297.167H40.8687V297.403H40.9277V297.521H40.9867V297.639H41.0458V297.816H41.1048V297.993H41.1638V298.17H41.2228V298.407H41.2818V298.643H41.3408V298.938H41.3999V299.41H41.4589V301.83H41.3999V302.302H41.3408V302.538H41.2818V302.833H41.2228V303.069H41.1638V303.246H41.1048V303.423H41.0458V303.541H40.9867V303.718H40.9277V303.836H40.8687V303.954H40.8097V304.072H40.7507V304.19H40.6917V304.308H40.6326V304.485H40.5736V304.544H40.5146V304.662H40.4556V304.721H40.3966V304.839H40.3375V304.898H40.2785V304.958H40.2195V305.076H40.1605V305.135H40.1015V305.253H40.0425V305.312H39.9834V305.371H39.9244V305.489H39.8654V305.548H39.8064V305.666H39.7474V305.725H39.6883V305.843H39.6293V305.961H39.5703V306.02H39.5113V306.138H39.4523V306.256H39.3933V306.374H39.3342V306.492H39.2752V306.669H39.2162V306.787H39.1572V306.905H39.0982V307.023H39.0392V307.2H38.9801V307.436H38.9211V307.613H38.8621V307.849H38.8031V308.085H38.7441V308.499H38.685V308.971H38.626V309.443H38.685V310.033H38.7441V310.151H38.685V310.21H38.626V310.269H38.508V310.328H38.39V310.387H38.2719ZM22.101 304.308V304.367H40.0425V304.308H40.1015V304.19H40.1605V304.072H40.2195V303.954H40.2785V303.895H40.3375V303.718H40.3966V303.6H40.4556V303.482H40.5146V303.364H40.5736V303.187H40.6326V303.01H40.6917V302.833H40.7507V302.597H40.8097V302.302H40.8687V302.007H40.9277V301.416H40.9867V299.764H40.9277V299.233H40.8687V298.879H40.8097V298.643H40.7507V298.407H40.6917V298.229H40.6326V297.993H40.5736V297.875H40.5146V297.757H40.4556V297.58H40.3966V297.462H40.3375V297.344H40.2785V297.285H22.101V304.308Z" fill="#E80F0F"/>
<path d="M38.861 318.827V318.768H38.0348V318.709H37.6217V318.65H37.2676V318.591H36.8544V318.532H36.5003V318.473H36.1462V318.414H35.9102V318.355H45.5301V316.879H45.235V316.82H44.9989V316.761H44.7038V316.702H44.4677V316.643H44.2317V316.584H44.0546V316.525H43.8776V316.466H43.7005V316.407H43.5235V316.348H43.3464V316.289H43.2284V316.23H43.1103V316.171H42.9923V316.112H42.8152V316.053H42.6972V315.994H42.5792V315.935H42.4611V315.876H42.4021V315.817H42.2841V315.758H42.166V315.699H42.048V315.64H41.93V315.581H41.871V315.522H41.7529V315.463H41.6939V315.404H41.5759V315.345H41.5168V315.286H41.3988V315.227H41.3398V315.168H41.2808V315.109H41.1627V314.991H41.2218V314.932H41.2808V314.873H41.3988V314.814H41.5168V314.754H41.6349V314.814H41.7529V314.873H41.8119V314.932H41.93V314.991H41.989V315.05H42.107V315.109H42.166V315.168H42.2841V315.227H42.4021V315.286H42.4611V315.345H42.5792V315.404H42.6972V315.463H42.8152V315.522H42.9333V315.581H43.0513V315.64H43.1693V315.699H43.3464V315.758H43.4644V315.817H43.6415V315.876H43.7595V315.935H43.9366V315.994H44.1136V316.053H44.2907V316.112H44.4677V316.171H44.7038V316.23H44.9399V316.289H45.1759V316.348H45.5301V316.407H45.8842V316.466H46.0612V318.355H47.8908V316.466H48.1859V316.407H48.54V316.348H48.8941V316.289H49.1892V316.23H49.4842V316.171H49.6613V316.112H49.8384V316.053H50.0154V315.994H50.1925V315.935H50.3695V315.876H50.4875V315.817H50.6646V315.758H50.7826V315.699H50.9007V315.64H51.0187V315.581H51.1958V315.522H51.3138V315.463H51.4318V315.404H51.4909V315.345H51.6089V315.286H51.7269V315.227H51.7859V315.168H51.904V315.109H52.022V315.05H52.081V314.991H52.1991V314.932H52.2581V314.873H52.3761V314.814H52.4351V314.754H52.5532V314.695H52.6122V314.636H52.6712V314.577H52.7892V314.518H52.8483V314.459H52.9073V314.4H52.9663V314.341H53.0253V314.282H53.0843V314.223H53.2024V314.105H53.2614V314.046H53.3204V313.987H53.3794V313.928H53.4384V313.869H53.4975V313.81H53.5565V313.751H53.6155V313.692H53.6745V313.633H53.7335V313.574H53.7925V313.515H53.8516V313.397H53.9106V313.338H53.9696V313.279H54.0286V313.161H54.0876V313.102H54.1467V313.043H54.2057V312.984H54.2647V312.866H54.3237V312.748H54.3827V312.689H54.4417V312.571H54.5008V312.453H54.5598V312.394H54.6188V312.276H54.6778V312.158H54.7368V312.04H54.7958V311.922H54.8549V311.804H54.9139V311.627H54.9729V311.509H55.0319V311.331H55.0909V311.154H55.15V310.977H69.0191V311.036H68.9601V311.154H68.9011V311.213H68.8421V311.272H68.7831V311.39H68.724V311.449H68.665V311.509H55.5631V311.568H55.5041V311.745H55.445V311.863H55.386V312.04H55.327V312.158H55.268V312.276H55.209V312.394H55.15V312.512H55.0909V312.63H55.0319V312.689H54.9729V312.807H54.9139V312.925H54.8549V312.984H54.7958V313.102H54.7368V313.161H54.6778V313.279H54.6188V313.397H54.5598V313.456H54.5008V313.515H54.4417V313.574H54.3827V313.692H54.3237V313.751H54.2647V313.81H54.2057V313.869H54.1467V313.987H54.0876V314.046H54.0286V314.105H53.9696V314.164H53.9106V314.223H53.8516V314.282H53.7925V314.341H53.7335V314.4H53.6745V314.459H53.6155V314.518H53.5565V314.577H53.4975V314.636H53.4384V314.695H53.3794V314.754H53.3204V314.814H53.2614V314.873H53.1433V314.932H53.0843V314.991H53.0253V315.05H52.9073V315.109H52.8483V315.168H52.7892V315.227H52.6712V315.286H52.6122V315.345H52.5532V315.404H52.4351V315.463H52.3171V315.522H52.2581V315.581H52.14V315.64H52.022V315.699H51.963V315.758H51.845V315.817H51.7269V315.876H51.6679V315.935H51.4909V315.994H51.3728V316.053H51.2548V316.112H51.1367V316.171H51.0187V316.23H50.9007V316.289H50.7236V316.348H50.6056V316.407H50.4285V316.466H50.2515V316.525H50.0744V316.584H49.8974V316.643H49.6613V316.702H49.4252V316.761H49.1301V316.82H48.8351V316.879H48.54V316.938H48.4219V318.355H57.0975V318.414H56.9795V318.473H56.9205V318.532H56.8025V318.591H56.6844V318.65H56.3303V318.709H55.9172V318.768H55.15V318.827H38.861ZM59.2812 304.84V304.78H59.3992V304.721H59.5173V304.662H59.6353V304.603H59.7533V304.544H59.8124V304.485H59.9304V304.426H60.0484V304.367H71.852V298.052H71.911V297.993H72.029V297.934H72.1471V298.052H72.2061V298.525H72.2651V299.233H72.3241V301.712H72.2651V302.479H72.2061V302.892H72.1471V303.246H72.0881V303.659H72.029V304.013H71.97V304.308H71.911V304.544H71.852V304.78H71.793V304.84" fill="#E80F0F"/>
<path d="M81.4151 305.334V305.53H79.4822V305.334H80.3427V302.295C80.3427 302.234 80.3463 302.171 80.3516 302.105L79.5253 302.837L79.4516 302.861L79.3931 302.83L79.3164 302.724L80.3982 301.768H80.5971V305.334H81.4151Z" fill="white"/>
<path d="M84.4775 305.292L84.5436 305.317L84.5678 305.381V305.53H82.1504V305.44L82.1657 305.38L82.2035 305.328L83.4812 304.035C83.5875 303.927 83.686 303.823 83.7757 303.722C83.8654 303.621 83.9439 303.52 84.0095 303.418C84.0761 303.315 84.1275 303.21 84.1647 303.102C84.2013 302.995 84.2201 302.88 84.2201 302.758C84.2201 302.621 84.1977 302.501 84.1517 302.4C84.1051 302.298 84.0443 302.215 83.9693 302.149C83.8932 302.083 83.8047 302.035 83.7043 302.004C83.6034 301.972 83.4995 301.956 83.3921 301.956C83.2741 301.956 83.1649 301.974 83.0646 302.011C82.9654 302.047 82.8769 302.096 82.8002 302.162C82.7235 302.226 82.6603 302.303 82.609 302.392C82.5588 302.481 82.5246 302.578 82.5057 302.684L82.4561 302.761L82.3729 302.773L82.2425 302.753C82.2661 302.593 82.3103 302.449 82.3747 302.324C82.4408 302.199 82.5228 302.093 82.6243 302.007C82.7246 301.92 82.8409 301.854 82.9737 301.809C83.1059 301.765 83.2487 301.741 83.4022 301.741C83.5456 301.741 83.6813 301.762 83.8117 301.804C83.941 301.846 84.0561 301.909 84.1552 301.991C84.2544 302.076 84.334 302.181 84.3925 302.306C84.4509 302.433 84.4798 302.581 84.4798 302.75C84.4798 302.892 84.458 303.023 84.4149 303.143C84.3718 303.264 84.3128 303.38 84.2396 303.492C84.1647 303.602 84.0779 303.711 83.9805 303.815C83.8826 303.921 83.7799 304.027 83.6725 304.138L82.5004 305.334C82.5558 305.32 82.6155 305.309 82.6757 305.302C82.737 305.295 82.7984 305.292 82.8604 305.292H84.4775Z" fill="white"/>
<path d="M85.3292 302.753C85.3516 302.593 85.3959 302.449 85.4614 302.324C85.5269 302.199 85.6101 302.093 85.7099 302.007C85.8108 301.92 85.927 301.854 86.0598 301.809C86.192 301.765 86.3349 301.741 86.4883 301.741C86.6311 301.741 86.7663 301.761 86.8938 301.801C87.0206 301.84 87.1322 301.9 87.2284 301.98C87.3246 302.059 87.4001 302.158 87.4562 302.277C87.5117 302.395 87.5394 302.532 87.5394 302.686C87.5394 302.808 87.5205 302.918 87.4833 303.016C87.4468 303.114 87.3954 303.2 87.3287 303.274C87.2632 303.349 87.1847 303.411 87.095 303.46C87.0047 303.51 86.9067 303.551 86.8011 303.576C87.0761 303.627 87.2839 303.733 87.4243 303.895C87.5642 304.056 87.6344 304.258 87.6344 304.5C87.6344 304.654 87.6043 304.796 87.5424 304.929C87.4804 305.059 87.3954 305.172 87.2874 305.267C87.18 305.363 87.0531 305.438 86.9067 305.492C86.7598 305.546 86.601 305.572 86.4299 305.572C86.2168 305.572 86.0386 305.543 85.8969 305.486C85.7547 305.429 85.6379 305.354 85.5458 305.262C85.4543 305.171 85.3829 305.067 85.3316 304.954C85.2802 304.841 85.2389 304.726 85.207 304.613L85.3074 304.571L85.3965 304.561L85.4643 304.622L85.4998 304.721C85.5151 304.766 85.5363 304.816 85.5641 304.87C85.593 304.926 85.6296 304.982 85.6744 305.038C85.7199 305.096 85.7754 305.148 85.8438 305.197C85.9117 305.244 85.9931 305.283 86.0882 305.313C86.1844 305.343 86.2971 305.357 86.4281 305.357C86.5863 305.357 86.725 305.331 86.8442 305.278C86.964 305.225 87.0637 305.158 87.1434 305.076C87.2243 304.993 87.2839 304.902 87.3234 304.801C87.3629 304.7 87.383 304.6 87.383 304.505C87.383 304.39 87.3653 304.284 87.3287 304.185C87.2927 304.086 87.2319 304 87.1481 303.929C87.0626 303.858 86.951 303.802 86.8123 303.76C86.6742 303.719 86.5031 303.699 86.3006 303.699V303.516C86.4629 303.512 86.6058 303.49 86.7291 303.45C86.8524 303.411 86.9563 303.357 87.0395 303.287C87.1222 303.218 87.1847 303.137 87.2272 303.041C87.2703 302.946 87.2909 302.841 87.2909 302.727C87.2909 302.595 87.2679 302.479 87.2243 302.382C87.18 302.285 87.1204 302.204 87.0466 302.142C86.9728 302.078 86.8861 302.031 86.7875 302.001C86.6884 301.971 86.5857 301.956 86.4777 301.956C86.3597 301.956 86.2505 301.974 86.1495 302.011C86.0486 302.047 85.9607 302.096 85.884 302.162C85.8067 302.226 85.7429 302.303 85.6916 302.392C85.6402 302.481 85.6054 302.578 85.5859 302.684L85.5411 302.761L85.4584 302.773L85.3292 302.753Z" fill="white"/>
<path d="M89.9788 304.254V302.293L89.9823 302.194L89.9918 302.086L88.3723 304.254H89.9788ZM90.8865 304.254V304.392L90.8694 304.439L90.8156 304.455H90.2007V305.53H89.9788V304.455H88.2077L88.1469 304.439L88.1179 304.392L88.0938 304.267L89.977 301.779H90.2007V304.254H90.8865Z" fill="white"/>
<path d="M81.3885 310.008C81.3885 309.704 81.3601 309.445 81.3011 309.23C81.2433 309.015 81.1648 308.839 81.0668 308.702C80.9683 308.565 80.8544 308.465 80.7222 308.401C80.5911 308.338 80.453 308.306 80.3085 308.306C80.1639 308.306 80.0258 308.338 79.8959 308.401C79.7649 308.465 79.6504 308.565 79.5513 308.702C79.4527 308.839 79.3742 309.015 79.3164 309.23C79.2579 309.445 79.2278 309.704 79.2278 310.008C79.2278 310.314 79.2579 310.574 79.3164 310.787C79.3742 311.003 79.4527 311.179 79.5513 311.315C79.6504 311.451 79.7649 311.551 79.8959 311.614C80.0258 311.675 80.1639 311.708 80.3085 311.708C80.453 311.708 80.5911 311.675 80.7222 311.614C80.8544 311.551 80.9683 311.451 81.0668 311.315C81.1648 311.179 81.2433 311.003 81.3011 310.787C81.3601 310.574 81.3885 310.314 81.3885 310.008ZM81.6535 310.008C81.6535 310.337 81.6175 310.62 81.5472 310.861C81.477 311.101 81.3808 311.299 81.2586 311.456C81.1376 311.614 80.9948 311.73 80.8313 311.807C80.6685 311.884 80.4938 311.922 80.3085 311.922C80.1231 311.922 79.9502 311.884 79.7867 311.807C79.6244 311.73 79.4822 311.614 79.3612 311.456C79.2396 311.299 79.144 311.101 79.0738 310.861C79.0042 310.62 78.9688 310.337 78.9688 310.008C78.9688 309.679 79.0042 309.396 79.0738 309.156C79.144 308.916 79.2396 308.718 79.3612 308.561C79.4822 308.404 79.6244 308.287 79.7867 308.209C79.9502 308.133 80.1231 308.094 80.3085 308.094C80.4938 308.094 80.6685 308.133 80.8313 308.209C80.9948 308.287 81.1376 308.404 81.2586 308.561C81.3808 308.718 81.477 308.916 81.5472 309.156C81.6175 309.396 81.6535 309.679 81.6535 310.008Z" fill="white"/>
<path d="M84.4594 310.008C84.4594 309.704 84.4299 309.445 84.372 309.23C84.313 309.015 84.2351 308.839 84.1371 308.702C84.0392 308.565 83.9247 308.465 83.7931 308.401C83.6615 308.338 83.5234 308.306 83.3788 308.306C83.2336 308.306 83.0955 308.338 82.9662 308.401C82.8358 308.465 82.7213 308.565 82.621 308.702C82.5224 308.839 82.4439 309.015 82.3861 309.23C82.3277 309.445 82.2987 309.704 82.2987 310.008C82.2987 310.314 82.3277 310.574 82.3861 310.787C82.4439 311.003 82.5224 311.179 82.621 311.315C82.7213 311.451 82.8358 311.551 82.9662 311.614C83.0955 311.675 83.2336 311.708 83.3788 311.708C83.5234 311.708 83.6615 311.675 83.7931 311.614C83.9247 311.551 84.0392 311.451 84.1371 311.315C84.2351 311.179 84.313 311.003 84.372 310.787C84.4299 310.574 84.4594 310.314 84.4594 310.008ZM84.7244 310.008C84.7244 310.337 84.6884 310.62 84.6181 310.861C84.5473 311.101 84.4511 311.299 84.329 311.456C84.2074 311.614 84.0651 311.73 83.9017 311.807C83.7388 311.884 83.5641 311.922 83.3788 311.922C83.1935 311.922 83.0199 311.884 82.857 311.807C82.6947 311.73 82.5531 311.614 82.4309 311.456C82.3094 311.299 82.2138 311.101 82.1435 310.861C82.0739 310.62 82.0391 310.337 82.0391 310.008C82.0391 309.679 82.0739 309.396 82.1435 309.156C82.2138 308.916 82.3094 308.718 82.4309 308.561C82.5531 308.404 82.6947 308.287 82.857 308.209C83.0199 308.133 83.1935 308.094 83.3788 308.094C83.5641 308.094 83.7388 308.133 83.9017 308.209C84.0651 308.287 84.2074 308.404 84.329 308.561C84.4511 308.718 84.5473 308.916 84.6181 309.156C84.6884 309.396 84.7244 309.679 84.7244 310.008Z" fill="white"/>
<path d="M87.5291 310.008C87.5291 309.704 87.4996 309.445 87.4412 309.23C87.3827 309.015 87.3042 308.839 87.2063 308.702C87.1083 308.565 86.9938 308.465 86.8628 308.401C86.7312 308.338 86.5925 308.306 86.4485 308.306C86.3039 308.306 86.1658 308.338 86.0354 308.401C85.9049 308.465 85.7904 308.565 85.6913 308.702C85.5927 308.839 85.5142 309.015 85.4552 309.23C85.3968 309.445 85.3679 309.704 85.3679 310.008C85.3679 310.314 85.3968 310.574 85.4552 310.787C85.5142 311.003 85.5927 311.179 85.6913 311.315C85.7904 311.451 85.9049 311.551 86.0354 311.614C86.1658 311.675 86.3039 311.708 86.4485 311.708C86.5925 311.708 86.7312 311.675 86.8628 311.614C86.9938 311.551 87.1083 311.451 87.2063 311.315C87.3042 311.179 87.3827 311.003 87.4412 310.787C87.4996 310.574 87.5291 310.314 87.5291 310.008ZM87.7935 310.008C87.7935 310.337 87.7575 310.62 87.6873 310.861C87.617 311.101 87.5203 311.299 87.3987 311.456C87.2765 311.614 87.1349 311.73 86.9708 311.807C86.8079 311.884 86.6338 311.922 86.4485 311.922C86.2632 311.922 86.0897 311.884 85.9268 311.807C85.7639 311.73 85.6222 311.614 85.5007 311.456C85.3791 311.299 85.2835 311.101 85.2132 310.861C85.1442 310.62 85.1094 310.337 85.1094 310.008C85.1094 309.679 85.1442 309.396 85.2132 309.156C85.2835 308.916 85.3791 308.718 85.5007 308.561C85.6222 308.404 85.7639 308.287 85.9268 308.209C86.0897 308.133 86.2632 308.094 86.4485 308.094C86.6338 308.094 86.8079 308.133 86.9708 308.209C87.1349 308.287 87.2765 308.404 87.3987 308.561C87.5203 308.718 87.617 308.916 87.6873 309.156C87.7575 309.396 87.7935 309.679 87.7935 310.008Z" fill="white"/>
<path d="M90.5994 310.008C90.5994 309.704 90.5705 309.445 90.5121 309.23C90.4542 309.015 90.3751 308.839 90.2778 308.702C90.1798 308.565 90.0647 308.465 89.9337 308.401C89.8021 308.338 89.6634 308.306 89.52 308.306C89.3742 308.306 89.2367 308.338 89.1063 308.401C88.9758 308.465 88.8613 308.565 88.7616 308.702C88.663 308.839 88.5845 309.015 88.5261 309.23C88.4683 309.445 88.4388 309.704 88.4388 310.008C88.4388 310.314 88.4683 310.574 88.5261 310.787C88.5845 311.003 88.663 311.179 88.7616 311.315C88.8613 311.451 88.9758 311.551 89.1063 311.614C89.2367 311.675 89.3742 311.708 89.52 311.708C89.6634 311.708 89.8021 311.675 89.9337 311.614C90.0647 311.551 90.1798 311.451 90.2778 311.315C90.3751 311.179 90.4542 311.003 90.5121 310.787C90.5705 310.574 90.5994 310.314 90.5994 310.008ZM90.8644 310.008C90.8644 310.337 90.8278 310.62 90.7576 310.861C90.6873 311.101 90.5912 311.299 90.4702 311.456C90.348 311.614 90.2052 311.73 90.0417 311.807C89.8788 311.884 89.7041 311.922 89.52 311.922C89.3335 311.922 89.1606 311.884 88.9971 311.807C88.8354 311.73 88.6926 311.614 88.5716 311.456C88.4506 311.299 88.3544 311.101 88.2842 310.861C88.2145 310.62 88.1797 310.337 88.1797 310.008C88.1797 309.679 88.2145 309.396 88.2842 309.156C88.3544 308.916 88.4506 308.718 88.5716 308.561C88.6926 308.404 88.8354 308.287 88.9971 308.209C89.1606 308.133 89.3335 308.094 89.52 308.094C89.7041 308.094 89.8788 308.133 90.0417 308.209C90.2052 308.287 90.348 308.404 90.4702 308.561C90.5912 308.718 90.6873 308.916 90.7576 309.156C90.8278 309.396 90.8644 309.679 90.8644 310.008Z" fill="white"/>
<g filter="url(#filter0_d_55_2241)">
<path d="M171.939 268.748L195.104 255.412L248.356 286.077L278.413 268.719L225.219 237.997L248.616 224.777L324.802 268.719L248.356 312.836L171.91 268.719L171.939 268.748ZM326.568 239.01V265.624L250.122 221.566V201.981L273.288 188.616V208.143L326.568 238.894V239.01ZM326.568 158.009V234.497L303.403 221.132V171.374L326.568 158.009ZM324.831 155.116L301.666 168.481L248.385 137.759L218.328 155.116L271.55 185.868L248.153 199.088L171.939 155.087L248.356 111L324.831 155.087V155.116ZM170.201 184.855V158.009L246.647 202.126V221.71L223.482 235.075V215.491L170.201 184.768V184.855ZM170.201 188.818L193.367 203.08V252.519L170.201 265.856V188.732V188.818Z" fill="url(#paint3_linear_55_2241)"/>
</g>
<defs>
<filter id="filter0_d_55_2241" x="120.201" y="65" width="256.367" height="301.836" filterUnits="userSpaceOnUse" color-interpolation-filters="sRGB">
<feFlood flood-opacity="0" result="BackgroundImageFix"/>
<feColorMatrix in="SourceAlpha" type="matrix" values="0 0 0 0 0 0 0 0 0 0 0 0 0 0 0 0 0 0 127 0" result="hardAlpha"/>
<feOffset dy="4"/>
<feGaussianBlur stdDeviation="25"/>
<feComposite in2="hardAlpha" operator="out"/>
<feColorMatrix type="matrix" values="0 0 0 0 0.74902 0 0 0 0 0.0705882 0 0 0 0 0.0196078 0 0 0 0.5 0"/>
<feBlend mode="normal" in2="BackgroundImageFix" result="effect1_dropShadow_55_2241"/>
<feBlend mode="normal" in="SourceGraphic" in2="effect1_dropShadow_55_2241" result="shape"/>
</filter>
<linearGradient id="paint0_linear_55_2241" x1="248.533" y1="1000.89" x2="248.533" y2="2.98288e-05" gradientUnits="userSpaceOnUse">
<stop stop-color="#7F0011"/>
<stop offset="1" stop-color="#C02714"/>
</linearGradient>
<linearGradient id="paint1_linear_55_2241" x1="71.5" y1="291.985" x2="190.263" y2="291.985" gradientUnits="userSpaceOnUse">
<stop stop-color="#E80F0F" stop-opacity="0"/>
<stop offset="0.544792" stop-color="#E80F0F"/>
<stop offset="1" stop-color="#E80F0F" stop-opacity="0"/>
</linearGradient>
<linearGradient id="paint2_linear_55_2241" x1="-6.50389" y1="277.432" x2="57.3569" y2="390.452" gradientUnits="userSpaceOnUse">
<stop stop-color="#D41700"/>
<stop offset="1" stop-color="#7F0011"/>
</linearGradient>
<linearGradient id="paint3_linear_55_2241" x1="138.957" y1="299.471" x2="415.892" y2="77.3532" gradientUnits="userSpaceOnUse">
<stop stop-color="#D41700"/>
<stop offset="1" stop-color="#7F0011"/>
</linearGradient>
</defs>
</svg>
