<svg width="65" height="65" viewBox="0 0 65 65" fill="none" xmlns="http://www.w3.org/2000/svg">
<path d="M41.5112 2.70963C37.8772 3.13028 34.2082 4.77784 31.4038 7.25502C26.7532 11.3681 24.4396 17.5143 25.2459 23.6138C25.4679 25.2146 25.7834 26.4298 26.4377 28.1942C26.8818 29.3744 26.9869 29.8184 27.0454 30.6481C27.1155 31.9684 26.9752 32.6695 26.0989 35.2402C25.5731 36.806 25.3861 37.5187 25.3861 38.0095C25.3744 38.6405 25.4095 38.7106 25.8184 39.1196C26.2274 39.5285 26.2975 39.5636 26.9285 39.5519C27.4193 39.5519 28.1437 39.3649 29.6978 38.8391C32.2918 37.9628 32.9812 37.8225 34.2899 37.8927C35.1196 37.9511 35.5636 38.0562 36.7438 38.5003C38.5082 39.1546 39.7234 39.4701 41.3242 39.6921C44.2104 40.0777 47.2952 39.7389 50.1112 38.734C52.2145 37.9861 54.9721 36.2801 56.4911 34.7962C57.1805 34.1185 57.2974 33.6277 56.865 33.1954C56.4327 32.763 56.0471 32.8915 54.9254 33.8497C54.3528 34.3405 53.4998 34.9948 53.0207 35.3103C51.6536 36.2334 49.0362 37.4253 49.0362 37.1331C49.0479 36.6541 49.2232 36.4321 49.7957 36.175C50.4267 35.9062 50.6838 35.6024 51.4082 34.3405C51.7003 33.838 51.7237 33.6978 51.7237 32.4475C51.7237 31.7114 51.677 30.9752 51.6186 30.8116C51.5017 30.5195 49.9476 29.3043 49.4452 29.1057C49.2699 29.0356 48.896 29.0472 48.487 29.1057C47.5289 29.2692 47.5639 29.2809 47.2134 28.6383C46.9914 28.2176 46.7693 28.0073 46.4188 27.8437C45.4957 27.4114 44.2922 27.0258 43.4392 26.8972C42.9718 26.8271 42.4693 26.6869 42.3408 26.5934C41.9435 26.3247 41.3242 26.3831 40.6582 26.7687C39.8753 27.2244 39.6883 27.4932 39.6883 28.241C39.6883 28.7317 39.6182 28.9538 39.2911 29.4212C38.7536 30.1924 38.7302 30.3092 38.8587 31.5478C38.9522 32.3891 39.0574 32.7864 39.3612 33.3823C39.887 34.4106 40.3076 34.9013 40.8335 35.0649C41.0672 35.1467 41.3008 35.2519 41.3593 35.2869C41.406 35.3337 41.5345 35.9647 41.6514 36.6774C41.8383 37.7875 41.8383 37.9861 41.6981 37.9861C41.1606 37.9861 38.9756 37.4253 37.7136 36.9696C35.7622 36.2568 35.1546 36.1166 33.9043 36.1166C32.5606 36.1166 31.6725 36.3152 29.2538 37.1215C28.1788 37.4954 27.2674 37.7524 27.2323 37.7174C27.1856 37.6706 27.4543 36.7592 27.8166 35.6842C28.6345 33.2304 28.8214 32.3774 28.8098 30.9752C28.8098 29.7483 28.6579 29.1173 27.8983 27.0258C27.1271 24.8991 26.9051 23.6605 26.9051 21.2768C26.9051 19.01 27.057 17.97 27.6763 16.0303L28.0269 14.9203L28.3073 15.6447L28.5761 16.3692L28.3541 17.0119C28.2255 17.3741 28.0269 18.2271 27.8983 18.9282L27.6647 20.1901L27.9568 21.3469C28.2956 22.679 28.3424 22.7491 30.0951 24.1513C31.2285 25.0627 31.2636 25.0978 32.0465 26.5584C32.9345 28.2293 32.9929 28.276 34.3717 28.5214C34.8391 28.6032 35.5753 28.8603 36.0894 29.1173C36.5919 29.3744 37.1527 29.5731 37.3397 29.5731C37.8772 29.5731 38.3563 29.094 38.6367 28.241C38.9405 27.3296 38.8821 27.0491 38.2277 26.2546C37.5617 25.4366 37.3864 25.1445 37.2929 24.6888L37.2112 24.3149H38.2511C39.4313 24.3149 39.6767 24.198 40.0389 23.4969C40.1674 23.2399 40.4245 22.9594 40.6114 22.8543C41.0321 22.6439 41.406 22.1882 41.4995 21.7676C41.5462 21.5105 41.7682 21.3469 42.5628 20.9263C44.0117 20.1784 44.2221 19.6409 43.4976 18.4374C43.2756 18.0752 43.1354 17.7597 43.1704 17.7246C43.2172 17.7013 43.8365 17.4909 44.5492 17.2572C46.1501 16.7314 46.3721 16.5328 46.4422 15.5396C46.4889 14.9086 46.4422 14.7099 45.9981 13.6466C45.7177 12.9923 45.4139 12.373 45.3321 12.2561C45.1101 11.9991 43.7196 11.3447 43.3924 11.3447C43.2405 11.3447 42.8199 11.5317 42.4576 11.7654C41.9201 12.1042 41.628 12.408 41.0788 13.2377C40.3661 14.2893 40.3661 14.2893 39.9571 14.2309C39.7234 14.1841 39.5364 14.1491 39.5131 14.1257C39.1508 13.5999 38.6367 12.4431 38.6367 12.1276C38.6367 11.7537 38.7419 11.6485 40.2025 10.4917C42.037 9.05449 42.0487 9.01943 41.6748 7.61726C41.2424 6.01643 40.9854 5.86453 39.1976 6.15665C38.2745 6.29687 38.0057 6.39035 37.4215 6.79932L36.7321 7.26671L35.9959 6.95122C35.2948 6.63573 35.2715 6.61236 35.5052 6.44877C36.0544 6.06317 38.1576 5.23355 39.3845 4.91806C40.0973 4.74279 41.2074 4.52077 41.8383 4.43898C43.0769 4.28708 45.7294 4.3455 46.2318 4.54414C46.4539 4.62594 46.5941 4.84795 46.8044 5.43219C46.9563 5.85284 47.1783 6.33192 47.2952 6.48383C47.5055 6.75257 47.5055 6.77595 47.2601 7.5004C47.0264 8.17813 47.0264 8.31834 47.1433 9.55694C47.2134 10.2814 47.3302 10.9825 47.4003 11.111C47.5522 11.3915 48.0313 11.6485 48.6973 11.8004C49.5153 11.9874 49.7957 11.7887 50.7772 10.3749C51.2446 9.69715 51.6887 9.08954 51.7588 9.03112C51.8406 8.97269 52.2963 8.82079 52.7754 8.70394C53.2544 8.5871 53.7802 8.36508 53.9555 8.22486L54.2593 7.9678L55.2525 8.8909C59.9966 13.2844 61.761 20.1551 59.7629 26.4065C59.3539 27.6918 58.8281 28.8836 58.2205 29.8652C57.9868 30.2508 57.7998 30.7065 57.7998 30.8701C57.7998 31.653 58.6762 31.9918 59.2604 31.4426C59.6577 31.0687 60.9781 28.3695 61.4104 27.0608C63.0113 22.1766 62.5556 17.0235 60.1368 12.408C57.7531 7.89769 53.3362 4.43898 48.3117 3.15365C46.2786 2.63951 43.6028 2.46424 41.5112 2.70963ZM49.8892 5.5023C51.3264 6.06317 52.787 6.86943 52.5417 6.95122C52.4482 6.97459 52.0509 7.09144 51.6653 7.1966C50.6838 7.46535 50.5319 7.59388 49.7139 8.80911L48.9778 9.88411L48.8843 9.15965C48.8025 8.54036 48.8259 8.33003 49.0362 7.75747C49.3867 6.83437 49.3634 6.4254 48.931 5.75937C48.5688 5.19849 48.5104 5.0349 48.6389 5.0349C48.674 5.0349 49.2348 5.24523 49.8892 5.5023ZM35.178 8.49362C36.919 9.25313 37.0125 9.25313 38.0525 8.49362C39.069 7.75747 40.0272 7.64062 40.0389 8.25992C40.0389 8.33003 39.4663 8.84416 38.7652 9.40503C38.0641 9.95422 37.3397 10.5852 37.1644 10.7955C36.8606 11.1578 36.8606 11.2045 36.919 12.186C36.9775 13.1559 37.0125 13.2493 37.6669 14.3945C38.4497 15.785 38.6017 15.8784 40.0856 15.9836C41.2541 16.0654 41.3476 15.9953 42.3291 14.5113C43.112 13.3195 43.4041 13.0858 43.778 13.3428C44.0117 13.4947 44.7128 14.932 44.7128 15.2474C44.7128 15.3176 44.1169 15.5629 43.4041 15.785C41.9085 16.2407 41.5345 16.5094 41.3242 17.304C41.2074 17.7246 41.2191 17.8882 41.3826 18.3089C41.4878 18.5776 41.6514 18.8697 41.7449 18.9399C42.0136 19.1736 41.9552 19.2553 41.2424 19.6526C40.3544 20.1434 40.0623 20.4121 39.9805 20.8328C39.922 21.0665 39.7234 21.3002 39.3962 21.5339C39.1158 21.7325 38.8237 22.048 38.7419 22.235C38.6133 22.5622 38.6017 22.5622 37.5617 22.5622C36.4283 22.5622 36.0193 22.7024 35.6103 23.2165C35.3065 23.6138 35.3065 24.0111 35.6103 25.1679C35.809 25.8923 35.9842 26.2429 36.4283 26.8038C36.7438 27.1893 36.9775 27.5282 36.9541 27.5516C36.9307 27.5866 36.6269 27.4581 36.2997 27.2945C35.9609 27.1192 35.3299 26.9206 34.9092 26.8388L34.138 26.6986L33.3668 25.2964C32.6073 23.9176 32.5956 23.8942 31.2636 22.8426C30.0834 21.8961 29.9081 21.7092 29.7329 21.2067C29.4524 20.3771 29.4758 19.8279 29.8848 18.2855C30.3989 16.3225 30.4106 16.1822 30.06 15.3176C29.8731 14.8502 29.7562 14.3477 29.7562 13.9738C29.7562 13.6349 29.6978 13.0858 29.6394 12.7352C29.5225 12.1393 29.5342 12.0925 29.9198 11.52C30.7962 10.1996 33.1215 7.83927 33.5421 7.83927C33.6239 7.83927 34.3601 8.13139 35.178 8.49362ZM42.9017 28.5682C43.4158 28.6733 44.2337 28.8836 44.7128 29.0589C45.5775 29.351 45.6009 29.3744 46.0332 30.1106C46.302 30.5546 46.5941 30.9168 46.7693 30.9752C46.9446 31.0453 47.3886 31.0337 47.9846 30.9519L48.931 30.8233L49.4218 31.1739L49.9126 31.5361L49.9476 32.4475C49.971 33.3005 49.9476 33.4174 49.6204 33.9198C49.3634 34.3405 49.1063 34.5625 48.5688 34.8312C47.7976 35.2168 47.6107 35.4505 47.412 36.2451C47.3419 36.5489 47.19 37.028 47.0615 37.3084C46.8161 37.9043 46.7693 37.916 44.7011 38.0679L43.6846 38.138L43.6144 37.7992C43.5794 37.6122 43.4392 36.7826 43.3106 35.9413C43.0302 34.2119 42.8666 33.9198 41.9201 33.6043C41.4527 33.4524 41.3359 33.3356 41.0204 32.7513C40.74 32.2606 40.6348 31.8983 40.6114 31.3842C40.5764 30.7532 40.6114 30.6247 40.9269 30.1573C41.184 29.7951 41.3125 29.4212 41.371 28.9421C41.4527 28.3228 41.4878 28.2644 41.7098 28.3228C41.85 28.3578 42.3875 28.463 42.9017 28.5682Z" fill="url(#paint0_linear_55_3960)"/>
<path d="M11.3522 13.6464C10.838 13.7749 8.23231 15.0836 7.43774 15.6094C5.41627 16.9064 4.13094 18.6124 3.313 21.0779C2.74044 22.7605 2.58854 23.8472 2.60022 26.0674C2.61191 28.4043 2.89234 30.0753 3.64017 32.272C4.10757 33.5924 5.11246 35.8125 5.41627 36.1397C5.84861 36.6188 6.8535 36.2448 6.8535 35.6022C6.8535 35.462 6.61981 34.831 6.32769 34.2117C3.81545 28.825 3.65186 23.3448 5.88366 19.6173C6.56138 18.4956 7.51954 17.5141 7.68313 17.7711C7.75324 17.8646 8.26737 18.7059 8.85161 19.629C10.2538 21.8842 12.2519 24.7119 14.3318 27.3877L14.9511 28.1823L14.5421 28.5212C13.9929 28.9652 13.3269 29.9818 13.0231 30.8348C12.6609 31.828 12.6609 33.8261 13.0348 35.1698C13.3853 36.4201 14.4136 38.4416 15.3834 39.797C16.0261 40.7085 20.3261 45.2071 23.1538 47.918C24.9767 49.6707 27.8395 51.3884 29.8142 51.9025C31.1463 52.2531 32.934 52.2531 33.9623 51.9025C34.9205 51.5637 35.937 50.956 36.4044 50.4302L36.7667 50.0213L38.8933 51.6338C41.1835 53.3748 44.3034 55.5248 46.1145 56.6232C46.7221 56.9854 47.248 57.3126 47.2713 57.336C47.3765 57.4411 46.3716 58.3642 45.6471 58.8433C44.3501 59.6963 42.9479 60.1988 41.0901 60.4792C36.4862 61.192 31.2397 59.5444 25.8764 55.7351C23.5745 54.0876 21.997 52.6737 17.5685 48.2802C12.7777 43.5245 11.4456 42.0756 9.75134 39.797C9.17878 39.0258 8.60623 38.278 8.46601 38.1378C7.82334 37.425 6.76002 38.2079 7.14562 39.1076C7.34427 39.5867 9.19047 42.0172 10.5459 43.5946C12.0065 45.2889 17.5685 50.9327 19.812 53.0009C23.3057 56.2142 26.1218 58.2357 29.4052 59.8833C35.2944 62.8278 40.9148 63.2018 45.4952 60.9349C47.7621 59.8248 49.0708 58.3525 50.5781 55.2093C51.2559 53.8071 51.3143 53.6436 51.3143 52.884C51.3143 51.6571 51.0105 51.2131 49.3629 50.0213C47.8789 48.9579 47.4817 48.8528 47.061 49.3903C46.5936 49.9862 46.7923 50.3601 48.0659 51.2482C49.1643 52.0194 49.62 52.4868 49.62 52.849C49.62 53.1061 48.6618 55.3145 48.3931 55.665C48.2529 55.8637 48.1594 55.8286 46.9909 55.1042C44.502 53.5735 42.0599 51.8675 39.2555 49.7058L37.8183 48.6074L38.718 47.4389C39.793 46.0484 39.8398 46.0017 40.3189 46.0017C40.611 46.0017 41.1134 46.2938 42.539 47.3104C44.5254 48.7126 44.8292 48.8294 45.2732 48.3503C45.5537 48.0582 45.6004 47.6843 45.4134 47.3338C45.2966 47.1117 42.1183 44.8098 41.4406 44.471C40.868 44.1672 39.7697 44.1905 39.1621 44.4943C38.5545 44.8098 38.274 45.1253 36.4278 47.5324C34.9906 49.4253 34.8504 49.5656 34.161 49.9044C31.9058 51.0145 29.0313 50.3017 25.7946 47.8479C24.4041 46.8079 17.9074 40.2878 16.9959 39.0375C16.6454 38.5584 16.178 37.8457 15.9443 37.4601C14.2851 34.6908 14.063 31.9448 15.3601 30.2388C15.5353 30.0168 16.5402 29.1521 17.6035 28.3459C18.6669 27.528 19.6834 26.7217 19.8587 26.5581C20.7234 25.7519 20.9571 24.3614 20.3962 23.3682C20.2326 23.076 18.7136 20.9027 17.031 18.554C13.619 13.7749 13.5372 13.6931 12.2636 13.623C11.8897 13.5996 11.4807 13.6113 11.3522 13.6464ZM12.4856 15.4458C12.6375 15.5043 14.1332 17.5024 15.8508 19.8978C18.3747 23.4383 18.9356 24.3029 18.9356 24.6068C18.9356 25.0975 18.8889 25.1443 17.4984 26.2076L16.3416 27.1073L15.4185 25.9155C13.4671 23.4032 11.7378 20.9377 10.1837 18.4605L9.07362 16.6844L9.44754 16.4507C10.0201 16.1002 11.7845 15.329 12.0182 15.3173C12.1234 15.3173 12.3337 15.3757 12.4856 15.4458Z" fill="#878787"/>
<defs>
<linearGradient id="paint0_linear_55_3960" x1="17.6422" y1="5.06656" x2="69.9644" y2="59.2572" gradientUnits="userSpaceOnUse">
<stop stop-color="#D41700"/>
<stop offset="1" stop-color="#7F0011"/>
</linearGradient>
</defs>
</svg>
