<svg width="597" height="985" viewBox="0 0 597 985" fill="none" xmlns="http://www.w3.org/2000/svg">
<g filter="url(#filter0_d_55_3838)">
<path d="M538.788 188.268H537.846V89.3727C537.846 56.5816 511.265 30 478.474 30H118.592C85.8012 30 59.2192 56.5816 59.2192 89.3727V188.268H58.2766C53.9956 188.268 50.5254 191.736 50.5254 196.021V264.428C50.5254 268.712 53.9956 272.18 58.2766 272.18H59.2192V288.497H58.2766C53.9956 288.497 50.5254 291.965 50.5254 296.249V364.656C50.5254 368.941 53.9956 372.409 58.2766 372.409H59.2192V871.127C59.2192 903.918 85.8012 930.5 118.592 930.5H478.474C511.265 930.5 537.846 903.918 537.846 871.127V314.137H538.788C543.072 314.137 546.541 310.668 546.541 306.384V196.021C546.541 191.736 543.072 188.268 538.788 188.268Z" fill="url(#paint0_linear_55_3838)"/>
</g>
<path d="M472.348 912H124.72C98.0867 912 76.4961 890.411 76.4961 863.778L76.4961 92.9064C76.4961 66.2735 98.0867 44.6848 124.72 44.6848H472.348C498.981 44.6848 520.57 66.2735 520.57 92.9064V863.778C520.57 890.411 498.981 912 472.348 912Z" fill="black"/>
<path d="M196.047 642.312C197.823 642.312 199.263 641.88 200.343 640.992C201.447 640.104 201.999 638.88 201.999 637.368C202.119 635.76 201.159 634.608 200.271 633.912C200.007 633.696 199.599 633.456 199.047 633.24C198.519 633.024 198.111 632.856 197.799 632.76C197.511 632.64 197.055 632.496 196.407 632.28C193.839 631.488 193.023 630.912 193.023 629.664C193.023 628.392 194.055 627.576 195.663 627.576C197.319 627.576 198.495 628.368 199.191 629.928L201.519 628.584C200.439 626.28 198.351 624.888 195.663 624.888C194.175 624.888 192.903 625.32 191.847 626.208C190.791 627.072 190.263 628.248 190.263 629.736C190.263 631.248 190.815 632.352 191.895 633.12C193.023 633.864 193.815 634.176 195.423 634.656C196.839 635.088 197.847 635.496 198.399 635.856C198.951 636.216 199.239 636.72 199.239 637.416C199.239 638.736 198.207 639.624 196.119 639.624C194.007 639.624 192.615 638.688 191.943 636.792L189.567 638.184C190.455 640.752 192.807 642.312 196.047 642.312ZM209.721 642.312C212.049 642.312 214.089 641.112 215.121 639.192L212.889 637.92C212.313 639.048 211.113 639.768 209.697 639.768C208.641 639.768 207.753 639.408 207.033 638.688C206.337 637.968 205.977 637.08 205.977 636C205.977 634.92 206.337 634.032 207.033 633.312C207.753 632.592 208.641 632.232 209.697 632.232C211.137 632.232 212.289 632.928 212.841 634.08L215.073 632.784C214.113 630.888 212.049 629.688 209.721 629.688C207.921 629.688 206.409 630.288 205.185 631.512C203.985 632.712 203.385 634.2 203.385 636C203.385 637.776 203.985 639.264 205.185 640.488C206.409 641.712 207.921 642.312 209.721 642.312ZM225.831 631.704C224.847 630.36 223.455 629.688 221.631 629.688C219.975 629.688 218.583 630.288 217.407 631.512C216.231 632.736 215.655 634.224 215.655 636C215.655 637.752 216.231 639.264 217.407 640.488C218.583 641.712 219.975 642.312 221.631 642.312C223.455 642.312 224.847 641.64 225.831 640.272V642H228.423V630H225.831V631.704ZM219.327 638.76C218.607 638.016 218.247 637.104 218.247 636C218.247 634.896 218.607 633.984 219.327 633.264C220.047 632.52 220.959 632.16 222.039 632.16C223.119 632.16 224.031 632.52 224.751 633.264C225.471 633.984 225.831 634.896 225.831 636C225.831 637.104 225.471 638.016 224.751 638.76C224.031 639.48 223.119 639.84 222.039 639.84C220.959 639.84 220.047 639.48 219.327 638.76ZM237.276 629.688C235.572 629.688 234.348 630.312 233.556 631.536V630H230.964V642H233.556V635.568C233.556 633.24 234.78 632.112 236.604 632.112C238.26 632.112 239.292 633.096 239.292 634.896V642H241.884V634.632C241.884 631.56 240.036 629.688 237.276 629.688ZM256.411 630H253.435V626.64L250.843 627.408V630H248.635V632.496H250.843V638.256C250.843 641.4 252.451 642.48 256.411 642V639.672C254.443 639.768 253.435 639.792 253.435 638.256V632.496H256.411V630ZM264.594 629.688C262.89 629.688 261.666 630.312 260.874 631.536V625.2H258.282V642H260.874V635.568C260.874 633.24 262.098 632.112 263.922 632.112C265.578 632.112 266.61 633.096 266.61 634.896V642H269.202V634.632C269.202 631.56 267.354 629.688 264.594 629.688ZM283.105 637.104C283.177 636.648 283.201 636.288 283.201 636.024C283.201 634.272 282.625 632.76 281.497 631.536C280.369 630.312 278.929 629.688 277.177 629.688C275.329 629.688 273.793 630.288 272.617 631.512C271.441 632.712 270.841 634.2 270.841 636C270.841 637.824 271.441 639.336 272.641 640.536C273.841 641.712 275.425 642.312 277.369 642.312C279.697 642.312 281.449 641.448 282.625 639.696L280.489 638.448C279.793 639.432 278.761 639.936 277.393 639.936C275.401 639.936 273.937 638.928 273.553 637.104H283.105ZM273.529 634.992C273.889 633.168 275.233 632.04 277.153 632.04C278.857 632.04 280.225 633.048 280.585 634.992H273.529ZM307.274 633.6C307.274 631.176 306.434 629.112 304.73 627.432C303.026 625.728 300.986 624.888 298.562 624.888C296.138 624.888 294.098 625.728 292.394 627.432C290.69 629.112 289.85 631.176 289.85 633.6C289.85 636.024 290.69 638.088 292.394 639.792C294.098 641.472 296.138 642.312 298.562 642.312C300.146 642.312 301.634 641.904 303.05 641.088L304.898 642.984L306.842 641.232L305.066 639.408C306.53 637.776 307.274 635.832 307.274 633.6ZM298.562 639.624C296.906 639.624 295.49 639.048 294.338 637.896C293.186 636.744 292.61 635.304 292.61 633.6C292.61 631.896 293.186 630.456 294.338 629.304C295.49 628.152 296.906 627.576 298.562 627.576C300.218 627.576 301.634 628.152 302.786 629.304C303.938 630.456 304.514 631.896 304.514 633.6C304.514 635.064 304.058 636.36 303.17 637.464L299.954 634.176L298.01 635.928L301.082 639.072C300.29 639.432 299.45 639.624 298.562 639.624ZM322.028 642L318.212 635.472C320.204 634.68 321.548 632.736 321.548 630.6C321.548 629.088 321.02 627.816 319.964 626.784C318.932 625.728 317.66 625.2 316.148 625.2H309.428V642H312.188V635.88H315.452L319.004 642H322.028ZM316.148 627.792C317.612 627.792 318.788 629.04 318.788 630.6C318.788 632.16 317.612 633.408 316.148 633.408H312.188V627.792H316.148ZM334.683 642.312C337.011 642.312 339.051 641.112 340.083 639.192L337.851 637.92C337.275 639.048 336.075 639.768 334.659 639.768C333.603 639.768 332.715 639.408 331.995 638.688C331.299 637.968 330.939 637.08 330.939 636C330.939 634.92 331.299 634.032 331.995 633.312C332.715 632.592 333.603 632.232 334.659 632.232C336.099 632.232 337.251 632.928 337.803 634.08L340.035 632.784C339.075 630.888 337.011 629.688 334.683 629.688C332.883 629.688 331.371 630.288 330.147 631.512C328.947 632.712 328.347 634.2 328.347 636C328.347 637.776 328.947 639.264 330.147 640.488C331.371 641.712 332.883 642.312 334.683 642.312ZM346.953 642.312C348.729 642.312 350.217 641.712 351.441 640.488C352.665 639.264 353.289 637.776 353.289 636C353.289 634.224 352.665 632.736 351.441 631.512C350.217 630.288 348.729 629.688 346.953 629.688C345.201 629.688 343.689 630.288 342.465 631.512C341.241 632.736 340.617 634.224 340.617 636C340.617 637.776 341.241 639.264 342.465 640.488C343.689 641.712 345.201 642.312 346.953 642.312ZM344.289 638.712C343.569 637.992 343.209 637.08 343.209 636C343.209 634.92 343.569 634.008 344.289 633.288C345.009 632.568 345.897 632.208 346.953 632.208C348.009 632.208 348.897 632.568 349.617 633.288C350.337 634.008 350.697 634.92 350.697 636C350.697 637.08 350.337 637.992 349.617 638.712C348.897 639.432 348.009 639.792 346.953 639.792C345.897 639.792 345.009 639.432 344.289 638.712ZM364.657 631.704C363.673 630.36 362.281 629.688 360.457 629.688C358.801 629.688 357.409 630.288 356.233 631.512C355.057 632.736 354.481 634.224 354.481 636C354.481 637.752 355.057 639.264 356.233 640.488C357.409 641.712 358.801 642.312 360.457 642.312C362.281 642.312 363.673 641.64 364.657 640.272V642H367.249V625.2H364.657V631.704ZM358.153 638.76C357.433 638.016 357.073 637.104 357.073 636C357.073 634.896 357.433 633.984 358.153 633.264C358.873 632.52 359.785 632.16 360.865 632.16C361.945 632.16 362.857 632.52 363.577 633.264C364.297 633.984 364.657 634.896 364.657 636C364.657 637.104 364.297 638.016 363.577 638.76C362.857 639.48 361.945 639.84 360.865 639.84C359.785 639.84 358.873 639.48 358.153 638.76ZM381.382 637.104C381.454 636.648 381.478 636.288 381.478 636.024C381.478 634.272 380.902 632.76 379.774 631.536C378.646 630.312 377.206 629.688 375.454 629.688C373.606 629.688 372.07 630.288 370.894 631.512C369.718 632.712 369.118 634.2 369.118 636C369.118 637.824 369.718 639.336 370.918 640.536C372.118 641.712 373.702 642.312 375.646 642.312C377.974 642.312 379.726 641.448 380.902 639.696L378.766 638.448C378.07 639.432 377.038 639.936 375.67 639.936C373.678 639.936 372.214 638.928 371.83 637.104H381.382ZM371.806 634.992C372.166 633.168 373.51 632.04 375.43 632.04C377.134 632.04 378.502 633.048 378.862 634.992H371.806ZM395.495 630H392.519V626.64L389.927 627.408V630H387.719V632.496H389.927V638.256C389.927 641.4 391.535 642.48 395.495 642V639.672C393.527 639.768 392.519 639.792 392.519 638.256V632.496H395.495V630ZM402.537 642.312C404.313 642.312 405.801 641.712 407.025 640.488C408.249 639.264 408.873 637.776 408.873 636C408.873 634.224 408.249 632.736 407.025 631.512C405.801 630.288 404.313 629.688 402.537 629.688C400.785 629.688 399.273 630.288 398.049 631.512C396.825 632.736 396.201 634.224 396.201 636C396.201 637.776 396.825 639.264 398.049 640.488C399.273 641.712 400.785 642.312 402.537 642.312ZM399.873 638.712C399.153 637.992 398.793 637.08 398.793 636C398.793 634.92 399.153 634.008 399.873 633.288C400.593 632.568 401.481 632.208 402.537 632.208C403.593 632.208 404.481 632.568 405.201 633.288C405.921 634.008 406.281 634.92 406.281 636C406.281 637.08 405.921 637.992 405.201 638.712C404.481 639.432 403.593 639.792 402.537 639.792C401.481 639.792 400.593 639.432 399.873 638.712ZM237.228 665.704C236.244 664.36 234.852 663.688 233.028 663.688C231.372 663.688 229.98 664.288 228.804 665.512C227.628 666.736 227.052 668.224 227.052 670C227.052 671.752 227.628 673.264 228.804 674.488C229.98 675.712 231.372 676.312 233.028 676.312C234.852 676.312 236.244 675.64 237.228 674.272V676H239.82V664H237.228V665.704ZM230.724 672.76C230.004 672.016 229.644 671.104 229.644 670C229.644 668.896 230.004 667.984 230.724 667.264C231.444 666.52 232.356 666.16 233.436 666.16C234.516 666.16 235.428 666.52 236.148 667.264C236.868 667.984 237.228 668.896 237.228 670C237.228 671.104 236.868 672.016 236.148 672.76C235.428 673.48 234.516 673.84 233.436 673.84C232.356 673.84 231.444 673.48 230.724 672.76ZM248.025 676.312C250.353 676.312 252.393 675.112 253.425 673.192L251.193 671.92C250.617 673.048 249.417 673.768 248.001 673.768C246.945 673.768 246.057 673.408 245.337 672.688C244.641 671.968 244.281 671.08 244.281 670C244.281 668.92 244.641 668.032 245.337 667.312C246.057 666.592 246.945 666.232 248.001 666.232C249.441 666.232 250.593 666.928 251.145 668.08L253.377 666.784C252.417 664.888 250.353 663.688 248.025 663.688C246.225 663.688 244.713 664.288 243.489 665.512C242.289 666.712 241.689 668.2 241.689 670C241.689 671.776 242.289 673.264 243.489 674.488C244.713 675.712 246.225 676.312 248.025 676.312ZM261.515 664H258.539V660.64L255.947 661.408V664H253.739V666.496H255.947V672.256C255.947 675.4 257.555 676.48 261.515 676V673.672C259.547 673.768 258.539 673.792 258.539 672.256V666.496H261.515V664ZM265.834 661.72C266.506 661.048 266.506 660.04 265.858 659.392C265.21 658.72 264.154 658.72 263.506 659.392C262.858 660.04 262.858 661.048 263.506 661.72C264.178 662.368 265.186 662.368 265.834 661.72ZM265.978 676V664H263.386V676H265.978ZM273.307 673.12L269.947 664H267.115L271.795 676H274.795L279.475 664H276.643L273.307 673.12ZM289.672 665.704C288.688 664.36 287.296 663.688 285.472 663.688C283.816 663.688 282.424 664.288 281.248 665.512C280.072 666.736 279.496 668.224 279.496 670C279.496 671.752 280.072 673.264 281.248 674.488C282.424 675.712 283.816 676.312 285.472 676.312C287.296 676.312 288.688 675.64 289.672 674.272V676H292.264V664H289.672V665.704ZM283.168 672.76C282.448 672.016 282.088 671.104 282.088 670C282.088 668.896 282.448 667.984 283.168 667.264C283.888 666.52 284.8 666.16 285.88 666.16C286.96 666.16 287.872 666.52 288.592 667.264C289.312 667.984 289.672 668.896 289.672 670C289.672 671.104 289.312 672.016 288.592 672.76C287.872 673.48 286.96 673.84 285.88 673.84C284.8 673.84 283.888 673.48 283.168 672.76ZM301.501 664H298.525V660.64L295.933 661.408V664H293.725V666.496H295.933V672.256C295.933 675.4 297.541 676.48 301.501 676V673.672C299.533 673.768 298.525 673.792 298.525 672.256V666.496H301.501V664ZM314.472 671.104C314.544 670.648 314.568 670.288 314.568 670.024C314.568 668.272 313.992 666.76 312.864 665.536C311.736 664.312 310.296 663.688 308.544 663.688C306.696 663.688 305.16 664.288 303.984 665.512C302.808 666.712 302.208 668.2 302.208 670C302.208 671.824 302.808 673.336 304.008 674.536C305.208 675.712 306.792 676.312 308.736 676.312C311.064 676.312 312.816 675.448 313.992 673.696L311.856 672.448C311.16 673.432 310.128 673.936 308.76 673.936C306.768 673.936 305.304 672.928 304.92 671.104H314.472ZM304.896 668.992C305.256 667.168 306.6 666.04 308.52 666.04C310.224 666.04 311.592 667.048 311.952 668.992H304.896ZM333.48 671.104C333.552 670.648 333.576 670.288 333.576 670.024C333.576 668.272 333 666.76 331.872 665.536C330.744 664.312 329.304 663.688 327.552 663.688C325.704 663.688 324.168 664.288 322.992 665.512C321.816 666.712 321.216 668.2 321.216 670C321.216 671.824 321.816 673.336 323.016 674.536C324.216 675.712 325.8 676.312 327.744 676.312C330.072 676.312 331.824 675.448 333 673.696L330.864 672.448C330.168 673.432 329.136 673.936 327.768 673.936C325.776 673.936 324.312 672.928 323.928 671.104H333.48ZM323.904 668.992C324.264 667.168 325.608 666.04 327.528 666.04C329.232 666.04 330.6 667.048 330.96 668.992H323.904ZM340.668 676.312C342.444 676.312 343.884 675.88 344.964 674.992C346.068 674.104 346.62 672.88 346.62 671.368C346.74 669.76 345.78 668.608 344.892 667.912C344.628 667.696 344.22 667.456 343.668 667.24C343.14 667.024 342.732 666.856 342.42 666.76C342.132 666.64 341.676 666.496 341.028 666.28C338.46 665.488 337.644 664.912 337.644 663.664C337.644 662.392 338.676 661.576 340.284 661.576C341.94 661.576 343.116 662.368 343.812 663.928L346.14 662.584C345.06 660.28 342.972 658.888 340.284 658.888C338.796 658.888 337.524 659.32 336.468 660.208C335.412 661.072 334.884 662.248 334.884 663.736C334.884 665.248 335.436 666.352 336.516 667.12C337.644 667.864 338.436 668.176 340.044 668.656C341.46 669.088 342.468 669.496 343.02 669.856C343.572 670.216 343.86 670.72 343.86 671.416C343.86 672.736 342.828 673.624 340.74 673.624C338.628 673.624 337.236 672.688 336.564 670.792L334.188 672.184C335.076 674.752 337.428 676.312 340.668 676.312ZM348.401 676H351.161V659.2H348.401V676ZM367.166 659.2L362.078 667.6L357.014 659.2H354.038V676H356.798V664L361.91 672.472H362.246L367.358 664.024V676H370.118V659.2H367.166Z" fill="#E1E1E1"/>
<line x1="227" y1="432" x2="372" y2="432" stroke="url(#paint1_linear_55_3838)" stroke-width="2"/>
<path d="M226.631 308.001L173.999 308.001L173.999 365.599" stroke="url(#paint2_linear_55_3838)" stroke-width="2"/>
<path d="M226.631 558L173.999 558L173.999 500.402" stroke="url(#paint3_linear_55_3838)" stroke-width="2"/>
<path d="M371.369 308.001L424.001 308.001L424.001 365.599" stroke="url(#paint4_linear_55_3838)" stroke-width="2"/>
<path d="M371.369 558L424.001 558L424.001 500.402" stroke="url(#paint5_linear_55_3838)" stroke-width="2"/>
<path d="M236.411 314.177L255.226 303.341L298.476 328.257L322.889 314.154L279.685 289.19L298.688 278.448L360.565 314.154L298.476 350L236.388 314.154L236.411 314.177ZM362 290.013V311.639L299.911 275.839V259.926L318.726 249.066V264.932L362 289.919V290.013ZM362 224.197V286.346L343.185 275.487V235.057L362 224.197ZM360.589 221.846L341.774 232.706L298.5 207.743L274.088 221.846L317.315 246.833L298.312 257.575L236.411 221.823L298.476 186L360.589 221.823V221.846ZM235 246.01V224.197L297.089 260.043V275.957L278.274 286.816V270.903L235 245.94V246.01ZM235 249.231L253.815 260.819V300.99L235 311.827V249.16V249.231Z" fill="url(#paint6_linear_55_3838)"/>
<defs>
<filter id="filter0_d_55_3838" x="0.525391" y="-16" width="596.015" height="1000.5" filterUnits="userSpaceOnUse" color-interpolation-filters="sRGB">
<feFlood flood-opacity="0" result="BackgroundImageFix"/>
<feColorMatrix in="SourceAlpha" type="matrix" values="0 0 0 0 0 0 0 0 0 0 0 0 0 0 0 0 0 0 127 0" result="hardAlpha"/>
<feOffset dy="4"/>
<feGaussianBlur stdDeviation="25"/>
<feComposite in2="hardAlpha" operator="out"/>
<feColorMatrix type="matrix" values="0 0 0 0 0 0 0 0 0 0 0 0 0 0 0 0 0 0 0.5 0"/>
<feBlend mode="normal" in2="BackgroundImageFix" result="effect1_dropShadow_55_3838"/>
<feBlend mode="normal" in="SourceGraphic" in2="effect1_dropShadow_55_3838" result="shape"/>
</filter>
<linearGradient id="paint0_linear_55_3838" x1="298.533" y1="1030.89" x2="298.533" y2="30.0002" gradientUnits="userSpaceOnUse">
<stop stop-color="#7F0011"/>
<stop offset="1" stop-color="#C02714"/>
</linearGradient>
<linearGradient id="paint1_linear_55_3838" x1="227" y1="433" x2="372" y2="433" gradientUnits="userSpaceOnUse">
<stop stop-color="#E80F0F" stop-opacity="0"/>
<stop offset="0.544792" stop-color="#E80F0F"/>
<stop offset="1" stop-color="#E80F0F" stop-opacity="0"/>
</linearGradient>
<linearGradient id="paint2_linear_55_3838" x1="173.999" y1="308.001" x2="199.407" y2="334.615" gradientUnits="userSpaceOnUse">
<stop stop-color="#E80F0F"/>
<stop offset="1" stop-color="#E80F0F" stop-opacity="0"/>
</linearGradient>
<linearGradient id="paint3_linear_55_3838" x1="173.999" y1="558" x2="199.407" y2="531.386" gradientUnits="userSpaceOnUse">
<stop stop-color="#E80F0F"/>
<stop offset="1" stop-color="#E80F0F" stop-opacity="0"/>
</linearGradient>
<linearGradient id="paint4_linear_55_3838" x1="424.001" y1="308.001" x2="398.593" y2="334.615" gradientUnits="userSpaceOnUse">
<stop stop-color="#E80F0F"/>
<stop offset="1" stop-color="#E80F0F" stop-opacity="0"/>
</linearGradient>
<linearGradient id="paint5_linear_55_3838" x1="424.001" y1="558" x2="398.593" y2="531.386" gradientUnits="userSpaceOnUse">
<stop stop-color="#E80F0F"/>
<stop offset="1" stop-color="#E80F0F" stop-opacity="0"/>
</linearGradient>
<linearGradient id="paint6_linear_55_3838" x1="209.624" y1="339.14" x2="434.624" y2="158.756" gradientUnits="userSpaceOnUse">
<stop stop-color="#D41700"/>
<stop offset="1" stop-color="#7F0011"/>
</linearGradient>
</defs>
</svg>
