<svg width="287" height="442" viewBox="0 0 287 442" fill="none" xmlns="http://www.w3.org/2000/svg">
<g filter="url(#filter0_d_55_2238)">
<path d="M-209.544 224.852L-150.137 190.626L-13.5743 269.324L63.5068 224.778L-72.9074 145.931L-12.9059 112.001L182.47 224.778L-13.5743 338L-209.619 224.778L-209.544 224.852ZM187 148.529V216.834L-9.04449 103.76V53.4972L50.3629 19.1965V69.3111L187 148.232V148.529ZM187 -59.3536V136.947L127.593 102.647V-25.0529L187 -59.3536ZM182.544 -66.778L123.137 -32.4773L-13.5 -111.324L-90.5811 -66.778L45.9074 12.1433L-14.0941 46.0728L-209.544 -66.8522L-13.5743 -180L182.544 -66.8522V-66.778ZM-214 9.54477V-59.3536L-17.9556 53.8684V104.132L-77.363 138.432V88.1691L-214 9.32205V9.54477ZM-214 19.7162L-154.593 56.3184V183.201L-214 217.428V19.4934V19.7162Z" fill="#232323" fill-opacity="0.5" shape-rendering="crispEdges"/>
</g>
<defs>
<filter id="filter0_d_55_2238" x="-314" y="-276" width="601" height="718" filterUnits="userSpaceOnUse" color-interpolation-filters="sRGB">
<feFlood flood-opacity="0" result="BackgroundImageFix"/>
<feColorMatrix in="SourceAlpha" type="matrix" values="0 0 0 0 0 0 0 0 0 0 0 0 0 0 0 0 0 0 127 0" result="hardAlpha"/>
<feOffset dy="4"/>
<feGaussianBlur stdDeviation="50"/>
<feComposite in2="hardAlpha" operator="out"/>
<feColorMatrix type="matrix" values="0 0 0 0 0 0 0 0 0 0 0 0 0 0 0 0 0 0 0.5 0"/>
<feBlend mode="normal" in2="BackgroundImageFix" result="effect1_dropShadow_55_2238"/>
<feBlend mode="normal" in="SourceGraphic" in2="effect1_dropShadow_55_2238" result="shape"/>
</filter>
</defs>
</svg>
