<svg width="250" height="78" viewBox="0 0 250 78" fill="none" xmlns="http://www.w3.org/2000/svg">
<path d="M49.4629 2V76.1689" stroke="white" stroke-width="2.74" stroke-linecap="round" stroke-linejoin="round"/>
<path d="M38.1906 21.561V21.6847C38.1906 21.6847 38.1906 21.6847 38.1906 21.743V21.692C38.1906 21.692 38.1397 21.4664 38.1906 21.561Z" fill="url(#paint0_radial_55_2173)"/>
<path d="M73.8485 35.3076C73.864 35.6596 73.8061 36.0109 73.6784 36.3393C73.5508 36.6677 73.3562 36.966 73.1071 37.2151C72.858 37.4642 72.5597 37.6588 72.2314 37.7864C71.903 37.9141 71.5516 37.972 71.1996 37.9565H62.467V52.6564H59.1777V15.6229H71.1996C71.5499 15.6108 71.899 15.669 72.2265 15.794C72.5539 15.919 72.8531 16.1082 73.1062 16.3506C73.3506 16.5993 73.5413 16.8956 73.6665 17.2211C73.7916 17.5466 73.8486 17.8942 73.834 18.2426L73.8485 35.3076ZM70.5592 35.0238V18.5337H62.4306V35.0238H70.5592Z" fill="white"/>
<path d="M94.7785 52.6564H91.3146L84.4304 32.8334L84.8816 32.1712H90.747V18.5337H82.3054V52.6564H79.0234V15.6229H91.3946C91.7437 15.6074 92.0923 15.6647 92.418 15.7913C92.7438 15.9178 93.0396 16.1108 93.2867 16.3579C93.5338 16.605 93.7268 16.9008 93.8533 17.2265C93.9798 17.5523 94.0372 17.9008 94.0217 18.2499V32.2803C94.0217 34.0656 92.8234 34.9583 90.4268 34.9583C90.1866 34.9583 89.8446 34.9583 89.3861 34.9583C88.9277 34.9583 88.5929 34.9583 88.3892 34.9583C90.5383 40.8286 92.6681 46.7279 94.7785 52.6564Z" fill="white"/>
<path d="M115.33 50.0221C115.344 50.3716 115.287 50.7204 115.162 51.0471C115.037 51.3737 114.846 51.6713 114.602 51.9214C114.349 52.1648 114.05 52.3547 113.723 52.4797C113.395 52.6048 113.046 52.6624 112.695 52.6491H102.325C101.976 52.6657 101.627 52.6092 101.301 52.483C100.974 52.3569 100.678 52.164 100.431 51.9166C100.183 51.6693 99.9904 51.373 99.8642 51.0467C99.7381 50.7205 99.6815 50.3715 99.6981 50.0221V18.2499C99.6827 17.9008 99.74 17.5523 99.8665 17.2265C99.9931 16.9008 100.186 16.605 100.433 16.3579C100.68 16.1108 100.976 15.9178 101.302 15.7913C101.628 15.6647 101.976 15.6074 102.325 15.6229H112.688C113.038 15.61 113.388 15.6678 113.715 15.7928C114.043 15.9179 114.342 16.1075 114.595 16.3506C114.839 16.5993 115.03 16.8956 115.155 17.2211C115.28 17.5466 115.337 17.8942 115.322 18.2426L115.33 50.0221ZM112.04 49.7455V18.5337H102.958V49.7455H112.04Z" fill="white"/>
<path d="M134.01 18.5337H128.283V52.6564H124.993V18.5337H119.223V15.6228H134.01V18.5337Z" fill="white"/>
<path d="M150.027 52.6564H137.889V15.6228H149.903V18.5337H141.171V32.3603H149.117V35.3149H141.156V49.7455H150.027V52.6564Z" fill="white"/>
<path d="M169.995 50.0221C170.011 50.3717 169.954 50.7207 169.829 51.0475C169.704 51.3743 169.513 51.6718 169.268 51.9214C169.013 52.1643 168.713 52.3538 168.384 52.4788C168.056 52.6038 167.705 52.6617 167.354 52.6491H157.784C157.435 52.6657 157.086 52.6092 156.76 52.483C156.433 52.3569 156.137 52.164 155.89 51.9166C155.642 51.6693 155.449 51.373 155.323 51.0467C155.197 50.7205 155.141 50.3715 155.157 50.0221V18.2499C155.142 17.9008 155.199 17.5523 155.326 17.2265C155.452 16.9008 155.645 16.605 155.892 16.3579C156.139 16.1108 156.435 15.9178 156.761 15.7913C157.087 15.6647 157.435 15.6074 157.784 15.6229H167.325C167.676 15.6107 168.026 15.6688 168.355 15.7937C168.684 15.9187 168.984 16.108 169.238 16.3506C169.484 16.5986 169.675 16.8947 169.801 17.2204C169.926 17.546 169.982 17.8941 169.966 18.2426V26.8515H166.655V18.5337H158.446V49.7455H166.684V40.6345H169.995V50.0221Z" fill="white"/>
<path d="M188.494 18.5337H182.774V52.6564H179.485V18.5337H173.707V15.6228H188.494V18.5337Z" fill="white"/>
<path d="M207.748 50.0221C207.764 50.3717 207.708 50.7209 207.583 51.0477C207.458 51.3746 207.266 51.672 207.021 51.9214C206.77 52.1646 206.472 52.3544 206.145 52.4794C205.819 52.6045 205.471 52.6622 205.121 52.6491H194.977C194.628 52.667 194.278 52.6112 193.952 52.4854C193.625 52.3595 193.329 52.1665 193.082 51.9188C192.835 51.6711 192.643 51.3743 192.518 51.0475C192.393 50.7207 192.338 50.3714 192.357 50.0221V15.6228H195.639V49.7455H204.423V15.6228H207.748V50.0221Z" fill="white"/>
<path d="M229.383 52.6564H225.941L219.057 32.8334L219.508 32.1712H225.374V18.5337H216.91V52.6564H213.621V15.6229H225.992C226.341 15.6074 226.69 15.6647 227.016 15.7913C227.341 15.9178 227.637 16.1108 227.884 16.3579C228.131 16.605 228.324 16.9008 228.451 17.2265C228.577 17.5523 228.635 17.9008 228.619 18.2499V32.2803C228.619 34.0656 227.421 34.9583 225.024 34.9583C224.784 34.9583 224.442 34.9583 223.984 34.9583C223.525 34.9583 223.191 34.9583 222.987 34.9583C225.141 40.8286 227.273 46.7279 229.383 52.6564Z" fill="white"/>
<path d="M249.957 50.0221C249.972 50.3716 249.915 50.7204 249.79 51.0471C249.664 51.3737 249.474 51.6713 249.229 51.9214C248.977 52.1648 248.678 52.3547 248.35 52.4797C248.022 52.6048 247.673 52.6624 247.322 52.6491H236.931C236.581 52.6657 236.232 52.6092 235.906 52.483C235.58 52.3569 235.283 52.164 235.036 51.9166C234.789 51.6693 234.596 51.373 234.47 51.0467C234.344 50.7205 234.287 50.3715 234.304 50.0221V18.2499C234.288 17.9008 234.345 17.5523 234.472 17.2265C234.599 16.9008 234.792 16.605 235.039 16.3579C235.286 16.1108 235.582 15.9178 235.907 15.7913C236.233 15.6647 236.582 15.6074 236.931 15.6229H247.293C247.644 15.61 247.993 15.6678 248.321 15.7928C248.648 15.9179 248.947 16.1075 249.2 16.3506C249.444 16.5993 249.635 16.8956 249.76 17.2211C249.885 17.5466 249.942 17.8942 249.928 18.2426L249.957 50.0221ZM246.668 49.7455V18.5337H237.586V49.7455H246.668Z" fill="white"/>
<path d="M58.6621 64.8311V59.2713H59.7682V62.6043H60.8816V61.4909H61.9951V62.6043H63.1085V59.2713H64.2219V64.8311H63.1085V63.7177H61.9951V62.6043H60.8816V63.7177H59.7682V64.8311H58.6621Z" fill="#E80F0F"/>
<path d="M67.1035 64.8311V59.2713H72.6633V60.3775H68.2169V61.4909H70.4437V62.6043H68.2169V63.7177H72.6633V64.8311H67.1035Z" fill="#E80F0F"/>
<path d="M75.5449 64.8311V59.2713H76.6583V63.7177H81.1265V64.8311H75.5449Z" fill="#E80F0F"/>
<path d="M85.1056 64.8311V63.7177H83.9922V60.3775H85.1056V59.2713H88.4385V60.3775H89.5519V61.4909H88.4385V60.3775H85.1056V63.7177H88.4385V62.6043H89.5519V63.7177H88.4385V64.8311H85.1056Z" fill="#E80F0F"/>
<path d="M93.549 64.8311V63.7177H92.4355V60.3775H93.549V59.2713H96.8819V60.3775H97.9953V63.7177H96.8819V64.8311H93.549ZM96.8819 63.7177V60.3775H93.549V63.7177H96.8819Z" fill="#E80F0F"/>
<path d="M100.883 64.8311V59.2713H101.989V60.3775H103.102V61.4909H104.216V60.3775H105.329V59.2713H106.443V64.8311H105.329V61.4909H104.216V62.6043H103.102V61.4909H101.989V64.8311H100.883Z" fill="#E80F0F"/>
<path d="M109.324 64.8311V59.2713H114.884V60.3775H110.438V61.4909H112.657V62.6043H110.438V63.7177H114.884V64.8311H109.324Z" fill="#E80F0F"/>
<path d="M128.427 64.8311V60.3775H126.244V59.2713H131.804V60.3775H129.577V64.8311H128.427Z" fill="#E80F0F"/>
<path d="M135.777 64.8311V63.7177H134.664V60.3775H135.777V59.2713H139.118V60.3775H140.224V63.7177H139.118V64.8311H135.777ZM139.118 63.7177V60.3775H135.777V63.7177H139.118Z" fill="#E80F0F"/>
<path d="M153.789 64.8311V61.4909H152.676V60.3775H151.562V59.2713H152.676V60.3775H153.789V61.4909H154.903V60.3775H156.009V59.2713H157.122V60.3775H156.009V61.4909H154.903V64.8311H153.789Z" fill="#E80F0F"/>
<path d="M161.116 64.8311V63.7177H160.01V60.3775H161.116V59.2713H164.456V60.3775H165.54V63.7177H164.427V64.8311H161.116ZM164.456 63.7177V60.3775H161.116V63.7177H164.456Z" fill="#E80F0F"/>
<path d="M169.565 64.8311V63.7177H168.451V59.2713H169.565V63.7177H172.898V59.2713H174.011V63.7177H172.898V64.8311H169.565Z" fill="#E80F0F"/>
<path d="M176.893 64.8311V59.2713H181.346V60.3775H182.452V61.4909H181.346V63.7177H182.452V64.8311H181.346V63.7177H180.233V62.6043H178.006V64.8311H176.893ZM181.346 61.4909V60.3775H178.006V61.4909H181.346Z" fill="#E80F0F"/>
<path d="M193.791 64.8311V59.2713H198.245V60.3775H199.351V61.4909H198.245V62.6043H194.904V64.8311H193.791ZM198.245 61.4909V60.3775H194.904V61.4909H198.245Z" fill="#E80F0F"/>
<path d="M202.24 64.8311V59.2713H206.687V60.3775H207.8V61.4909H206.687V63.7177H207.8V64.8311H206.687V63.7177H205.566V62.6043H203.383V64.8311H202.24ZM206.687 61.4909V60.3775H203.383V61.4909H206.687Z" fill="#E80F0F"/>
<path d="M210.66 64.8311V63.7177H212.887V60.3775H210.66V59.2713H216.22V60.3775H213.993V63.7177H216.22V64.8311H210.66Z" fill="#E80F0F"/>
<path d="M221.35 64.8311V63.7177H220.236V62.6043H219.123V59.2713H220.236V62.6043H221.35V63.7177H222.463V62.6043H223.577V59.2713H224.69V62.6043H223.577V63.7177H222.463V64.8311H221.35Z" fill="#E80F0F"/>
<path d="M227.572 64.8311V61.4909H228.686V60.3775H229.792V59.2713H230.905V60.3775H232.019V61.4909H233.132V64.8311H232.019V62.6043H228.686V64.8311H227.572ZM230.905 61.4909V60.3775H229.792V61.4909H230.905Z" fill="#E80F0F"/>
<path d="M237.127 64.8311V63.7177H236.014V60.3775H237.127V59.2713H240.496V60.3775H241.61V61.4909H240.496V60.3775H237.163V63.7177H240.496V62.6043H241.61V63.7177H240.496V64.8311H237.127Z" fill="#E80F0F"/>
<path d="M246.682 64.8311V61.4909H245.59V60.3775H244.477V59.2713H245.59V60.3775H246.703V61.4909H247.773V60.3775H248.887V59.2713H250V60.3775H248.887V61.4909H247.773V64.8311H246.682Z" fill="#E80F0F"/>
<path d="M0.436635 55.6255L6.25837 52.2707L19.6411 59.9845L27.1948 55.6182L13.8266 47.8898L19.7066 44.5642L38.8528 55.6182L19.6411 66.7159L0.429356 55.6182L0.436635 55.6255ZM39.2967 48.1445V54.8395L20.085 43.7564V38.8298L25.9067 35.4677V40.3798L39.2967 48.1154V48.1445ZM39.2967 27.7685V47.0093L33.475 43.6472V31.1305L39.2967 27.7685ZM38.8601 27.0407L33.0384 30.4028L19.6484 22.6744L12.0947 27.0407L25.4701 34.7764L19.5902 38.102L0.436635 27.0335L19.6411 15.943L38.8601 27.0335V27.0407ZM0 34.5217V27.7685L19.2117 38.8661V43.7928L13.39 47.1548V42.2282L0 34.4998V34.5217ZM0 35.5186L5.82174 39.1063V51.543L0 54.8978V35.4968V35.5186Z" fill="url(#paint1_linear_55_2173)"/>
<defs>
<radialGradient id="paint0_radial_55_2173" cx="0" cy="0" r="1" gradientUnits="userSpaceOnUse" gradientTransform="translate(2.17588 31.5308) scale(29.8437 29.8437)">
<stop stop-color="white"/>
<stop offset="1" stop-color="#69CDBC"/>
</radialGradient>
<linearGradient id="paint1_linear_55_2173" x1="-7.85207" y1="63.3538" x2="61.7978" y2="7.54518" gradientUnits="userSpaceOnUse">
<stop stop-color="#D41700"/>
<stop offset="1" stop-color="#7F0011"/>
</linearGradient>
</defs>
</svg>
