<svg width="307" height="285" viewBox="0 0 307 285" fill="none" xmlns="http://www.w3.org/2000/svg">
<g filter="url(#filter0_d_55_3665)">
<path d="M270.889 88.9061H270.444V42.2047C270.444 26.7198 257.891 14.1672 242.406 14.1672H72.4594C56.9747 14.1672 44.4219 26.7198 44.4219 42.2047V88.9061H43.9767C41.9552 88.9061 40.3164 90.5439 40.3164 92.567V124.871C40.3164 126.894 41.9552 128.532 43.9767 128.532H44.4219V136.237H43.9767C41.9552 136.237 40.3164 137.875 40.3164 139.898V172.202C40.3164 174.225 41.9552 175.863 43.9767 175.863H44.4219V402.636C44.4219 418.121 56.9747 430.674 72.4594 430.674H242.406C257.891 430.674 270.444 418.121 270.444 402.636V148.345H270.889C272.912 148.345 274.55 146.707 274.55 144.684V92.567C274.55 90.5439 272.912 88.9061 270.889 88.9061Z" fill="url(#paint0_linear_55_3665)"/>
</g>
<path d="M239.933 422.515H75.7726C63.1957 422.515 53 412.32 53 399.743V43.8736C53 31.2968 63.1957 21.1019 75.7726 21.1019H239.933C252.51 21.1019 262.705 31.2968 262.705 43.8736V399.743C262.705 412.32 252.51 422.515 239.933 422.515Z" fill="black"/>
<path d="M51 217H94.9748V152H136" stroke="url(#paint1_linear_55_3665)" stroke-width="2"/>
<path d="M182 152H225.975V87H267" stroke="url(#paint2_linear_55_3665)" stroke-width="2"/>
<path d="M184 123.721V123.739C184 123.372 183.858 123.019 183.604 122.755L168.122 106.64C167.854 106.361 167.484 106.203 167.098 106.203H166.811C167.198 106.203 167.567 106.361 167.835 106.64L183.317 122.755C183.571 123.019 183.713 123.372 183.713 123.739V192.414C183.713 194.729 181.948 196.632 179.691 196.852C179.641 196.854 179.591 196.855 179.54 196.855H135.421C132.958 196.855 130.961 194.859 130.961 192.396V110.645C130.961 108.51 132.46 106.726 134.463 106.288C134.522 106.275 134.581 106.264 134.641 106.253C134.894 106.209 135.155 106.185 135.421 106.185H141.475H167.098C167.484 106.185 167.854 106.343 168.122 106.622L183.604 122.737C183.858 123.002 184 123.353 184 123.721ZM131.554 191.982C131.554 194.402 133.509 196.364 135.92 196.364H179.115C181.527 196.364 183.482 194.402 183.482 191.982V123.934C183.482 123.612 183.357 123.301 183.135 123.07L180.741 120.569L182.925 123.025C183.128 123.254 183.241 123.55 183.241 123.856L183.185 191.255C183.185 193.674 181.599 195.799 179.223 195.799L135.942 195.892C133.313 195.874 131.554 193.674 131.554 191.255V191.982ZM141.397 185.299C142.42 186.478 143.784 187.2 145.28 187.2H146.885H147.33H154.229H154.675H161.792H162.236H168.42H168.864H170.471C173.635 187.2 176.21 183.972 176.21 180.004V163.262V162.818V160.913V160.468V143.727C176.21 141.423 175.341 139.368 173.994 138.05C172.972 136.872 171.609 136.151 170.113 136.151H168.508H168.063H161.878H161.433H157.517H154.316H153.873H146.973H146.528H144.922C141.758 136.151 139.184 139.379 139.184 143.346V160.088V160.533V162.438V162.882V179.624C139.184 181.926 140.051 183.981 141.397 185.299ZM175.517 182.045C174.906 184.495 173.227 186.344 171.18 186.695C173.194 186.218 174.839 184.418 175.517 182.045Z" fill="url(#paint3_linear_55_3665)"/>
<path d="M146.529 153.034L146.519 153.038L146.367 153.101L146.351 153.108L146.257 153.147L146.147 153.193C146.028 153.248 145.911 153.309 145.774 153.381L145.693 153.423L145.555 153.497C145.362 153.606 145.172 153.726 144.991 153.853L144.883 153.934C144.734 154.043 144.586 154.155 144.441 154.276L144.307 154.396C144.176 154.512 144.047 154.629 143.923 154.755L143.801 154.881C143.697 154.989 143.598 155.103 143.499 155.217L143.476 155.244L143.434 155.289L143.339 155.405C143.258 155.505 143.176 155.62 143.093 155.731L143.012 155.841L142.956 155.914L142.92 155.967L142.831 156.117C142.695 156.324 142.567 156.538 142.447 156.759C142.404 156.836 142.361 156.911 142.322 156.989C142.178 157.271 142.047 157.563 141.931 157.865C141.907 157.926 141.888 157.99 141.866 158.052C141.774 158.306 141.693 158.566 141.622 158.832C141.599 158.919 141.576 159.006 141.555 159.095C141.477 159.419 141.409 159.748 141.366 160.086H139.628V143.345C139.628 139.622 142.004 136.594 144.922 136.594H146.529V153.034ZM153.873 136.594V154.425C153.703 154.319 153.53 154.221 153.372 154.098C152.086 153.092 150.58 152.56 149.019 152.56H149.016H149.016L149.008 152.561C148.703 152.561 148.404 152.589 148.108 152.629C148.02 152.641 147.933 152.655 147.845 152.671C147.6 152.714 147.357 152.77 147.119 152.838L146.973 152.872V136.594H153.873ZM161.434 136.594V154.445C160.488 155.039 159.387 155.353 158.238 155.353H157.063C156.756 155.353 156.456 155.324 156.16 155.28C156.082 155.269 156.005 155.254 155.927 155.24C155.693 155.197 155.463 155.139 155.237 155.067C155.173 155.048 155.108 155.032 155.045 155.009C154.795 154.921 154.553 154.813 154.317 154.691V136.594H161.434ZM168.063 136.594V153.264V153.264L168.219 153.313C170.704 154.1 172.609 156.309 173.3 159.102C173.399 159.502 173.472 159.913 173.52 160.334L173.541 160.531H175.407V162.436H173.529H173.528L173.523 162.475L173.477 162.789L173.451 162.943L173.439 163.013C173.412 163.178 173.384 163.342 173.349 163.502L173.347 163.51C173.334 163.566 173.318 163.62 173.305 163.676C173.138 164.366 172.897 165.021 172.592 165.628L172.528 165.75C172.403 165.988 172.267 166.217 172.123 166.44C172.082 166.504 172.043 166.57 172 166.631C171.839 166.866 171.668 167.091 171.488 167.304C171.415 167.388 171.338 167.467 171.264 167.547C171.147 167.675 171.026 167.797 170.901 167.916C170.803 168.009 170.704 168.103 170.602 168.19C170.463 168.308 170.319 168.418 170.173 168.525C170.016 168.639 169.857 168.746 169.694 168.846C169.569 168.923 169.442 168.999 169.311 169.068C169.195 169.13 169.078 169.189 168.958 169.244C168.754 169.338 168.544 169.423 168.331 169.496L168.218 169.532C167.913 169.629 167.608 169.699 167.303 169.751L167.185 169.77C166.882 169.816 166.579 169.843 166.278 169.843C164.813 169.842 163.4 169.339 162.192 168.389L162.08 168.317C162.014 168.267 161.947 168.218 161.878 168.171V168.16L161.779 168.094L161.718 168.059L161.434 167.87V167.891C161.333 167.832 161.229 167.778 161.124 167.725C160.959 167.642 160.788 167.571 160.617 167.502C160.477 167.447 160.341 167.388 160.198 167.343C160.004 167.281 159.804 167.237 159.605 167.194C159.478 167.167 159.355 167.131 159.226 167.111C158.893 167.059 158.556 167.029 158.212 167.029H158.211H157.09C156.768 167.029 156.448 167.059 156.132 167.106C156.019 167.122 155.909 167.147 155.798 167.169C155.593 167.211 155.391 167.261 155.192 167.321C155.076 167.356 154.96 167.39 154.847 167.431C154.666 167.498 154.491 167.577 154.317 167.66V167.631L154.007 167.8L154.001 167.803L153.988 167.811L153.964 167.827L153.873 167.877V167.886C153.605 168.04 153.343 168.204 153.107 168.389C151.896 169.34 150.483 169.843 149.016 169.843L149.01 169.843C148.685 169.843 148.363 169.807 148.043 169.758C147.966 169.746 147.889 169.736 147.813 169.721C147.526 169.665 147.243 169.588 146.962 169.492C145.436 168.968 144.106 167.877 143.167 166.423C143.072 166.275 142.979 166.126 142.892 165.972C142.825 165.85 142.758 165.728 142.695 165.602C142.582 165.375 142.476 165.144 142.383 164.906C142.338 164.793 142.299 164.677 142.257 164.561C142.183 164.348 142.115 164.132 142.056 163.914C142.024 163.796 141.994 163.677 141.966 163.556C141.91 163.311 141.865 163.063 141.828 162.812C141.82 162.751 141.806 162.692 141.798 162.63L141.774 162.436H141.771H139.628V160.531H141.761H141.761L141.783 160.334L141.789 160.288C141.827 159.971 141.883 159.659 141.952 159.351C141.971 159.262 141.993 159.174 142.015 159.086C142.087 158.801 142.169 158.519 142.267 158.244L142.301 158.137C142.413 157.835 142.544 157.543 142.686 157.257C142.723 157.18 142.764 157.105 142.804 157.029C142.935 156.783 143.077 156.544 143.23 156.313C144.044 155.091 145.136 154.135 146.391 153.572L146.462 153.543C146.615 153.476 146.771 153.418 146.928 153.364C147.221 153.263 147.518 153.182 147.819 153.125C147.891 153.111 147.962 153.102 148.033 153.091C148.356 153.041 148.682 153.005 149.01 153.005L149.016 153.005C150.476 153.005 151.886 153.504 153.094 154.447C153.336 154.637 153.601 154.802 153.873 154.957V154.966L153.961 155.014L153.988 155.032L154.317 155.209V155.181C154.494 155.265 154.673 155.345 154.856 155.411C154.945 155.442 155.035 155.469 155.126 155.496C155.354 155.567 155.585 155.625 155.821 155.67C155.909 155.687 155.998 155.706 156.088 155.719C156.407 155.766 156.73 155.798 157.063 155.798H158.238H158.239C159.514 155.798 160.739 155.436 161.779 154.752L161.878 154.686V136.594H168.063ZM170.113 136.594C173.032 136.594 175.407 139.622 175.407 143.345V160.086H173.938C173.881 159.663 173.8 159.249 173.693 158.847C172.949 156.032 171.022 153.8 168.508 152.94V136.594H170.113ZM175.407 162.881V179.622C175.407 183.345 173.032 186.373 170.113 186.373H168.508V169.914C168.581 169.888 168.649 169.85 168.722 169.823C168.882 169.761 169.039 169.695 169.194 169.621C169.318 169.563 169.441 169.507 169.561 169.442C169.776 169.326 169.988 169.2 170.192 169.062C170.312 168.98 170.428 168.889 170.544 168.8C170.663 168.709 170.78 168.616 170.896 168.518C171.003 168.426 171.109 168.334 171.213 168.236C171.405 168.054 171.591 167.864 171.766 167.662C171.822 167.597 171.873 167.528 171.927 167.462C172.08 167.276 172.225 167.082 172.363 166.881C172.411 166.81 172.459 166.74 172.506 166.668C172.863 166.115 173.165 165.513 173.405 164.872L173.435 164.785C173.653 164.181 173.822 163.546 173.918 162.881H175.407ZM161.878 186.373V168.717L161.908 168.739C163.198 169.752 164.708 170.288 166.274 170.288H166.279H166.282C166.567 170.288 166.847 170.264 167.125 170.229L167.241 170.211C167.505 170.172 167.766 170.118 168.022 170.05L168.063 170.041V186.373H161.878ZM154.317 186.373V168.148C154.556 168.024 154.802 167.914 155.056 167.824C155.127 167.799 155.2 167.78 155.271 167.758C155.491 167.689 155.716 167.632 155.945 167.589C156.025 167.574 156.104 167.558 156.185 167.546C156.482 167.503 156.784 167.474 157.09 167.474H158.211C158.528 167.474 158.839 167.503 159.145 167.549C159.257 167.566 159.367 167.596 159.479 167.62C159.668 167.66 159.856 167.702 160.038 167.76C160.165 167.8 160.289 167.848 160.412 167.897C160.575 167.96 160.737 168.03 160.893 168.108C161.013 168.168 161.132 168.231 161.248 168.299C161.311 168.337 161.371 168.382 161.434 168.422V186.373H154.317ZM146.973 186.373V169.975C147.036 169.995 147.102 170.002 147.165 170.019C147.386 170.082 147.61 170.135 147.836 170.176C147.93 170.192 148.023 170.207 148.118 170.22C148.411 170.259 148.707 170.286 149.008 170.287L149.016 170.288H149.016H149.019C150.586 170.288 152.096 169.752 153.385 168.739C153.539 168.618 153.709 168.523 153.873 168.418V186.373H146.973ZM144.922 186.373C142.004 186.373 139.628 183.345 139.628 179.622V162.881H141.38C141.39 162.948 141.409 163.012 141.419 163.079C141.461 163.328 141.511 163.573 141.57 163.814C141.599 163.935 141.634 164.055 141.668 164.175C141.732 164.396 141.803 164.613 141.881 164.826C141.915 164.917 141.943 165.01 141.98 165.101C142.094 165.383 142.221 165.656 142.359 165.922C142.414 166.028 142.475 166.132 142.534 166.236C142.63 166.405 142.732 166.57 142.838 166.73C142.892 166.816 142.939 166.907 142.997 166.99C143.124 167.169 143.257 167.342 143.391 167.505L143.452 167.58C143.585 167.736 143.723 167.888 143.895 168.064L143.939 168.11C144.086 168.256 144.238 168.395 144.393 168.528L144.456 168.585C144.809 168.879 145.185 169.14 145.572 169.361C145.623 169.391 145.676 169.417 145.731 169.445L145.823 169.491C145.936 169.55 146.048 169.608 146.162 169.661C146.237 169.695 146.314 169.725 146.39 169.755L146.529 169.813V186.373H144.922ZM139.184 143.345V160.086V160.531V162.436V162.881V179.622C139.184 183.59 141.758 186.818 144.922 186.818H146.529H146.973H153.873H154.317H161.434H161.878H168.063H168.508H170.113C173.278 186.818 175.852 183.59 175.852 179.622V162.881V162.436V160.531V160.086V143.345C175.852 139.377 173.278 136.149 170.113 136.149H168.508H168.063H161.878H161.434H154.317H153.873H146.973H146.529H144.922C141.758 136.149 139.184 139.377 139.184 143.345Z" fill="#E80F0F"/>
<path d="M168.549 183.18H168.49V183.239H168.372V183.298H168.313V183.357H168.254V183.416H168.136V183.475H168.077V183.534H168.018V171.377H168.077V171.436H168.136V171.554H168.195V171.613H168.254V171.731H168.313V171.849H168.372V171.967H168.431V172.085H168.49V172.203H168.549V183.18ZM167.427 170.196H167.368V170.255H166.896V170.314H165.657V170.255H165.126V170.196H164.89V170.137H164.654V170.078H164.418V170.019H164.241V169.96H164.004V169.901H163.827V169.842H163.709V169.783H163.591V169.724H163.473V169.665H163.296V169.606H163.178V169.547H163.06V169.488H162.942V169.429H162.824V169.37H162.706V169.311H162.647V169.252H162.529V169.193H162.47V169.134H162.352V169.075H162.234V169.016H162.175V168.957H162.057V168.898H161.998V168.839H161.939V168.78H161.88V186.308H161.762V186.367H161.526V186.426H161.29V186.485H160.936V186.544H160.581V186.603H160.227V186.662H159.814V186.721H159.283V186.78H158.575V186.839H156.45V186.78H155.683V186.721H155.211V186.662H154.798V186.603H154.444V186.544H154.03V186.485H153.735V186.426H153.499V186.367H153.853V168.485H153.794V168.544H153.676V168.603H153.617V168.662H153.499V168.721H153.44V168.78H153.381V168.839H153.263V168.898H153.204V168.957H153.145V169.016H153.027V169.075H152.968V169.134H152.85V169.193H152.791V169.252H152.673V169.311H152.555V169.37H152.437V169.429H152.378V169.488H152.26V169.547H152.142V169.606H152.024V169.665H151.906V169.724H151.729V169.783H151.611V169.842H151.434V169.901H151.316V169.96H151.139V170.019H150.962V170.078H150.725V170.137H150.489V170.196H150.076V170.255H149.663V170.314H148.483V170.255H147.952V170.196H147.657V170.137H147.361V170.078H147.125V170.019H147.007V176.098H146.948V176.039H146.889V175.921H146.83V175.862H146.771V175.744H146.712V175.626H146.653V175.508H146.594V175.39H146.535V175.331H146.476V169.842H146.417V169.783H146.299V169.724H146.122V169.665H146.004V169.606H145.886V169.547H145.768V169.488H145.65V169.429H145.532V169.37H145.473V169.311H145.355V169.252H145.296V169.193H145.178V169.134H145.119V169.075H145.001V169.016H144.942V168.957H144.883V168.898H144.765V168.839H144.706V168.78H144.588V168.721H144.529V168.662H144.47V168.603H144.352V168.544H144.293V168.485H144.234V168.426H144.174V168.367H144.115V168.308H144.056V168.249H143.997V168.19H143.938V168.131H143.879V168.072H143.82V168.013H143.761V167.954H143.702V167.895H143.643V167.836H143.584V167.777H143.525V167.718H143.466V167.6H143.407V167.541H143.348V167.482H143.289V167.423H143.23V167.363H143.171V167.245H143.112V167.186H143.053V167.068H142.994V167.009H142.935V166.95H142.876V166.832H142.817V166.714H142.758V166.655H142.699V166.537H142.64V166.419H142.581V166.36H142.522V166.242H142.463V166.124H142.404V166.006H142.345V165.947H142.286V165.829H142.227V165.652H142.168V165.534H142.109V165.416H142.05V165.298H141.991V165.18H141.932V165.003H141.873V164.826H141.814V164.649H141.755V164.472H141.696V164.295H141.637V164.118H141.578V163.881H141.519V163.586H141.46V163.35H141.401V162.996H141.342V162.937H139.689V162.878H139.63V162.819H139.571V162.701H139.512V162.583H139.453V162.465H139.394V162.347H139.335V162.229H139.276V162.17H139.217V162.052H139.158V153.494H139.217V152.668H139.276V152.196H139.335V151.842H139.394V151.429H139.453V151.075H139.512V150.72H139.571V150.484H139.63V160.045H141.342V159.868H141.401V159.514H141.46V159.219H141.519V158.983H141.578V158.747H141.637V158.57H141.696V158.393H141.755V158.157H141.814V157.98H141.873V157.862H141.932V157.685H141.991V157.567H142.05V157.448H142.109V157.271H142.168V157.153H142.227V157.035H142.286V156.917H142.345V156.799H142.404V156.681H142.463V156.622H142.522V156.504H142.581V156.386H142.64V156.327H142.699V156.209H142.758V156.091H142.817V156.032H142.876V155.914H142.935V155.855H142.994V155.737H143.053V155.678H143.112V155.619H143.171V155.501H143.23V155.442H143.289V155.383H143.348V155.265H143.407V155.206H143.466V155.147H143.525V155.088H143.584V155.029H143.643V154.97H143.702V154.911H143.761V154.852H143.82V154.793H143.879V154.734H143.938V154.675H143.997V154.616H144.056V154.557H144.115V154.498H144.174V154.439H144.234V154.38H144.293V154.321H144.352V154.262H144.411V154.203H144.529V154.144H144.588V154.084H144.647V154.025H144.706V153.966H144.824V153.907H144.883V153.848H144.942V153.789H145.06V153.73H145.178V153.671H145.237V153.612H145.355V153.553H145.414V153.494H145.532V153.435H145.65V153.376H145.768V153.317H145.886V153.258H146.004V153.199H146.122V153.14H146.24V153.081H146.358V153.022H146.476V139.802H146.535V139.743H146.594V139.684H146.712V139.625H146.771V139.566H146.83V139.507H146.948V139.448H147.007V152.845H147.066V152.786H147.302V152.727H147.538V152.668H147.834V152.609H148.247V152.55H149.781V152.609H150.253V152.668H150.489V152.727H150.666V152.786H150.903V152.845H151.139V152.904H151.375V152.963H151.493V153.022H151.611V153.081H151.729V153.14H151.906V153.199H152.024V153.258H152.142V153.317H152.26V153.376H152.378V153.435H152.496V153.494H152.614V153.553H152.673V153.612H152.791V153.671H152.85V153.73H152.968V153.789H153.086V153.848H153.145V153.907H153.204V153.966H153.322V154.025H153.381V154.084H153.44V154.144H153.558V154.203H153.617V154.262H153.735V154.321H153.853V145.704H153.912V145.822H153.971V145.881H154.03V145.999H154.089V146.117H154.148V146.235H154.208V146.294H154.267V146.412H154.326V154.675H154.444V154.734H154.562V154.793H154.68V154.852H154.798V154.911H154.975V154.97H155.152V155.029H155.329V155.088H155.565V155.147H155.801V155.206H156.096V155.265H156.568V155.324H158.752V155.265H159.342V155.383H159.401V155.501H159.46V155.619H159.519V155.737H159.106V155.796H158.575V155.855H156.745V155.796H156.214V155.737H155.86V155.678H155.565V155.619H155.329V155.56H155.093V155.501H154.916V155.442H154.739V155.383H154.621V155.324H154.503V155.265H154.267V155.206H154.148V155.147H154.089V155.088H153.971V155.029H153.853V154.97H153.735V154.911H153.676V154.852H153.558V154.793H153.499V154.734H153.381V154.675H153.322V154.616H153.204V154.557H153.145V154.498H153.027V154.439H152.968V154.38H152.909V154.321H152.85V154.262H152.732V154.203H152.614V154.144H152.555V154.084H152.437V154.025H152.378V153.966H152.26V153.907H152.142V153.848H152.024V153.789H151.906V153.73H151.788V153.671H151.67V153.612H151.493V153.553H151.375V153.494H151.257V153.435H151.139V153.376H150.903V153.317H150.666V153.258H150.43V153.199H150.253V153.14H149.899V153.081H149.427V153.022H148.66V153.081H148.129V153.14H147.775V153.199H147.538V153.258H147.302V153.317H147.125V153.376H146.948V153.435H146.771V153.494H146.594V153.553H146.476V153.612H146.358V153.671H146.181V153.73H146.122V153.789H146.004V153.848H145.886V153.907H145.768V153.966H145.709V154.025H145.591V154.084H145.473V154.144H145.414V154.203H145.355V154.262H145.237V154.321H145.178V154.38H145.119V154.439H145.001V154.498H144.942V154.557H144.883V154.616H144.765V154.675H144.706V154.734H144.647V154.793H144.588V154.852H144.529V154.911H144.47V154.97H144.411V155.029H144.352V155.088H144.293V155.147H144.234V155.206H144.174V155.265H144.115V155.324H144.056V155.383H143.997V155.442H143.938V155.501H143.879V155.56H143.82V155.619H143.761V155.737H143.702V155.796H143.643V155.855H143.584V155.914H143.525V156.032H143.466V156.091H143.407V156.15H143.348V156.268H143.289V156.327H143.23V156.445H143.171V156.563H143.112V156.622H143.053V156.74H142.994V156.858H142.935V156.917H142.876V157.035H142.817V157.153H142.758V157.271H142.699V157.389H142.64V157.508H142.581V157.626H142.522V157.803H142.463V157.921H142.404V158.039H142.345V158.216H142.286V158.393H142.227V158.57H142.168V158.806H142.109V158.983H142.05V159.219H141.991V159.455H141.932V159.809H141.873V160.163H141.814V160.576H139.63V162.406H141.814V162.701H141.873V163.055H141.932V163.35H141.991V163.645H142.05V163.881H142.109V164.058H142.168V164.236H142.227V164.413H142.286V164.59H142.345V164.767H142.404V164.944H142.463V165.062H142.522V165.18H142.581V165.298H142.64V165.475H142.699V165.593H142.758V165.711H142.817V165.829H142.876V165.888H142.935V166.006H142.994V166.124H143.053V166.183H143.112V166.301H143.171V166.419H143.23V166.478H143.289V166.596H143.348V166.655H143.407V166.714H143.466V166.832H143.525V166.891H143.584V166.95H143.643V167.068H143.702V167.127H143.761V167.186H143.82V167.245H143.879V167.304H143.938V167.423H143.997V167.482H144.056V167.541H144.115V167.6H144.174V167.659H144.234V167.718H144.293V167.777H144.352V167.836H144.411V167.895H144.47V167.954H144.529V168.013H144.588V168.072H144.647V168.131H144.765V168.19H144.824V168.249H144.883V168.308H144.942V168.367H145.06V168.426H145.119V168.485H145.178V168.544H145.296V168.603H145.355V168.662H145.473V168.721H145.532V168.78H145.65V168.839H145.709V168.898H145.827V168.957H145.945V169.016H146.063V169.075H146.181V169.134H146.24V169.193H146.417V169.252H146.535V169.311H146.653V169.37H146.83V169.429H146.948V169.488H147.184V169.547H147.42V169.606H147.598V169.665H147.834V169.724H148.247V169.783H148.837V169.842H149.25V169.783H149.781V169.724H150.194V169.665H150.371V169.606H150.607V169.547H150.843V169.488H151.08V169.429H151.198V169.37H151.375V169.311H151.493V169.252H151.611V169.193H151.729V169.134H151.906V169.075H152.024V169.016H152.142V168.957H152.26V168.898H152.319V168.839H152.437V168.78H152.496V168.721H152.614V168.662H152.673V168.603H152.791V168.544H152.909V168.485H152.968V168.426H153.027V168.367H153.086V168.308H153.204V168.249H153.263V168.19H153.381V168.131H153.44V168.072H153.558V168.013H153.617V167.954H153.735V167.895H153.853V167.836H153.912V167.777H154.03V167.718H154.148V167.659H154.208V167.6H154.444V167.541H154.562V167.482H154.68V167.423H154.857V167.363H155.034V167.304H155.211V167.245H155.447V167.186H155.683V167.127H155.978V167.068H156.45V167.009H158.87V167.068H159.342V167.127H159.578V167.186H159.873V167.245H160.109V167.304H160.286V167.363H160.463V167.423H160.581V167.482H160.758V167.541H160.877V167.6H160.995V167.659H161.113V167.718H161.231V167.777H161.349V167.836H161.526V167.895H161.585V167.954H161.703V168.013H161.762V168.072H161.88V168.131H161.939V168.19H161.998V168.249H162.116V168.308H162.175V168.367H162.293V168.426H162.352V168.485H162.411V168.544H162.529V168.603H162.588V168.662H162.706V168.721H162.765V168.78H162.883V168.839H163.001V168.898H163.06V168.957H163.178V169.016H163.296V169.075H163.414V169.134H163.532V169.193H163.709V169.252H163.827V169.311H163.945V169.37H164.063V169.429H164.241V169.488H164.477V169.547H164.654V169.606H164.89V169.665H165.126V169.724H165.539V169.783H166.011V169.842H166.483V169.783H167.073V169.724H167.191V169.783H167.25V169.842H167.309V169.96H167.368V170.078H167.427V170.196ZM161.349 186.367H161.408V168.426H161.349V168.367H161.231V168.308H161.113V168.249H160.995V168.19H160.936V168.131H160.758V168.072H160.64V168.013H160.522V167.954H160.404V167.895H160.227V167.836H160.05V167.777H159.873V167.718H159.637V167.659H159.342V167.6H159.047V167.541H158.457V167.482H156.804V167.541H156.273V167.6H155.919V167.659H155.683V167.718H155.447V167.777H155.27V167.836H155.034V167.895H154.916V167.954H154.798V168.013H154.621V168.072H154.503V168.131H154.385V168.19H154.326V186.367H161.349Z" fill="#E80F0F"/>
<path d="M175.867 169.607H175.808V170.433H175.749V170.847H175.69V171.201H175.631V171.614H175.572V171.968H175.513V172.322H175.454V172.558H175.395V162.938H173.92V163.233H173.861V163.469H173.802V163.764H173.743V164.001H173.684V164.237H173.625V164.414H173.565V164.591H173.506V164.768H173.447V164.945H173.388V165.122H173.329V165.24H173.27V165.358H173.211V165.476H173.152V165.653H173.093V165.771H173.034V165.889H172.975V166.007H172.916V166.066H172.857V166.184H172.798V166.302H172.739V166.42H172.68V166.538H172.621V166.597H172.562V166.715H172.503V166.774H172.444V166.892H172.385V166.951H172.326V167.069H172.267V167.128H172.208V167.187H172.149V167.306H172.031V167.247H171.972V167.187H171.913V167.069H171.854V166.951H171.795V166.833H171.854V166.715H171.913V166.656H171.972V166.538H172.031V166.479H172.09V166.361H172.149V166.302H172.208V166.184H172.267V166.066H172.326V166.007H172.385V165.889H172.444V165.771H172.503V165.653H172.562V165.535H172.621V165.417H172.68V165.299H172.739V165.122H172.798V165.004H172.857V164.827H172.916V164.709H172.975V164.532H173.034V164.355H173.093V164.178H173.152V164.001H173.211V163.764H173.27V163.528H173.329V163.292H173.388V162.938H173.447V162.584H173.506V162.407H175.395V160.577H173.506V160.282H173.447V159.928H173.388V159.574H173.329V159.279H173.27V158.984H173.211V158.807H173.152V158.63H173.093V158.453H173.034V158.276H172.975V158.099H172.916V157.981H172.857V157.804H172.798V157.686H172.739V157.568H172.68V157.45H172.621V157.272H172.562V157.154H172.503V157.036H172.444V156.977H172.385V156.859H172.326V156.741H172.267V156.682H172.208V156.564H172.149V156.446H172.09V156.387H172.031V156.269H171.972V156.21H171.913V156.092H171.854V156.033H171.795V155.915H171.736V155.856H171.677V155.797H171.618V155.679H171.559V155.62H171.5V155.561H171.441V155.502H171.382V155.443H171.323V155.384H171.264V155.266H171.146V155.207H171.087V155.148H171.028V155.089H170.969V155.03H170.91V154.971H170.851V154.912H170.792V154.853H170.733V154.794H170.674V154.735H170.615V154.676H170.556V154.617H170.438V154.558H170.379V154.499H170.32V154.44H170.201V154.381H170.142V154.322H170.083V154.263H170.024V154.204H169.906V154.145H169.788V154.086H169.729V154.027H169.611V153.968H169.493V153.908H169.434V153.849H169.316V153.79H169.198V153.731H169.08V153.672H168.962V153.613H168.844V153.554H168.667V153.495H168.549V153.436H168.372V153.377H168.195V153.318H168.018V139.449H168.077V139.508H168.195V139.567H168.254V139.626H168.313V139.685H168.431V139.744H168.49V139.803H168.549V152.905H168.608V152.964H168.785V153.023H168.903V153.082H169.08V153.141H169.198V153.2H169.316V153.259H169.434V153.318H169.552V153.377H169.67V153.436H169.729V153.495H169.847V153.554H169.965V153.613H170.024V153.672H170.142V153.731H170.201V153.79H170.32V153.849H170.438V153.908H170.497V153.968H170.556V154.027H170.615V154.086H170.733V154.145H170.792V154.204H170.851V154.263H170.91V154.322H171.028V154.381H171.087V154.44H171.146V154.499H171.205V154.558H171.264V154.617H171.323V154.676H171.382V154.735H171.441V154.794H171.5V154.853H171.559V154.912H171.618V154.971H171.677V155.03H171.736V155.089H171.795V155.148H171.854V155.207H171.913V155.325H171.972V155.384H172.031V155.443H172.09V155.561H172.149V155.62H172.208V155.679H172.267V155.797H172.326V155.856H172.385V155.915H172.444V156.033H172.503V156.151H172.562V156.21H172.621V156.328H172.68V156.446H172.739V156.505H172.798V156.623H172.857V156.741H172.916V156.8H172.975V156.977H173.034V157.095H173.093V157.213H173.152V157.332H173.211V157.45H173.27V157.568H173.329V157.745H173.388V157.863H173.447V158.04H173.506V158.217H173.565V158.394H173.625V158.571H173.684V158.807H173.743V159.043H173.802V159.338H173.861V159.633H173.92V159.928H173.979V160.046H175.395V151.371H175.454V151.489H175.513V151.548H175.572V151.666H175.631V151.784H175.69V152.138H175.749V152.551H175.808V153.318H175.867V169.607ZM161.88 149.187H161.821V149.069H161.762V148.951H161.703V148.833H161.644V148.715H161.585V148.656H161.526V148.538H161.467V148.42H161.408V136.616H155.093V136.557H155.034V136.439H154.975V136.321H155.093V136.262H155.565V136.203H156.273V136.144H158.752V136.203H159.519V136.262H159.932V136.321H160.286V136.38H160.7V136.439H161.054V136.498H161.349V136.557H161.585V136.616H161.821V136.675H161.88" fill="#E80F0F"/>
<path d="M162.375 127.053H162.57V128.986H162.375V128.126H159.335C159.275 128.126 159.212 128.122 159.145 128.117L159.878 128.943L159.902 129.017L159.871 129.075L159.764 129.152L158.809 128.07V127.871H162.375V127.053Z" fill="white"/>
<path d="M162.332 123.991L162.358 123.925L162.422 123.9H162.57V126.318H162.481L162.421 126.303L162.369 126.265L161.075 124.987C160.967 124.881 160.863 124.782 160.762 124.693C160.662 124.603 160.561 124.524 160.459 124.459C160.356 124.392 160.251 124.341 160.143 124.304C160.035 124.267 159.92 124.248 159.799 124.248C159.662 124.248 159.542 124.271 159.441 124.317C159.339 124.363 159.256 124.424 159.19 124.499C159.124 124.575 159.076 124.664 159.045 124.764C159.013 124.865 158.997 124.969 158.997 125.076C158.997 125.194 159.014 125.303 159.052 125.404C159.088 125.503 159.137 125.591 159.203 125.668C159.267 125.745 159.344 125.808 159.433 125.859C159.521 125.909 159.619 125.944 159.725 125.963L159.802 126.012L159.814 126.095L159.794 126.226C159.634 126.202 159.49 126.158 159.364 126.094C159.24 126.028 159.134 125.945 159.048 125.844C158.961 125.744 158.895 125.627 158.85 125.495C158.805 125.362 158.782 125.22 158.782 125.066C158.782 124.923 158.803 124.787 158.845 124.657C158.886 124.527 158.95 124.412 159.032 124.313C159.116 124.214 159.222 124.134 159.347 124.076C159.474 124.017 159.622 123.988 159.791 123.988C159.933 123.988 160.064 124.01 160.184 124.053C160.305 124.096 160.421 124.155 160.532 124.229C160.643 124.304 160.751 124.39 160.856 124.488C160.962 124.586 161.068 124.688 161.179 124.796L162.375 125.968C162.361 125.912 162.35 125.853 162.343 125.793C162.336 125.731 162.332 125.67 162.332 125.608V123.991Z" fill="white"/>
<path d="M159.794 123.139C159.634 123.117 159.49 123.072 159.365 123.007C159.24 122.941 159.134 122.858 159.048 122.758C158.961 122.657 158.895 122.541 158.85 122.408C158.805 122.276 158.782 122.133 158.782 121.98C158.782 121.837 158.802 121.702 158.842 121.575C158.881 121.448 158.941 121.336 159.021 121.24C159.099 121.144 159.199 121.068 159.318 121.012C159.436 120.957 159.573 120.929 159.727 120.929C159.849 120.929 159.959 120.948 160.057 120.985C160.155 121.022 160.241 121.073 160.315 121.14C160.389 121.205 160.452 121.284 160.501 121.373C160.551 121.464 160.591 121.562 160.617 121.667C160.668 121.392 160.774 121.184 160.936 121.044C161.097 120.904 161.299 120.834 161.541 120.834C161.695 120.834 161.837 120.864 161.969 120.926C162.099 120.988 162.213 121.073 162.308 121.181C162.404 121.288 162.479 121.415 162.533 121.562C162.587 121.708 162.613 121.867 162.613 122.038C162.613 122.251 162.584 122.43 162.527 122.571C162.47 122.714 162.394 122.83 162.303 122.922C162.211 123.014 162.108 123.085 161.995 123.137C161.882 123.188 161.767 123.229 161.654 123.261L161.612 123.161L161.602 123.072L161.663 123.004L161.762 122.969C161.807 122.953 161.857 122.932 161.911 122.904C161.967 122.875 162.023 122.839 162.079 122.794C162.137 122.748 162.189 122.693 162.238 122.624C162.285 122.557 162.324 122.475 162.354 122.38C162.384 122.284 162.398 122.171 162.398 122.04C162.398 121.882 162.371 121.743 162.319 121.624C162.266 121.504 162.199 121.405 162.116 121.325C162.034 121.244 161.942 121.184 161.841 121.145C161.74 121.105 161.641 121.085 161.546 121.085C161.431 121.085 161.325 121.103 161.226 121.14C161.127 121.176 161.041 121.236 160.97 121.32C160.899 121.406 160.843 121.517 160.801 121.656C160.76 121.794 160.739 121.965 160.739 122.168H160.557C160.552 122.005 160.531 121.863 160.491 121.739C160.452 121.616 160.398 121.512 160.328 121.429C160.259 121.346 160.178 121.284 160.082 121.241C159.987 121.198 159.882 121.177 159.767 121.177C159.635 121.177 159.52 121.2 159.423 121.244C159.326 121.288 159.245 121.348 159.183 121.422C159.119 121.495 159.072 121.582 159.042 121.681C159.012 121.78 158.997 121.883 158.997 121.991C158.997 122.109 159.015 122.218 159.052 122.319C159.088 122.42 159.137 122.508 159.203 122.584C159.267 122.662 159.344 122.725 159.433 122.777C159.522 122.828 159.619 122.863 159.725 122.882L159.802 122.927L159.814 123.01L159.794 123.139Z" fill="white"/>
<path d="M161.294 118.489H159.334L159.235 118.486L159.127 118.476L161.294 120.096V118.489ZM161.294 117.582H161.432L161.48 117.599L161.496 117.653V118.268H162.57V118.489H161.496V120.261L161.48 120.321L161.432 120.35L161.308 120.375L158.82 118.491V118.268H161.294V117.582Z" fill="white"/>
<path d="M167.049 127.08C166.746 127.08 166.486 127.108 166.271 127.167C166.056 127.225 165.88 127.303 165.743 127.401C165.606 127.5 165.506 127.614 165.443 127.746C165.379 127.877 165.347 128.015 165.347 128.16C165.347 128.304 165.379 128.443 165.443 128.572C165.506 128.703 165.606 128.818 165.743 128.917C165.88 129.016 166.056 129.094 166.271 129.152C166.486 129.21 166.746 129.24 167.049 129.24C167.355 129.24 167.615 129.21 167.829 129.152C168.044 129.094 168.22 129.016 168.356 128.917C168.493 128.818 168.592 128.703 168.655 128.572C168.717 128.443 168.749 128.304 168.749 128.16C168.749 128.015 168.717 127.877 168.655 127.746C168.592 127.614 168.493 127.5 168.356 127.401C168.22 127.303 168.044 127.225 167.829 127.167C167.615 127.108 167.355 127.08 167.049 127.08ZM167.049 126.815C167.378 126.815 167.661 126.851 167.902 126.921C168.142 126.991 168.34 127.087 168.497 127.21C168.655 127.331 168.771 127.473 168.848 127.637C168.925 127.8 168.963 127.974 168.963 128.16C168.963 128.345 168.925 128.518 168.848 128.682C168.771 128.844 168.655 128.986 168.497 129.107C168.34 129.229 168.142 129.324 167.902 129.394C167.661 129.464 167.378 129.5 167.049 129.5C166.721 129.5 166.437 129.464 166.197 129.394C165.957 129.324 165.759 129.229 165.602 129.107C165.445 128.986 165.328 128.844 165.251 128.682C165.174 128.518 165.135 128.345 165.135 128.16C165.135 127.974 165.174 127.8 165.251 127.637C165.328 127.473 165.445 127.331 165.602 127.21C165.759 127.087 165.957 126.991 166.197 126.921C166.437 126.851 166.721 126.815 167.049 126.815Z" fill="white"/>
<path d="M167.049 124.009C166.746 124.009 166.486 124.038 166.271 124.096C166.056 124.155 165.88 124.233 165.743 124.331C165.606 124.429 165.506 124.544 165.443 124.675C165.379 124.807 165.347 124.945 165.347 125.089C165.347 125.235 165.379 125.373 165.443 125.502C165.506 125.632 165.606 125.747 165.743 125.847C165.88 125.946 166.056 126.024 166.271 126.082C166.486 126.141 166.746 126.17 167.049 126.17C167.355 126.17 167.615 126.141 167.829 126.082C168.044 126.024 168.22 125.946 168.356 125.847C168.493 125.747 168.592 125.632 168.655 125.502C168.717 125.373 168.749 125.235 168.749 125.089C168.749 124.945 168.717 124.807 168.655 124.675C168.592 124.544 168.493 124.429 168.356 124.331C168.22 124.233 168.044 124.155 167.829 124.096C167.615 124.038 167.355 124.009 167.049 124.009ZM167.049 123.744C167.378 123.744 167.661 123.78 167.902 123.85C168.142 123.921 168.34 124.017 168.497 124.139C168.655 124.261 168.771 124.403 168.848 124.567C168.925 124.729 168.963 124.904 168.963 125.089C168.963 125.275 168.925 125.448 168.848 125.611C168.771 125.774 168.655 125.915 168.497 126.037C168.34 126.159 168.142 126.255 167.902 126.325C167.661 126.394 167.378 126.429 167.049 126.429C166.721 126.429 166.437 126.394 166.197 126.325C165.957 126.255 165.759 126.159 165.602 126.037C165.445 125.915 165.328 125.774 165.251 125.611C165.174 125.448 165.135 125.275 165.135 125.089C165.135 124.904 165.174 124.729 165.251 124.567C165.328 124.403 165.445 124.261 165.602 124.139C165.759 124.017 165.957 123.921 166.197 123.85C166.437 123.78 166.721 123.744 167.049 123.744Z" fill="white"/>
<path d="M167.049 120.939C166.746 120.939 166.486 120.969 166.271 121.027C166.056 121.086 165.88 121.164 165.743 121.262C165.606 121.36 165.506 121.474 165.443 121.605C165.379 121.737 165.347 121.876 165.347 122.02C165.347 122.164 165.379 122.302 165.443 122.433C165.506 122.563 165.606 122.678 165.743 122.777C165.88 122.876 166.056 122.954 166.271 123.013C166.486 123.071 166.746 123.1 167.049 123.1C167.355 123.1 167.615 123.071 167.829 123.013C168.044 122.954 168.22 122.876 168.356 122.777C168.493 122.678 168.592 122.563 168.655 122.433C168.717 122.302 168.749 122.164 168.749 122.02C168.749 121.876 168.717 121.737 168.655 121.605C168.592 121.474 168.493 121.36 168.356 121.262C168.22 121.164 168.044 121.086 167.829 121.027C167.615 120.969 167.355 120.939 167.049 120.939ZM167.049 120.675C167.378 120.675 167.661 120.711 167.902 120.781C168.142 120.851 168.34 120.948 168.497 121.07C168.655 121.192 168.771 121.333 168.848 121.497C168.925 121.66 168.963 121.834 168.963 122.02C168.963 122.205 168.925 122.379 168.848 122.541C168.771 122.704 168.655 122.846 168.497 122.968C168.34 123.089 168.142 123.185 167.902 123.255C167.661 123.324 167.378 123.359 167.049 123.359C166.721 123.359 166.437 123.324 166.197 123.255C165.957 123.185 165.759 123.089 165.602 122.968C165.445 122.846 165.328 122.704 165.251 122.541C165.174 122.379 165.135 122.205 165.135 122.02C165.135 121.834 165.174 121.66 165.251 121.497C165.328 121.333 165.445 121.192 165.602 121.07C165.759 120.948 165.957 120.851 166.197 120.781C166.437 120.711 166.721 120.675 167.049 120.675Z" fill="white"/>
<path d="M167.049 117.869C166.746 117.869 166.486 117.898 166.271 117.956C166.056 118.014 165.88 118.093 165.743 118.19C165.606 118.288 165.506 118.404 165.443 118.535C165.379 118.666 165.347 118.805 165.347 118.948C165.347 119.094 165.379 119.232 165.443 119.362C165.506 119.492 165.606 119.607 165.743 119.707C165.88 119.805 166.056 119.884 166.271 119.942C166.486 120 166.746 120.029 167.049 120.029C167.355 120.029 167.615 120 167.829 119.942C168.044 119.884 168.22 119.805 168.356 119.707C168.493 119.607 168.592 119.492 168.655 119.362C168.717 119.232 168.749 119.094 168.749 118.948C168.749 118.805 168.717 118.666 168.655 118.535C168.592 118.404 168.493 118.288 168.356 118.19C168.22 118.093 168.044 118.014 167.829 117.956C167.615 117.898 167.355 117.869 167.049 117.869ZM167.049 117.604C167.378 117.604 167.661 117.64 167.902 117.711C168.142 117.781 168.34 117.877 168.497 117.998C168.655 118.12 168.771 118.263 168.848 118.427C168.925 118.589 168.963 118.764 168.963 118.948C168.963 119.135 168.925 119.308 168.848 119.471C168.771 119.633 168.655 119.776 168.497 119.897C168.34 120.018 168.142 120.114 167.902 120.184C167.661 120.254 167.378 120.289 167.049 120.289C166.721 120.289 166.437 120.254 166.197 120.184C165.957 120.114 165.759 120.018 165.602 119.897C165.445 119.776 165.328 119.633 165.251 119.471C165.174 119.308 165.135 119.135 165.135 118.948C165.135 118.764 165.174 118.589 165.251 118.427C165.328 118.263 165.445 118.12 165.602 117.998C165.759 117.877 165.957 117.781 166.197 117.711C166.437 117.64 166.721 117.604 167.049 117.604Z" fill="white"/>
<defs>
<filter id="filter0_d_55_3665" x="0.316406" y="-21.833" width="314.233" height="496.507" filterUnits="userSpaceOnUse" color-interpolation-filters="sRGB">
<feFlood flood-opacity="0" result="BackgroundImageFix"/>
<feColorMatrix in="SourceAlpha" type="matrix" values="0 0 0 0 0 0 0 0 0 0 0 0 0 0 0 0 0 0 127 0" result="hardAlpha"/>
<feOffset dy="4"/>
<feGaussianBlur stdDeviation="20"/>
<feComposite in2="hardAlpha" operator="out"/>
<feColorMatrix type="matrix" values="0 0 0 0 0 0 0 0 0 0 0 0 0 0 0 0 0 0 0.5 0"/>
<feBlend mode="normal" in2="BackgroundImageFix" result="effect1_dropShadow_55_3665"/>
<feBlend mode="normal" in="SourceGraphic" in2="effect1_dropShadow_55_3665" result="shape"/>
</filter>
<linearGradient id="paint0_linear_55_3665" x1="157.433" y1="486.816" x2="157.433" y2="14.1672" gradientUnits="userSpaceOnUse">
<stop stop-color="#7F0011"/>
<stop offset="1" stop-color="#C02714"/>
</linearGradient>
<linearGradient id="paint1_linear_55_3665" x1="51" y1="216.558" x2="135.285" y2="216.558" gradientUnits="userSpaceOnUse">
<stop stop-color="#E80F0F" stop-opacity="0"/>
<stop offset="0.544792" stop-color="#E80F0F"/>
<stop offset="1" stop-color="#E80F0F" stop-opacity="0"/>
</linearGradient>
<linearGradient id="paint2_linear_55_3665" x1="182" y1="151.558" x2="266.285" y2="151.558" gradientUnits="userSpaceOnUse">
<stop stop-color="#E80F0F" stop-opacity="0"/>
<stop offset="0.544792" stop-color="#E80F0F"/>
<stop offset="1" stop-color="#E80F0F" stop-opacity="0"/>
</linearGradient>
<linearGradient id="paint3_linear_55_3665" x1="134.473" y1="214.972" x2="247.493" y2="151.111" gradientUnits="userSpaceOnUse">
<stop stop-color="#D41700"/>
<stop offset="1" stop-color="#7F0011"/>
</linearGradient>
</defs>
</svg>
