<svg width="307" height="285" viewBox="0 0 307 285" fill="none" xmlns="http://www.w3.org/2000/svg">
<g filter="url(#filter0_d_55_2623)">
<path d="M270.889 88.9061H270.444V42.2047C270.444 26.7198 257.891 14.1672 242.406 14.1672H72.4594C56.9747 14.1672 44.4219 26.7198 44.4219 42.2047V88.9061H43.9767C41.9552 88.9061 40.3164 90.5439 40.3164 92.567V124.871C40.3164 126.894 41.9552 128.532 43.9767 128.532H44.4219V136.237H43.9767C41.9552 136.237 40.3164 137.875 40.3164 139.898V172.202C40.3164 174.225 41.9552 175.863 43.9767 175.863H44.4219V402.636C44.4219 418.121 56.9747 430.674 72.4594 430.674H242.406C257.891 430.674 270.444 418.121 270.444 402.636V148.345H270.889C272.912 148.345 274.55 146.707 274.55 144.684V92.567C274.55 90.5439 272.912 88.9061 270.889 88.9061Z" fill="url(#paint0_linear_55_2623)"/>
</g>
<path d="M239.933 422.515H75.7726C63.1957 422.515 53 412.32 53 399.743V43.8736C53 31.2968 63.1957 21.1019 75.7726 21.1019H239.933C252.51 21.1019 262.705 31.2968 262.705 43.8736V399.743C262.705 412.32 252.51 422.515 239.933 422.515Z" fill="black"/>
<path d="M138.147 91.0005H134.555V94.593H138.147V91.0005Z" fill="#AB1D1D"/>
<path d="M141.741 91.0005H138.148V94.593H141.741V91.0005Z" fill="#AB1D1D"/>
<path d="M145.335 91.0005H141.742V94.593H145.335V91.0005Z" fill="#AB1D1D"/>
<path d="M163.298 91H159.705V94.5925H163.298V91Z" fill="#AB1D1D"/>
<path d="M166.889 91.0005H163.297V94.593H166.889V91.0005Z" fill="#AB1D1D"/>
<path d="M170.481 91.0005H166.889V94.593H170.481V91.0005Z" fill="#AB1D1D"/>
<path d="M145.335 94.5928H141.742V98.1853H145.335V94.5928Z" fill="#AB1D1D"/>
<path d="M148.928 94.5923H145.336V98.1848H148.928V94.5923Z" fill="#AB1D1D"/>
<path d="M152.516 94.5928H148.924V98.1853H152.516V94.5928Z" fill="#AB1D1D"/>
<path d="M156.112 94.5923H152.52V98.1848H156.112V94.5923Z" fill="#AB1D1D"/>
<path d="M159.704 94.5928H156.111V98.1853H159.704V94.5928Z" fill="#AB1D1D"/>
<path d="M166.889 94.5923H163.297V98.1848H166.889V94.5923Z" fill="#AB1D1D"/>
<path d="M170.481 94.5928H166.889V98.1853H170.481V94.5928Z" fill="#AB1D1D"/>
<path d="M181.26 94.5928H177.668V98.1853H181.26V94.5928Z" fill="#AB1D1D"/>
<path d="M138.147 98.1855H134.555V101.778H138.147V98.1855Z" fill="#AB1D1D"/>
<path d="M145.335 98.1855H141.742V101.778H145.335V98.1855Z" fill="#AB1D1D"/>
<path d="M148.928 98.1851H145.336V101.778H148.928V98.1851Z" fill="#AB1D1D"/>
<path d="M159.704 98.1855H156.111V101.778H159.704V98.1855Z" fill="#AB1D1D"/>
<path d="M163.298 98.1851H159.705V101.778H163.298V98.1851Z" fill="#AB1D1D"/>
<path d="M166.889 98.1851H163.297V101.778H166.889V98.1851Z" fill="#AB1D1D"/>
<path d="M170.481 98.1855H166.889V101.778H170.481V98.1855Z" fill="#AB1D1D"/>
<path d="M181.26 98.1851H177.668V101.778H181.26V98.1851Z" fill="#AB1D1D"/>
<path d="M141.741 101.778H138.148V105.37H141.741V101.778Z" fill="#AB1D1D"/>
<path d="M145.335 101.778H141.742V105.37H145.335V101.778Z" fill="#AB1D1D"/>
<path d="M152.516 101.778H148.924V105.37H152.516V101.778Z" fill="#AB1D1D"/>
<path d="M159.704 101.778H156.111V105.37H159.704V101.778Z" fill="#AB1D1D"/>
<path d="M170.481 101.778H166.889V105.37H170.481V101.778Z" fill="#AB1D1D"/>
<path d="M177.667 101.777H174.074V105.37H177.667V101.777Z" fill="#AB1D1D"/>
<path d="M141.741 105.37H138.148V108.963H141.741V105.37Z" fill="#AB1D1D"/>
<path d="M145.335 105.37H141.742V108.963H145.335V105.37Z" fill="#AB1D1D"/>
<path d="M148.928 105.37H145.336V108.963H148.928V105.37Z" fill="#AB1D1D"/>
<path d="M156.112 105.37H152.52V108.963H156.112V105.37Z" fill="#AB1D1D"/>
<path d="M159.704 105.37H156.111V108.963H159.704V105.37Z" fill="#AB1D1D"/>
<path d="M163.298 105.37H159.705V108.963H163.298V105.37Z" fill="#AB1D1D"/>
<path d="M174.075 105.37H170.482V108.963H174.075V105.37Z" fill="#AB1D1D"/>
<path d="M138.147 108.962H134.555V112.555H138.147V108.962Z" fill="#AB1D1D"/>
<path d="M145.335 108.962H141.742V112.555H145.335V108.962Z" fill="#AB1D1D"/>
<path d="M148.928 108.963H145.336V112.555H148.928V108.963Z" fill="#AB1D1D"/>
<path d="M152.516 108.962H148.924V112.555H152.516V108.962Z" fill="#AB1D1D"/>
<path d="M163.298 108.963H159.705V112.555H163.298V108.963Z" fill="#AB1D1D"/>
<path d="M170.481 108.962H166.889V112.555H170.481V108.962Z" fill="#AB1D1D"/>
<path d="M174.075 108.962H170.482V112.555H174.075V108.962Z" fill="#AB1D1D"/>
<path d="M138.147 112.555H134.555V116.147H138.147V112.555Z" fill="#AB1D1D"/>
<path d="M145.335 112.555H141.742V116.147H145.335V112.555Z" fill="#AB1D1D"/>
<path d="M152.516 112.555H148.924V116.147H152.516V112.555Z" fill="#AB1D1D"/>
<path d="M159.704 112.555H156.111V116.147H159.704V112.555Z" fill="#AB1D1D"/>
<path d="M166.889 112.555H163.297V116.147H166.889V112.555Z" fill="#AB1D1D"/>
<path d="M174.075 112.555H170.482V116.148H174.075V112.555Z" fill="#AB1D1D"/>
<path d="M181.26 112.555H177.668V116.148H181.26V112.555Z" fill="#AB1D1D"/>
<path d="M141.741 116.147H138.148V119.739H141.741V116.147Z" fill="#AB1D1D"/>
<path d="M148.928 116.147H145.336V119.74H148.928V116.147Z" fill="#AB1D1D"/>
<path d="M152.516 116.147H148.924V119.739H152.516V116.147Z" fill="#AB1D1D"/>
<path d="M159.704 116.147H156.111V119.739H159.704V116.147Z" fill="#AB1D1D"/>
<path d="M163.298 116.147H159.705V119.74H163.298V116.147Z" fill="#AB1D1D"/>
<path d="M166.889 116.147H163.297V119.74H166.889V116.147Z" fill="#AB1D1D"/>
<path d="M177.667 116.147H174.074V119.74H177.667V116.147Z" fill="#AB1D1D"/>
<path d="M181.26 116.147H177.668V119.74H181.26V116.147Z" fill="#AB1D1D"/>
<path d="M109.411 119.74H105.818V123.332H109.411V119.74Z" fill="#AB1D1D"/>
<path d="M116.594 119.74H113.002V123.333H116.594V119.74Z" fill="#AB1D1D"/>
<path d="M130.966 119.739H127.373V123.332H130.966V119.739Z" fill="#AB1D1D"/>
<path d="M134.555 119.739H130.963V123.332H134.555V119.739Z" fill="#AB1D1D"/>
<path d="M156.112 119.74H152.52V123.333H156.112V119.74Z" fill="#AB1D1D"/>
<path d="M159.704 119.739H156.111V123.332H159.704V119.739Z" fill="#AB1D1D"/>
<path d="M181.26 119.74H177.668V123.332H181.26V119.74Z" fill="#AB1D1D"/>
<path d="M192.038 119.739H188.445V123.332H192.038V119.739Z" fill="#AB1D1D"/>
<path d="M202.815 119.74H199.223V123.332H202.815V119.74Z" fill="#AB1D1D"/>
<path d="M209.999 119.739H206.406V123.332H209.999V119.739Z" fill="#AB1D1D"/>
<path d="M109.411 123.333H105.818V126.925H109.411V123.333Z" fill="#AB1D1D"/>
<path d="M113.001 123.332H109.408V126.925H113.001V123.332Z" fill="#AB1D1D"/>
<path d="M116.594 123.333H113.002V126.925H116.594V123.333Z" fill="#AB1D1D"/>
<path d="M120.188 123.332H116.596V126.925H120.188V123.332Z" fill="#AB1D1D"/>
<path d="M127.374 123.333H123.781V126.925H127.374V123.333Z" fill="#AB1D1D"/>
<path d="M134.555 123.332H130.963V126.925H134.555V123.332Z" fill="#AB1D1D"/>
<path d="M141.741 123.332H138.148V126.925H141.741V123.332Z" fill="#AB1D1D"/>
<path d="M156.112 123.333H152.52V126.925H156.112V123.333Z" fill="#AB1D1D"/>
<path d="M159.704 123.332H156.111V126.925H159.704V123.332Z" fill="#AB1D1D"/>
<path d="M177.667 123.333H174.074V126.925H177.667V123.333Z" fill="#AB1D1D"/>
<path d="M181.26 123.333H177.668V126.925H181.26V123.333Z" fill="#AB1D1D"/>
<path d="M188.446 123.332H184.854V126.925H188.446V123.332Z" fill="#AB1D1D"/>
<path d="M192.038 123.332H188.445V126.925H192.038V123.332Z" fill="#AB1D1D"/>
<path d="M206.407 123.333H202.814V126.925H206.407V123.333Z" fill="#AB1D1D"/>
<path d="M209.999 123.332H206.406V126.925H209.999V123.332Z" fill="#AB1D1D"/>
<path d="M113.001 126.925H109.408V130.517H113.001V126.925Z" fill="#AB1D1D"/>
<path d="M116.594 126.925H113.002V130.517H116.594V126.925Z" fill="#AB1D1D"/>
<path d="M120.188 126.925H116.596V130.517H120.188V126.925Z" fill="#AB1D1D"/>
<path d="M123.78 126.925H120.188V130.517H123.78V126.925Z" fill="#AB1D1D"/>
<path d="M130.966 126.925H127.373V130.517H130.966V126.925Z" fill="#AB1D1D"/>
<path d="M134.555 126.925H130.963V130.517H134.555V126.925Z" fill="#AB1D1D"/>
<path d="M148.928 126.925H145.336V130.517H148.928V126.925Z" fill="#AB1D1D"/>
<path d="M152.516 126.925H148.924V130.517H152.516V126.925Z" fill="#AB1D1D"/>
<path d="M163.298 126.925H159.705V130.517H163.298V126.925Z" fill="#AB1D1D"/>
<path d="M174.075 126.925H170.482V130.517H174.075V126.925Z" fill="#AB1D1D"/>
<path d="M177.667 126.925H174.074V130.517H177.667V126.925Z" fill="#AB1D1D"/>
<path d="M192.038 126.925H188.445V130.517H192.038V126.925Z" fill="#AB1D1D"/>
<path d="M199.221 126.925H195.629V130.517H199.221V126.925Z" fill="#AB1D1D"/>
<path d="M202.815 126.925H199.223V130.517H202.815V126.925Z" fill="#AB1D1D"/>
<path d="M209.999 126.925H206.406V130.517H209.999V126.925Z" fill="#AB1D1D"/>
<path d="M109.411 130.518H105.818V134.11H109.411V130.518Z" fill="#AB1D1D"/>
<path d="M123.78 130.518H120.188V134.111H123.78V130.518Z" fill="#AB1D1D"/>
<path d="M134.555 130.518H130.963V134.111H134.555V130.518Z" fill="#AB1D1D"/>
<path d="M138.147 130.518H134.555V134.111H138.147V130.518Z" fill="#AB1D1D"/>
<path d="M141.741 130.518H138.148V134.111H141.741V130.518Z" fill="#AB1D1D"/>
<path d="M145.335 130.518H141.742V134.111H145.335V130.518Z" fill="#AB1D1D"/>
<path d="M148.928 130.518H145.336V134.11H148.928V130.518Z" fill="#AB1D1D"/>
<path d="M152.516 130.518H148.924V134.111H152.516V130.518Z" fill="#AB1D1D"/>
<path d="M156.112 130.518H152.52V134.11H156.112V130.518Z" fill="#AB1D1D"/>
<path d="M174.075 130.518H170.482V134.11H174.075V130.518Z" fill="#AB1D1D"/>
<path d="M184.852 130.518H181.26V134.11H184.852V130.518Z" fill="#AB1D1D"/>
<path d="M192.038 130.518H188.445V134.111H192.038V130.518Z" fill="#AB1D1D"/>
<path d="M195.63 130.518H192.037V134.11H195.63V130.518Z" fill="#AB1D1D"/>
<path d="M199.221 130.518H195.629V134.111H199.221V130.518Z" fill="#AB1D1D"/>
<path d="M123.78 134.11H120.188V137.703H123.78V134.11Z" fill="#AB1D1D"/>
<path d="M127.374 134.11H123.781V137.702H127.374V134.11Z" fill="#AB1D1D"/>
<path d="M130.966 134.11H127.373V137.703H130.966V134.11Z" fill="#AB1D1D"/>
<path d="M134.555 134.11H130.963V137.703H134.555V134.11Z" fill="#AB1D1D"/>
<path d="M141.741 134.11H138.148V137.703H141.741V134.11Z" fill="#AB1D1D"/>
<path d="M145.335 134.11H141.742V137.703H145.335V134.11Z" fill="#AB1D1D"/>
<path d="M156.112 134.11H152.52V137.702H156.112V134.11Z" fill="#AB1D1D"/>
<path d="M163.298 134.11H159.705V137.702H163.298V134.11Z" fill="#AB1D1D"/>
<path d="M166.889 134.11H163.297V137.702H166.889V134.11Z" fill="#AB1D1D"/>
<path d="M181.26 134.11H177.668V137.702H181.26V134.11Z" fill="#AB1D1D"/>
<path d="M188.446 134.11H184.854V137.703H188.446V134.11Z" fill="#AB1D1D"/>
<path d="M192.038 134.11H188.445V137.703H192.038V134.11Z" fill="#AB1D1D"/>
<path d="M209.999 134.11H206.406V137.703H209.999V134.11Z" fill="#AB1D1D"/>
<path d="M120.188 137.702H116.596V141.295H120.188V137.702Z" fill="#AB1D1D"/>
<path d="M123.78 137.702H120.188V141.295H123.78V137.702Z" fill="#AB1D1D"/>
<path d="M141.741 137.702H138.148V141.295H141.741V137.702Z" fill="#AB1D1D"/>
<path d="M148.928 137.703H145.336V141.295H148.928V137.703Z" fill="#AB1D1D"/>
<path d="M166.889 137.703H163.297V141.295H166.889V137.703Z" fill="#AB1D1D"/>
<path d="M170.481 137.702H166.889V141.295H170.481V137.702Z" fill="#AB1D1D"/>
<path d="M177.667 137.702H174.074V141.295H177.667V137.702Z" fill="#AB1D1D"/>
<path d="M181.26 137.702H177.668V141.295H181.26V137.702Z" fill="#AB1D1D"/>
<path d="M188.446 137.702H184.854V141.295H188.446V137.702Z" fill="#AB1D1D"/>
<path d="M206.407 137.703H202.814V141.295H206.407V137.703Z" fill="#AB1D1D"/>
<path d="M209.999 137.702H206.406V141.295H209.999V137.702Z" fill="#AB1D1D"/>
<path d="M109.411 141.295H105.818V144.888H109.411V141.295Z" fill="#AB1D1D"/>
<path d="M113.001 141.295H109.408V144.888H113.001V141.295Z" fill="#AB1D1D"/>
<path d="M123.78 141.295H120.188V144.888H123.78V141.295Z" fill="#AB1D1D"/>
<path d="M130.966 141.295H127.373V144.888H130.966V141.295Z" fill="#AB1D1D"/>
<path d="M141.741 141.295H138.148V144.888H141.741V141.295Z" fill="#AB1D1D"/>
<path d="M152.516 141.295H148.924V144.888H152.516V141.295Z" fill="#AB1D1D"/>
<path d="M156.112 141.295H152.52V144.887H156.112V141.295Z" fill="#AB1D1D"/>
<path d="M159.704 141.295H156.111V144.888H159.704V141.295Z" fill="#AB1D1D"/>
<path d="M166.889 141.295H163.297V144.888H166.889V141.295Z" fill="#AB1D1D"/>
<path d="M177.667 141.295H174.074V144.887H177.667V141.295Z" fill="#AB1D1D"/>
<path d="M181.26 141.295H177.668V144.887H181.26V141.295Z" fill="#AB1D1D"/>
<path d="M188.446 141.295H184.854V144.888H188.446V141.295Z" fill="#AB1D1D"/>
<path d="M209.999 141.295H206.406V144.888H209.999V141.295Z" fill="#AB1D1D"/>
<path d="M120.188 144.888H116.596V148.48H120.188V144.888Z" fill="#AB1D1D"/>
<path d="M127.374 144.887H123.781V148.48H127.374V144.887Z" fill="#AB1D1D"/>
<path d="M138.147 144.888H134.555V148.48H138.147V144.888Z" fill="#AB1D1D"/>
<path d="M159.704 144.888H156.111V148.48H159.704V144.888Z" fill="#AB1D1D"/>
<path d="M163.298 144.888H159.705V148.48H163.298V144.888Z" fill="#AB1D1D"/>
<path d="M166.889 144.887H163.297V148.48H166.889V144.887Z" fill="#AB1D1D"/>
<path d="M174.075 144.888H170.482V148.48H174.075V144.888Z" fill="#AB1D1D"/>
<path d="M181.26 144.888H177.668V148.48H181.26V144.888Z" fill="#AB1D1D"/>
<path d="M184.852 144.888H181.26V148.48H184.852V144.888Z" fill="#AB1D1D"/>
<path d="M192.038 144.888H188.445V148.48H192.038V144.888Z" fill="#AB1D1D"/>
<path d="M109.411 148.48H105.818V152.072H109.411V148.48Z" fill="#AB1D1D"/>
<path d="M113.001 148.48H109.408V152.073H113.001V148.48Z" fill="#AB1D1D"/>
<path d="M116.594 148.48H113.002V152.072H116.594V148.48Z" fill="#AB1D1D"/>
<path d="M123.78 148.48H120.188V152.073H123.78V148.48Z" fill="#AB1D1D"/>
<path d="M127.374 148.48H123.781V152.072H127.374V148.48Z" fill="#AB1D1D"/>
<path d="M130.966 148.48H127.373V152.073H130.966V148.48Z" fill="#AB1D1D"/>
<path d="M134.555 148.48H130.963V152.073H134.555V148.48Z" fill="#AB1D1D"/>
<path d="M141.741 148.48H138.148V152.073H141.741V148.48Z" fill="#AB1D1D"/>
<path d="M145.335 148.48H141.742V152.073H145.335V148.48Z" fill="#AB1D1D"/>
<path d="M148.928 148.48H145.336V152.072H148.928V148.48Z" fill="#AB1D1D"/>
<path d="M152.516 148.48H148.924V152.073H152.516V148.48Z" fill="#AB1D1D"/>
<path d="M156.112 148.48H152.52V152.072H156.112V148.48Z" fill="#AB1D1D"/>
<path d="M159.704 148.48H156.111V152.073H159.704V148.48Z" fill="#AB1D1D"/>
<path d="M166.889 148.48H163.297V152.072H166.889V148.48Z" fill="#AB1D1D"/>
<path d="M181.26 148.48H177.668V152.072H181.26V148.48Z" fill="#AB1D1D"/>
<path d="M188.446 148.48H184.854V152.073H188.446V148.48Z" fill="#AB1D1D"/>
<path d="M209.999 148.48H206.406V152.073H209.999V148.48Z" fill="#AB1D1D"/>
<path d="M113.001 152.072H109.408V155.665H113.001V152.072Z" fill="#AB1D1D"/>
<path d="M123.78 152.072H120.188V155.665H123.78V152.072Z" fill="#AB1D1D"/>
<path d="M134.555 152.072H130.963V155.665H134.555V152.072Z" fill="#AB1D1D"/>
<path d="M138.147 152.072H134.555V155.665H138.147V152.072Z" fill="#AB1D1D"/>
<path d="M141.741 152.072H138.148V155.665H141.741V152.072Z" fill="#AB1D1D"/>
<path d="M148.928 152.073H145.336V155.665H148.928V152.073Z" fill="#AB1D1D"/>
<path d="M156.112 152.072H152.52V155.665H156.112V152.072Z" fill="#AB1D1D"/>
<path d="M159.704 152.072H156.111V155.665H159.704V152.072Z" fill="#AB1D1D"/>
<path d="M170.481 152.072H166.889V155.665H170.481V152.072Z" fill="#AB1D1D"/>
<path d="M177.667 152.073H174.074V155.665H177.667V152.073Z" fill="#AB1D1D"/>
<path d="M181.26 152.073H177.668V155.665H181.26V152.073Z" fill="#AB1D1D"/>
<path d="M188.446 152.072H184.854V155.665H188.446V152.072Z" fill="#AB1D1D"/>
<path d="M192.038 152.072H188.445V155.665H192.038V152.072Z" fill="#AB1D1D"/>
<path d="M202.815 152.073H199.223V155.665H202.815V152.073Z" fill="#AB1D1D"/>
<path d="M206.407 152.073H202.814V155.665H206.407V152.073Z" fill="#AB1D1D"/>
<path d="M209.999 152.072H206.406V155.665H209.999V152.072Z" fill="#AB1D1D"/>
<path d="M109.411 155.665H105.818V159.258H109.411V155.665Z" fill="#AB1D1D"/>
<path d="M113.001 155.665H109.408V159.257H113.001V155.665Z" fill="#AB1D1D"/>
<path d="M123.78 155.665H120.188V159.257H123.78V155.665Z" fill="#AB1D1D"/>
<path d="M127.374 155.665H123.781V159.258H127.374V155.665Z" fill="#AB1D1D"/>
<path d="M130.966 155.665H127.373V159.257H130.966V155.665Z" fill="#AB1D1D"/>
<path d="M134.555 155.665H130.963V159.257H134.555V155.665Z" fill="#AB1D1D"/>
<path d="M141.741 155.665H138.148V159.257H141.741V155.665Z" fill="#AB1D1D"/>
<path d="M145.335 155.665H141.742V159.257H145.335V155.665Z" fill="#AB1D1D"/>
<path d="M148.928 155.665H145.336V159.258H148.928V155.665Z" fill="#AB1D1D"/>
<path d="M163.298 155.665H159.705V159.258H163.298V155.665Z" fill="#AB1D1D"/>
<path d="M166.889 155.665H163.297V159.258H166.889V155.665Z" fill="#AB1D1D"/>
<path d="M170.481 155.665H166.889V159.257H170.481V155.665Z" fill="#AB1D1D"/>
<path d="M177.667 155.665H174.074V159.258H177.667V155.665Z" fill="#AB1D1D"/>
<path d="M199.221 155.665H195.629V159.257H199.221V155.665Z" fill="#AB1D1D"/>
<path d="M209.999 155.665H206.406V159.257H209.999V155.665Z" fill="#AB1D1D"/>
<path d="M123.78 159.257H120.188V162.85H123.78V159.257Z" fill="#AB1D1D"/>
<path d="M127.374 159.257H123.781V162.849H127.374V159.257Z" fill="#AB1D1D"/>
<path d="M141.741 159.257H138.148V162.85H141.741V159.257Z" fill="#AB1D1D"/>
<path d="M145.335 159.257H141.742V162.85H145.335V159.257Z" fill="#AB1D1D"/>
<path d="M152.516 159.257H148.924V162.85H152.516V159.257Z" fill="#AB1D1D"/>
<path d="M156.112 159.257H152.52V162.85H156.112V159.257Z" fill="#AB1D1D"/>
<path d="M166.889 159.257H163.297V162.849H166.889V159.257Z" fill="#AB1D1D"/>
<path d="M174.075 159.257H170.482V162.85H174.075V159.257Z" fill="#AB1D1D"/>
<path d="M184.852 159.257H181.26V162.85H184.852V159.257Z" fill="#AB1D1D"/>
<path d="M192.038 159.257H188.445V162.85H192.038V159.257Z" fill="#AB1D1D"/>
<path d="M109.411 162.85H105.818V166.443H109.411V162.85Z" fill="#AB1D1D"/>
<path d="M113.001 162.85H109.408V166.443H113.001V162.85Z" fill="#AB1D1D"/>
<path d="M120.188 162.85H116.596V166.443H120.188V162.85Z" fill="#AB1D1D"/>
<path d="M123.78 162.85H120.188V166.443H123.78V162.85Z" fill="#AB1D1D"/>
<path d="M130.966 162.85H127.373V166.443H130.966V162.85Z" fill="#AB1D1D"/>
<path d="M134.555 162.85H130.963V166.443H134.555V162.85Z" fill="#AB1D1D"/>
<path d="M145.335 162.85H141.742V166.443H145.335V162.85Z" fill="#AB1D1D"/>
<path d="M148.928 162.85H145.336V166.443H148.928V162.85Z" fill="#AB1D1D"/>
<path d="M156.112 162.85H152.52V166.443H156.112V162.85Z" fill="#AB1D1D"/>
<path d="M163.298 162.85H159.705V166.443H163.298V162.85Z" fill="#AB1D1D"/>
<path d="M174.075 162.85H170.482V166.443H174.075V162.85Z" fill="#AB1D1D"/>
<path d="M181.26 162.85H177.668V166.443H181.26V162.85Z" fill="#AB1D1D"/>
<path d="M184.852 162.85H181.26V166.443H184.852V162.85Z" fill="#AB1D1D"/>
<path d="M188.446 162.85H184.854V166.443H188.446V162.85Z" fill="#AB1D1D"/>
<path d="M192.038 162.85H188.445V166.443H192.038V162.85Z" fill="#AB1D1D"/>
<path d="M195.63 162.85H192.037V166.443H195.63V162.85Z" fill="#AB1D1D"/>
<path d="M199.221 162.85H195.629V166.443H199.221V162.85Z" fill="#AB1D1D"/>
<path d="M206.407 162.85H202.814V166.443H206.407V162.85Z" fill="#AB1D1D"/>
<path d="M138.147 166.442H134.555V170.035H138.147V166.442Z" fill="#AB1D1D"/>
<path d="M141.741 166.442H138.148V170.035H141.741V166.442Z" fill="#AB1D1D"/>
<path d="M145.335 166.442H141.742V170.035H145.335V166.442Z" fill="#AB1D1D"/>
<path d="M148.928 166.443H145.336V170.035H148.928V166.443Z" fill="#AB1D1D"/>
<path d="M152.516 166.442H148.924V170.035H152.516V166.442Z" fill="#AB1D1D"/>
<path d="M163.298 166.442H159.705V170.035H163.298V166.442Z" fill="#AB1D1D"/>
<path d="M170.481 166.442H166.889V170.035H170.481V166.442Z" fill="#AB1D1D"/>
<path d="M177.667 166.442H174.074V170.035H177.667V166.442Z" fill="#AB1D1D"/>
<path d="M181.26 166.442H177.668V170.035H181.26V166.442Z" fill="#AB1D1D"/>
<path d="M195.63 166.442H192.037V170.035H195.63V166.442Z" fill="#AB1D1D"/>
<path d="M199.221 166.442H195.629V170.035H199.221V166.442Z" fill="#AB1D1D"/>
<path d="M202.815 166.442H199.223V170.035H202.815V166.442Z" fill="#AB1D1D"/>
<path d="M209.999 166.442H206.406V170.035H209.999V166.442Z" fill="#AB1D1D"/>
<path d="M138.147 170.035H134.555V173.627H138.147V170.035Z" fill="#AB1D1D"/>
<path d="M141.741 170.035H138.148V173.627H141.741V170.035Z" fill="#AB1D1D"/>
<path d="M145.335 170.035H141.742V173.627H145.335V170.035Z" fill="#AB1D1D"/>
<path d="M148.928 170.035H145.336V173.628H148.928V170.035Z" fill="#AB1D1D"/>
<path d="M152.516 170.035H148.924V173.627H152.516V170.035Z" fill="#AB1D1D"/>
<path d="M156.112 170.035H152.52V173.628H156.112V170.035Z" fill="#AB1D1D"/>
<path d="M159.704 170.035H156.111V173.627H159.704V170.035Z" fill="#AB1D1D"/>
<path d="M163.298 170.035H159.705V173.627H163.298V170.035Z" fill="#AB1D1D"/>
<path d="M181.26 170.035H177.668V173.627H181.26V170.035Z" fill="#AB1D1D"/>
<path d="M188.446 170.035H184.854V173.627H188.446V170.035Z" fill="#AB1D1D"/>
<path d="M195.63 170.035H192.037V173.628H195.63V170.035Z" fill="#AB1D1D"/>
<path d="M209.999 170.035H206.406V173.627H209.999V170.035Z" fill="#AB1D1D"/>
<path d="M145.335 173.627H141.742V177.22H145.335V173.627Z" fill="#AB1D1D"/>
<path d="M148.928 173.628H145.336V177.22H148.928V173.628Z" fill="#AB1D1D"/>
<path d="M152.516 173.627H148.924V177.22H152.516V173.627Z" fill="#AB1D1D"/>
<path d="M159.704 173.627H156.111V177.22H159.704V173.627Z" fill="#AB1D1D"/>
<path d="M163.298 173.627H159.705V177.22H163.298V173.627Z" fill="#AB1D1D"/>
<path d="M174.075 173.627H170.482V177.22H174.075V173.627Z" fill="#AB1D1D"/>
<path d="M177.667 173.627H174.074V177.22H177.667V173.627Z" fill="#AB1D1D"/>
<path d="M181.26 173.627H177.668V177.22H181.26V173.627Z" fill="#AB1D1D"/>
<path d="M195.63 173.627H192.037V177.22H195.63V173.627Z" fill="#AB1D1D"/>
<path d="M141.741 177.22H138.148V180.812H141.741V177.22Z" fill="#AB1D1D"/>
<path d="M145.335 177.22H141.742V180.812H145.335V177.22Z" fill="#AB1D1D"/>
<path d="M148.928 177.22H145.336V180.812H148.928V177.22Z" fill="#AB1D1D"/>
<path d="M152.516 177.22H148.924V180.812H152.516V177.22Z" fill="#AB1D1D"/>
<path d="M156.112 177.22H152.52V180.812H156.112V177.22Z" fill="#AB1D1D"/>
<path d="M159.704 177.22H156.111V180.812H159.704V177.22Z" fill="#AB1D1D"/>
<path d="M163.298 177.22H159.705V180.812H163.298V177.22Z" fill="#AB1D1D"/>
<path d="M174.075 177.22H170.482V180.812H174.075V177.22Z" fill="#AB1D1D"/>
<path d="M177.667 177.22H174.074V180.812H177.667V177.22Z" fill="#AB1D1D"/>
<path d="M181.26 177.22H177.668V180.812H181.26V177.22Z" fill="#AB1D1D"/>
<path d="M184.852 177.22H181.26V180.812H184.852V177.22Z" fill="#AB1D1D"/>
<path d="M188.446 177.22H184.854V180.812H188.446V177.22Z" fill="#AB1D1D"/>
<path d="M192.038 177.22H188.445V180.812H192.038V177.22Z" fill="#AB1D1D"/>
<path d="M195.63 177.22H192.037V180.812H195.63V177.22Z" fill="#AB1D1D"/>
<path d="M199.221 177.22H195.629V180.812H199.221V177.22Z" fill="#AB1D1D"/>
<path d="M206.407 177.22H202.814V180.812H206.407V177.22Z" fill="#AB1D1D"/>
<path d="M209.999 177.22H206.406V180.812H209.999V177.22Z" fill="#AB1D1D"/>
<path d="M141.741 180.813H138.148V184.405H141.741V180.813Z" fill="#AB1D1D"/>
<path d="M145.335 180.813H141.742V184.405H145.335V180.813Z" fill="#AB1D1D"/>
<path d="M148.928 180.812H145.336V184.405H148.928V180.812Z" fill="#AB1D1D"/>
<path d="M152.516 180.813H148.924V184.405H152.516V180.813Z" fill="#AB1D1D"/>
<path d="M156.112 180.812H152.52V184.405H156.112V180.812Z" fill="#AB1D1D"/>
<path d="M159.704 180.813H156.111V184.405H159.704V180.813Z" fill="#AB1D1D"/>
<path d="M163.298 180.812H159.705V184.405H163.298V180.812Z" fill="#AB1D1D"/>
<path d="M174.075 180.812H170.482V184.405H174.075V180.812Z" fill="#AB1D1D"/>
<path d="M181.26 180.812H177.668V184.405H181.26V180.812Z" fill="#AB1D1D"/>
<path d="M184.852 180.812H181.26V184.405H184.852V180.812Z" fill="#AB1D1D"/>
<path d="M192.038 180.813H188.445V184.405H192.038V180.813Z" fill="#AB1D1D"/>
<path d="M195.63 180.812H192.037V184.405H195.63V180.812Z" fill="#AB1D1D"/>
<path d="M199.221 180.813H195.629V184.405H199.221V180.813Z" fill="#AB1D1D"/>
<path d="M202.815 180.812H199.223V184.405H202.815V180.812Z" fill="#AB1D1D"/>
<path d="M209.999 180.813H206.406V184.405H209.999V180.813Z" fill="#AB1D1D"/>
<path d="M138.147 184.405H134.555V187.998H138.147V184.405Z" fill="#AB1D1D"/>
<path d="M141.741 184.405H138.148V187.998H141.741V184.405Z" fill="#AB1D1D"/>
<path d="M145.335 184.405H141.742V187.998H145.335V184.405Z" fill="#AB1D1D"/>
<path d="M163.298 184.405H159.705V187.997H163.298V184.405Z" fill="#AB1D1D"/>
<path d="M174.075 184.405H170.482V187.998H174.075V184.405Z" fill="#AB1D1D"/>
<path d="M177.667 184.405H174.074V187.997H177.667V184.405Z" fill="#AB1D1D"/>
<path d="M181.26 184.405H177.668V187.997H181.26V184.405Z" fill="#AB1D1D"/>
<path d="M184.852 184.405H181.26V187.997H184.852V184.405Z" fill="#AB1D1D"/>
<path d="M195.63 184.405H192.037V187.998H195.63V184.405Z" fill="#AB1D1D"/>
<path d="M206.407 184.405H202.814V187.997H206.407V184.405Z" fill="#AB1D1D"/>
<path d="M209.999 184.405H206.406V187.998H209.999V184.405Z" fill="#AB1D1D"/>
<path d="M141.741 187.998H138.148V191.59H141.741V187.998Z" fill="#AB1D1D"/>
<path d="M148.928 187.997H145.336V191.59H148.928V187.997Z" fill="#AB1D1D"/>
<path d="M152.516 187.998H148.924V191.59H152.516V187.998Z" fill="#AB1D1D"/>
<path d="M159.704 187.998H156.111V191.59H159.704V187.998Z" fill="#AB1D1D"/>
<path d="M166.889 187.997H163.297V191.59H166.889V187.997Z" fill="#AB1D1D"/>
<path d="M177.667 187.998H174.074V191.59H177.667V187.998Z" fill="#AB1D1D"/>
<path d="M181.26 187.998H177.668V191.59H181.26V187.998Z" fill="#AB1D1D"/>
<path d="M184.852 187.998H181.26V191.59H184.852V187.998Z" fill="#AB1D1D"/>
<path d="M188.446 187.998H184.854V191.59H188.446V187.998Z" fill="#AB1D1D"/>
<path d="M192.038 187.998H188.445V191.59H192.038V187.998Z" fill="#AB1D1D"/>
<path d="M195.63 187.998H192.037V191.59H195.63V187.998Z" fill="#AB1D1D"/>
<path d="M199.221 187.998H195.629V191.59H199.221V187.998Z" fill="#AB1D1D"/>
<path d="M138.147 191.589H134.555V195.182H138.147V191.589Z" fill="#AB1D1D"/>
<path d="M141.741 191.589H138.148V195.182H141.741V191.589Z" fill="#AB1D1D"/>
<path d="M145.335 191.589H141.742V195.182H145.335V191.589Z" fill="#AB1D1D"/>
<path d="M152.516 191.589H148.924V195.182H152.516V191.589Z" fill="#AB1D1D"/>
<path d="M159.704 191.589H156.111V195.182H159.704V191.589Z" fill="#AB1D1D"/>
<path d="M163.298 191.59H159.705V195.182H163.298V191.59Z" fill="#AB1D1D"/>
<path d="M174.075 191.59H170.482V195.182H174.075V191.59Z" fill="#AB1D1D"/>
<path d="M181.26 191.59H177.668V195.182H181.26V191.59Z" fill="#AB1D1D"/>
<path d="M195.63 191.59H192.037V195.182H195.63V191.59Z" fill="#AB1D1D"/>
<path d="M209.999 191.589H206.406V195.182H209.999V191.589Z" fill="#AB1D1D"/>
<path d="M127.193 94.7725H109.59V112.376H127.193V94.7725Z" fill="#AB1D1D"/>
<path d="M127.194 91.0005H109.59H105.818V94.7726V112.376V116.148H109.59H127.194H130.966V112.376V94.7726V91.0005H127.194ZM127.194 112.376H109.59V94.7726H127.194V112.376Z" fill="#AB1D1D"/>
<path d="M206.224 94.7725H188.621V112.376H206.224V94.7725Z" fill="#AB1D1D"/>
<path d="M206.225 91.0005H188.622H184.85V94.7726V112.376V116.148H188.622H206.225H209.997V112.376V94.7726V91.0005H206.225ZM206.225 112.376H188.622V94.7726H206.225V112.376Z" fill="#AB1D1D"/>
<path d="M127.193 173.807H109.59V191.41H127.193V173.807Z" fill="#AB1D1D"/>
<path d="M127.194 170.035H109.59H105.818V173.807V191.411V195.183H109.59H127.194H130.966V191.411V173.807V170.035H127.194ZM127.194 191.411H109.59V173.807H127.194V191.411Z" fill="#AB1D1D"/>
<path d="M123.779 98.1851H113.002V108.963H123.779V98.1851Z" fill="#AB1D1D"/>
<path d="M202.815 98.1851H192.037V108.963H202.815V98.1851Z" fill="#AB1D1D"/>
<path d="M123.779 177.22H113.002V187.997H123.779V177.22Z" fill="#AB1D1D"/>
<path d="M52 217H78.3849V152H103" stroke="url(#paint1_linear_55_2623)" stroke-width="2"/>
<path d="M210 152H237.42V87H263" stroke="url(#paint2_linear_55_2623)" stroke-width="2"/>
<defs>
<filter id="filter0_d_55_2623" x="0.316406" y="-21.833" width="314.233" height="496.507" filterUnits="userSpaceOnUse" color-interpolation-filters="sRGB">
<feFlood flood-opacity="0" result="BackgroundImageFix"/>
<feColorMatrix in="SourceAlpha" type="matrix" values="0 0 0 0 0 0 0 0 0 0 0 0 0 0 0 0 0 0 127 0" result="hardAlpha"/>
<feOffset dy="4"/>
<feGaussianBlur stdDeviation="20"/>
<feComposite in2="hardAlpha" operator="out"/>
<feColorMatrix type="matrix" values="0 0 0 0 0 0 0 0 0 0 0 0 0 0 0 0 0 0 0.5 0"/>
<feBlend mode="normal" in2="BackgroundImageFix" result="effect1_dropShadow_55_2623"/>
<feBlend mode="normal" in="SourceGraphic" in2="effect1_dropShadow_55_2623" result="shape"/>
</filter>
<linearGradient id="paint0_linear_55_2623" x1="157.433" y1="486.816" x2="157.433" y2="14.1672" gradientUnits="userSpaceOnUse">
<stop stop-color="#7F0011"/>
<stop offset="1" stop-color="#C02714"/>
</linearGradient>
<linearGradient id="paint1_linear_55_2623" x1="52" y1="216.558" x2="102.571" y2="216.558" gradientUnits="userSpaceOnUse">
<stop stop-color="#E80F0F" stop-opacity="0"/>
<stop offset="0.544792" stop-color="#E80F0F"/>
<stop offset="1" stop-color="#E80F0F" stop-opacity="0"/>
</linearGradient>
<linearGradient id="paint2_linear_55_2623" x1="210" y1="151.558" x2="262.554" y2="151.558" gradientUnits="userSpaceOnUse">
<stop stop-color="#E80F0F" stop-opacity="0"/>
<stop offset="0.544792" stop-color="#E80F0F"/>
<stop offset="1" stop-color="#E80F0F" stop-opacity="0"/>
</linearGradient>
</defs>
</svg>
