<svg width="599" height="1003" viewBox="0 0 599 1003" fill="none" xmlns="http://www.w3.org/2000/svg">
<g filter="url(#filter0_d_55_3839)">
<path d="M539.263 205.268H538.321V106.373C538.321 73.5816 511.739 47 478.948 47H119.066C86.2758 47 59.6938 73.5816 59.6938 106.373V205.268H58.7512C54.4702 205.268 51 208.736 51 213.021V281.428C51 285.712 54.4702 289.18 58.7512 289.18H59.6938V305.497H58.7512C54.4702 305.497 51 308.965 51 313.249V381.656C51 385.941 54.4702 389.409 58.7512 389.409H59.6938V888.127C59.6938 920.918 86.2758 947.5 119.066 947.5H478.948C511.739 947.5 538.321 920.918 538.321 888.127V331.137H539.263C543.547 331.137 547.015 327.668 547.015 323.384V213.021C547.015 208.736 543.547 205.268 539.263 205.268Z" fill="url(#paint0_linear_55_3839)"/>
<path d="M538.821 106.373V204.768H539.263C543.823 204.768 547.515 208.46 547.515 213.021V323.384C547.515 327.944 543.823 331.637 539.263 331.637H538.821V888.127C538.821 921.195 512.016 948 478.948 948H119.066C85.9997 948 59.1938 921.195 59.1938 888.127V389.909H58.7512C54.1941 389.909 50.5 386.217 50.5 381.656V313.249C50.5 308.689 54.1941 304.997 58.7512 304.997H59.1938V289.68H58.7512C54.1941 289.68 50.5 285.988 50.5 281.428V213.021C50.5 208.46 54.1941 204.768 58.7512 204.768H59.1938V106.373C59.1938 73.3055 85.9997 46.5 119.066 46.5H478.948C512.016 46.5 538.821 73.3055 538.821 106.373Z" stroke="black"/>
<path d="M538.821 106.373V204.768H539.263C543.823 204.768 547.515 208.46 547.515 213.021V323.384C547.515 327.944 543.823 331.637 539.263 331.637H538.821V888.127C538.821 921.195 512.016 948 478.948 948H119.066C85.9997 948 59.1938 921.195 59.1938 888.127V389.909H58.7512C54.1941 389.909 50.5 386.217 50.5 381.656V313.249C50.5 308.689 54.1941 304.997 58.7512 304.997H59.1938V289.68H58.7512C54.1941 289.68 50.5 285.988 50.5 281.428V213.021C50.5 208.46 54.1941 204.768 58.7512 204.768H59.1938V106.373C59.1938 73.3055 85.9997 46.5 119.066 46.5H478.948C512.016 46.5 538.821 73.3055 538.821 106.373Z" stroke="black" stroke-opacity="0.2"/>
<path d="M538.821 106.373V204.768H539.263C543.823 204.768 547.515 208.46 547.515 213.021V323.384C547.515 327.944 543.823 331.637 539.263 331.637H538.821V888.127C538.821 921.195 512.016 948 478.948 948H119.066C85.9997 948 59.1938 921.195 59.1938 888.127V389.909H58.7512C54.1941 389.909 50.5 386.217 50.5 381.656V313.249C50.5 308.689 54.1941 304.997 58.7512 304.997H59.1938V289.68H58.7512C54.1941 289.68 50.5 285.988 50.5 281.428V213.021C50.5 208.46 54.1941 204.768 58.7512 204.768H59.1938V106.373C59.1938 73.3055 85.9997 46.5 119.066 46.5H478.948C512.016 46.5 538.821 73.3055 538.821 106.373Z" stroke="black" stroke-opacity="0.2"/>
<path d="M538.821 106.373V204.768H539.263C543.823 204.768 547.515 208.46 547.515 213.021V323.384C547.515 327.944 543.823 331.637 539.263 331.637H538.821V888.127C538.821 921.195 512.016 948 478.948 948H119.066C85.9997 948 59.1938 921.195 59.1938 888.127V389.909H58.7512C54.1941 389.909 50.5 386.217 50.5 381.656V313.249C50.5 308.689 54.1941 304.997 58.7512 304.997H59.1938V289.68H58.7512C54.1941 289.68 50.5 285.988 50.5 281.428V213.021C50.5 208.46 54.1941 204.768 58.7512 204.768H59.1938V106.373C59.1938 73.3055 85.9997 46.5 119.066 46.5H478.948C512.016 46.5 538.821 73.3055 538.821 106.373Z" stroke="black" stroke-opacity="0.2"/>
<path d="M538.821 106.373V204.768H539.263C543.823 204.768 547.515 208.46 547.515 213.021V323.384C547.515 327.944 543.823 331.637 539.263 331.637H538.821V888.127C538.821 921.195 512.016 948 478.948 948H119.066C85.9997 948 59.1938 921.195 59.1938 888.127V389.909H58.7512C54.1941 389.909 50.5 386.217 50.5 381.656V313.249C50.5 308.689 54.1941 304.997 58.7512 304.997H59.1938V289.68H58.7512C54.1941 289.68 50.5 285.988 50.5 281.428V213.021C50.5 208.46 54.1941 204.768 58.7512 204.768H59.1938V106.373C59.1938 73.3055 85.9997 46.5 119.066 46.5H478.948C512.016 46.5 538.821 73.3055 538.821 106.373Z" stroke="black" stroke-opacity="0.2"/>
</g>
<path d="M472.823 929.5H125.194C98.2852 929.5 76.4707 907.687 76.4707 880.778V109.906C76.4707 82.9974 98.2852 61.1848 125.194 61.1848H472.823C499.732 61.1848 521.544 82.9974 521.544 109.906V880.778C521.544 907.687 499.732 929.5 472.823 929.5Z" fill="black"/>
<path d="M472.823 929.5H125.194C98.2852 929.5 76.4707 907.687 76.4707 880.778V109.906C76.4707 82.9974 98.2852 61.1848 125.194 61.1848H472.823C499.732 61.1848 521.544 82.9974 521.544 109.906V880.778C521.544 907.687 499.732 929.5 472.823 929.5Z" stroke="black"/>
<path d="M472.823 929.5H125.194C98.2852 929.5 76.4707 907.687 76.4707 880.778V109.906C76.4707 82.9974 98.2852 61.1848 125.194 61.1848H472.823C499.732 61.1848 521.544 82.9974 521.544 109.906V880.778C521.544 907.687 499.732 929.5 472.823 929.5Z" stroke="black" stroke-opacity="0.2"/>
<path d="M472.823 929.5H125.194C98.2852 929.5 76.4707 907.687 76.4707 880.778V109.906C76.4707 82.9974 98.2852 61.1848 125.194 61.1848H472.823C499.732 61.1848 521.544 82.9974 521.544 109.906V880.778C521.544 907.687 499.732 929.5 472.823 929.5Z" stroke="black" stroke-opacity="0.2"/>
<path d="M472.823 929.5H125.194C98.2852 929.5 76.4707 907.687 76.4707 880.778V109.906C76.4707 82.9974 98.2852 61.1848 125.194 61.1848H472.823C499.732 61.1848 521.544 82.9974 521.544 109.906V880.778C521.544 907.687 499.732 929.5 472.823 929.5Z" stroke="black" stroke-opacity="0.2"/>
<path d="M472.823 929.5H125.194C98.2852 929.5 76.4707 907.687 76.4707 880.778V109.906C76.4707 82.9974 98.2852 61.1848 125.194 61.1848H472.823C499.732 61.1848 521.544 82.9974 521.544 109.906V880.778C521.544 907.687 499.732 929.5 472.823 929.5Z" stroke="black" stroke-opacity="0.2"/>
<path d="M236.532 331.531L236.803 331.802L236.894 331.749L298.701 367.433L298.951 367.577L299.201 367.433L361.29 331.587L362.04 331.154L361.29 330.721L299.413 295.015L299.165 294.873L298.917 295.013L279.914 305.755L279.152 306.186L279.91 306.623L322.364 331.154L298.951 344.68L255.95 319.908L255.701 319.764L255.451 319.908L236.636 330.744L236.833 331.085L236.509 331.507L236.532 331.531ZM362.225 329.072L362.975 329.504V328.639V307.013V306.919V306.63L362.725 306.486L319.701 281.644V266.066V265.2L318.951 265.633L300.136 276.493L299.886 276.637V276.926V292.839V293.128L300.136 293.272L362.225 329.072ZM362.975 241.197V240.331L362.225 240.764L343.41 251.624L343.16 251.768V252.057V292.487V292.775L343.41 292.92L362.225 303.779L362.975 304.212V303.346V241.197ZM361.313 239.279L361.563 239.135V238.846V238.823V238.534L361.313 238.39L299.201 202.567L298.951 202.423L298.701 202.567L236.636 238.39L235.886 238.823L236.636 239.256L298.536 275.008L298.784 275.151L299.033 275.01L318.035 264.268L318.797 263.838L318.04 263.4L275.562 238.846L298.975 225.32L341.999 250.139L342.249 250.283L342.499 250.139L361.313 239.279ZM235.725 240.764L234.975 240.331V241.197V262.074V262.94V263.01H235.434L235.225 263.373L278.249 288.192V303.816V304.682L278.999 304.249L297.813 293.39L298.063 293.245V292.957V277.043V276.755L297.813 276.61L235.725 240.764ZM234.975 266.51V328.827V329.692L235.724 329.26L254.539 318.424L254.789 318.279V317.99V277.819V277.54L254.552 277.393L235.737 265.805L235.518 266.16H235.475H234.975V266.231V266.51Z" fill="url(#paint1_linear_55_3839)"/>
<path d="M236.532 331.531L236.803 331.802L236.894 331.749L298.701 367.433L298.951 367.577L299.201 367.433L361.29 331.587L362.04 331.154L361.29 330.721L299.413 295.015L299.165 294.873L298.917 295.013L279.914 305.755L279.152 306.186L279.91 306.623L322.364 331.154L298.951 344.68L255.95 319.908L255.701 319.764L255.451 319.908L236.636 330.744L236.833 331.085L236.509 331.507L236.532 331.531ZM362.225 329.072L362.975 329.504V328.639V307.013V306.919V306.63L362.725 306.486L319.701 281.644V266.066V265.2L318.951 265.633L300.136 276.493L299.886 276.637V276.926V292.839V293.128L300.136 293.272L362.225 329.072ZM362.975 241.197V240.331L362.225 240.764L343.41 251.624L343.16 251.768V252.057V292.487V292.775L343.41 292.92L362.225 303.779L362.975 304.212V303.346V241.197ZM361.313 239.279L361.563 239.135V238.846V238.823V238.534L361.313 238.39L299.201 202.567L298.951 202.423L298.701 202.567L236.636 238.39L235.886 238.823L236.636 239.256L298.536 275.008L298.784 275.151L299.033 275.01L318.035 264.268L318.797 263.838L318.04 263.4L275.562 238.846L298.975 225.32L341.999 250.139L342.249 250.283L342.499 250.139L361.313 239.279ZM235.725 240.764L234.975 240.331V241.197V262.074V262.94V263.01H235.434L235.225 263.373L278.249 288.192V303.816V304.682L278.999 304.249L297.813 293.39L298.063 293.245V292.957V277.043V276.755L297.813 276.61L235.725 240.764ZM234.975 266.51V328.827V329.692L235.724 329.26L254.539 318.424L254.789 318.279V317.99V277.819V277.54L254.552 277.393L235.737 265.805L235.518 266.16H235.475H234.975V266.231V266.51Z" stroke="black"/>
<path d="M236.532 331.531L236.803 331.802L236.894 331.749L298.701 367.433L298.951 367.577L299.201 367.433L361.29 331.587L362.04 331.154L361.29 330.721L299.413 295.015L299.165 294.873L298.917 295.013L279.914 305.755L279.152 306.186L279.91 306.623L322.364 331.154L298.951 344.68L255.95 319.908L255.701 319.764L255.451 319.908L236.636 330.744L236.833 331.085L236.509 331.507L236.532 331.531ZM362.225 329.072L362.975 329.504V328.639V307.013V306.919V306.63L362.725 306.486L319.701 281.644V266.066V265.2L318.951 265.633L300.136 276.493L299.886 276.637V276.926V292.839V293.128L300.136 293.272L362.225 329.072ZM362.975 241.197V240.331L362.225 240.764L343.41 251.624L343.16 251.768V252.057V292.487V292.775L343.41 292.92L362.225 303.779L362.975 304.212V303.346V241.197ZM361.313 239.279L361.563 239.135V238.846V238.823V238.534L361.313 238.39L299.201 202.567L298.951 202.423L298.701 202.567L236.636 238.39L235.886 238.823L236.636 239.256L298.536 275.008L298.784 275.151L299.033 275.01L318.035 264.268L318.797 263.838L318.04 263.4L275.562 238.846L298.975 225.32L341.999 250.139L342.249 250.283L342.499 250.139L361.313 239.279ZM235.725 240.764L234.975 240.331V241.197V262.074V262.94V263.01H235.434L235.225 263.373L278.249 288.192V303.816V304.682L278.999 304.249L297.813 293.39L298.063 293.245V292.957V277.043V276.755L297.813 276.61L235.725 240.764ZM234.975 266.51V328.827V329.692L235.724 329.26L254.539 318.424L254.789 318.279V317.99V277.819V277.54L254.552 277.393L235.737 265.805L235.518 266.16H235.475H234.975V266.231V266.51Z" stroke="black" stroke-opacity="0.2"/>
<path d="M236.532 331.531L236.803 331.802L236.894 331.749L298.701 367.433L298.951 367.577L299.201 367.433L361.29 331.587L362.04 331.154L361.29 330.721L299.413 295.015L299.165 294.873L298.917 295.013L279.914 305.755L279.152 306.186L279.91 306.623L322.364 331.154L298.951 344.68L255.95 319.908L255.701 319.764L255.451 319.908L236.636 330.744L236.833 331.085L236.509 331.507L236.532 331.531ZM362.225 329.072L362.975 329.504V328.639V307.013V306.919V306.63L362.725 306.486L319.701 281.644V266.066V265.2L318.951 265.633L300.136 276.493L299.886 276.637V276.926V292.839V293.128L300.136 293.272L362.225 329.072ZM362.975 241.197V240.331L362.225 240.764L343.41 251.624L343.16 251.768V252.057V292.487V292.775L343.41 292.92L362.225 303.779L362.975 304.212V303.346V241.197ZM361.313 239.279L361.563 239.135V238.846V238.823V238.534L361.313 238.39L299.201 202.567L298.951 202.423L298.701 202.567L236.636 238.39L235.886 238.823L236.636 239.256L298.536 275.008L298.784 275.151L299.033 275.01L318.035 264.268L318.797 263.838L318.04 263.4L275.562 238.846L298.975 225.32L341.999 250.139L342.249 250.283L342.499 250.139L361.313 239.279ZM235.725 240.764L234.975 240.331V241.197V262.074V262.94V263.01H235.434L235.225 263.373L278.249 288.192V303.816V304.682L278.999 304.249L297.813 293.39L298.063 293.245V292.957V277.043V276.755L297.813 276.61L235.725 240.764ZM234.975 266.51V328.827V329.692L235.724 329.26L254.539 318.424L254.789 318.279V317.99V277.819V277.54L254.552 277.393L235.737 265.805L235.518 266.16H235.475H234.975V266.231V266.51Z" stroke="black" stroke-opacity="0.2"/>
<path d="M236.532 331.531L236.803 331.802L236.894 331.749L298.701 367.433L298.951 367.577L299.201 367.433L361.29 331.587L362.04 331.154L361.29 330.721L299.413 295.015L299.165 294.873L298.917 295.013L279.914 305.755L279.152 306.186L279.91 306.623L322.364 331.154L298.951 344.68L255.95 319.908L255.701 319.764L255.451 319.908L236.636 330.744L236.833 331.085L236.509 331.507L236.532 331.531ZM362.225 329.072L362.975 329.504V328.639V307.013V306.919V306.63L362.725 306.486L319.701 281.644V266.066V265.2L318.951 265.633L300.136 276.493L299.886 276.637V276.926V292.839V293.128L300.136 293.272L362.225 329.072ZM362.975 241.197V240.331L362.225 240.764L343.41 251.624L343.16 251.768V252.057V292.487V292.775L343.41 292.92L362.225 303.779L362.975 304.212V303.346V241.197ZM361.313 239.279L361.563 239.135V238.846V238.823V238.534L361.313 238.39L299.201 202.567L298.951 202.423L298.701 202.567L236.636 238.39L235.886 238.823L236.636 239.256L298.536 275.008L298.784 275.151L299.033 275.01L318.035 264.268L318.797 263.838L318.04 263.4L275.562 238.846L298.975 225.32L341.999 250.139L342.249 250.283L342.499 250.139L361.313 239.279ZM235.725 240.764L234.975 240.331V241.197V262.074V262.94V263.01H235.434L235.225 263.373L278.249 288.192V303.816V304.682L278.999 304.249L297.813 293.39L298.063 293.245V292.957V277.043V276.755L297.813 276.61L235.725 240.764ZM234.975 266.51V328.827V329.692L235.724 329.26L254.539 318.424L254.789 318.279V317.99V277.819V277.54L254.552 277.393L235.737 265.805L235.518 266.16H235.475H234.975V266.231V266.51Z" stroke="black" stroke-opacity="0.2"/>
<path d="M236.532 331.531L236.803 331.802L236.894 331.749L298.701 367.433L298.951 367.577L299.201 367.433L361.29 331.587L362.04 331.154L361.29 330.721L299.413 295.015L299.165 294.873L298.917 295.013L279.914 305.755L279.152 306.186L279.91 306.623L322.364 331.154L298.951 344.68L255.95 319.908L255.701 319.764L255.451 319.908L236.636 330.744L236.833 331.085L236.509 331.507L236.532 331.531ZM362.225 329.072L362.975 329.504V328.639V307.013V306.919V306.63L362.725 306.486L319.701 281.644V266.066V265.2L318.951 265.633L300.136 276.493L299.886 276.637V276.926V292.839V293.128L300.136 293.272L362.225 329.072ZM362.975 241.197V240.331L362.225 240.764L343.41 251.624L343.16 251.768V252.057V292.487V292.775L343.41 292.92L362.225 303.779L362.975 304.212V303.346V241.197ZM361.313 239.279L361.563 239.135V238.846V238.823V238.534L361.313 238.39L299.201 202.567L298.951 202.423L298.701 202.567L236.636 238.39L235.886 238.823L236.636 239.256L298.536 275.008L298.784 275.151L299.033 275.01L318.035 264.268L318.797 263.838L318.04 263.4L275.562 238.846L298.975 225.32L341.999 250.139L342.249 250.283L342.499 250.139L361.313 239.279ZM235.725 240.764L234.975 240.331V241.197V262.074V262.94V263.01H235.434L235.225 263.373L278.249 288.192V303.816V304.682L278.999 304.249L297.813 293.39L298.063 293.245V292.957V277.043V276.755L297.813 276.61L235.725 240.764ZM234.975 266.51V328.827V329.692L235.724 329.26L254.539 318.424L254.789 318.279V317.99V277.819V277.54L254.552 277.393L235.737 265.805L235.518 266.16H235.475H234.975V266.231V266.51Z" stroke="black" stroke-opacity="0.2"/>
<defs>
<filter id="filter0_d_55_3839" x="0" y="0" width="598.015" height="1002.5" filterUnits="userSpaceOnUse" color-interpolation-filters="sRGB">
<feFlood flood-opacity="0" result="BackgroundImageFix"/>
<feColorMatrix in="SourceAlpha" type="matrix" values="0 0 0 0 0 0 0 0 0 0 0 0 0 0 0 0 0 0 127 0" result="hardAlpha"/>
<feOffset dy="4"/>
<feGaussianBlur stdDeviation="25"/>
<feComposite in2="hardAlpha" operator="out"/>
<feColorMatrix type="matrix" values="0 0 0 0 0 0 0 0 0 0 0 0 0 0 0 0 0 0 0.5 0"/>
<feBlend mode="normal" in2="BackgroundImageFix" result="effect1_dropShadow_55_3839"/>
<feBlend mode="normal" in="SourceGraphic" in2="effect1_dropShadow_55_3839" result="shape"/>
</filter>
<linearGradient id="paint0_linear_55_3839" x1="299.008" y1="1047.89" x2="299.008" y2="47.0002" gradientUnits="userSpaceOnUse">
<stop stop-color="#7F0011"/>
<stop offset="1" stop-color="#C02714"/>
</linearGradient>
<linearGradient id="paint1_linear_55_3839" x1="210.098" y1="356.14" x2="435.099" y2="175.756" gradientUnits="userSpaceOnUse">
<stop stop-color="#D41700"/>
<stop offset="1" stop-color="#7F0011"/>
</linearGradient>
</defs>
</svg>
