<svg width="395" height="154" viewBox="0 0 395 154" fill="none" xmlns="http://www.w3.org/2000/svg">
<rect y="154" width="10" height="10" transform="rotate(-90 0 154)" fill="url(#paint0_linear_55_2353)"/>
<rect y="106" width="10" height="10" transform="rotate(-90 0 106)" fill="#232323"/>
<rect y="58" width="10" height="10" transform="rotate(-90 0 58)" fill="#232323"/>
<rect y="10" width="10" height="10" transform="rotate(-90 0 10)" fill="#232323"/>
<rect x="55" y="154" width="10" height="10" transform="rotate(-90 55 154)" fill="#232323"/>
<rect x="55" y="106" width="10" height="10" transform="rotate(-90 55 106)" fill="#232323"/>
<rect x="55" y="58" width="10" height="10" transform="rotate(-90 55 58)" fill="url(#paint1_linear_55_2353)"/>
<rect x="55" y="10" width="10" height="10" transform="rotate(-90 55 10)" fill="#232323"/>
<rect x="110" y="154" width="10" height="10" transform="rotate(-90 110 154)" fill="#232323"/>
<rect x="110" y="106" width="10" height="10" transform="rotate(-90 110 106)" fill="#232323"/>
<rect x="110" y="58" width="10" height="10" transform="rotate(-90 110 58)" fill="#232323"/>
<rect x="110" y="10" width="10" height="10" transform="rotate(-90 110 10)" fill="#232323"/>
<rect x="165" y="154" width="10" height="10" transform="rotate(-90 165 154)" fill="#232323"/>
<rect x="165" y="106" width="10" height="10" transform="rotate(-90 165 106)" fill="url(#paint2_linear_55_2353)"/>
<rect x="165" y="58" width="10" height="10" transform="rotate(-90 165 58)" fill="#232323"/>
<rect x="165" y="10" width="10" height="10" transform="rotate(-90 165 10)" fill="#232323"/>
<rect x="220" y="154" width="10" height="10" transform="rotate(-90 220 154)" fill="#232323"/>
<rect x="220" y="106" width="10" height="10" transform="rotate(-90 220 106)" fill="#232323"/>
<rect x="220" y="58" width="10" height="10" transform="rotate(-90 220 58)" fill="#232323"/>
<rect x="220" y="10" width="10" height="10" transform="rotate(-90 220 10)" fill="#232323"/>
<rect x="275" y="154" width="10" height="10" transform="rotate(-90 275 154)" fill="#232323"/>
<rect x="275" y="106" width="10" height="10" transform="rotate(-90 275 106)" fill="#232323"/>
<rect x="275" y="58" width="10" height="10" transform="rotate(-90 275 58)" fill="#232323"/>
<rect x="275" y="10" width="10" height="10" transform="rotate(-90 275 10)" fill="url(#paint3_linear_55_2353)"/>
<rect x="330" y="154" width="10" height="10" transform="rotate(-90 330 154)" fill="#232323"/>
<rect x="330" y="106" width="10" height="10" transform="rotate(-90 330 106)" fill="#232323"/>
<rect x="330" y="58" width="10" height="10" transform="rotate(-90 330 58)" fill="#232323"/>
<rect x="385" y="154" width="10" height="10" transform="rotate(-90 385 154)" fill="#232323"/>
<rect x="385" y="106" width="10" height="10" transform="rotate(-90 385 106)" fill="url(#paint4_linear_55_2353)"/>
<rect x="385" y="58" width="10" height="10" transform="rotate(-90 385 58)" fill="#232323"/>
<defs>
<linearGradient id="paint0_linear_55_2353" x1="-1.99815" y1="163.338" x2="12.0494" y2="148.795" gradientUnits="userSpaceOnUse">
<stop stop-color="#D41700"/>
<stop offset="1" stop-color="#7F0011"/>
</linearGradient>
<linearGradient id="paint1_linear_55_2353" x1="53.0019" y1="67.3378" x2="67.0494" y2="52.7947" gradientUnits="userSpaceOnUse">
<stop stop-color="#D41700"/>
<stop offset="1" stop-color="#7F0011"/>
</linearGradient>
<linearGradient id="paint2_linear_55_2353" x1="163.002" y1="115.338" x2="177.049" y2="100.795" gradientUnits="userSpaceOnUse">
<stop stop-color="#D41700"/>
<stop offset="1" stop-color="#7F0011"/>
</linearGradient>
<linearGradient id="paint3_linear_55_2353" x1="273.002" y1="19.3378" x2="287.049" y2="4.79474" gradientUnits="userSpaceOnUse">
<stop stop-color="#D41700"/>
<stop offset="1" stop-color="#7F0011"/>
</linearGradient>
<linearGradient id="paint4_linear_55_2353" x1="383.002" y1="115.338" x2="397.049" y2="100.795" gradientUnits="userSpaceOnUse">
<stop stop-color="#D41700"/>
<stop offset="1" stop-color="#7F0011"/>
</linearGradient>
</defs>
</svg>
