<svg width="65" height="65" viewBox="0 0 65 65" fill="none" xmlns="http://www.w3.org/2000/svg">
<path d="M23.1417 3.99371C22.1585 4.29884 21.2883 5.05603 20.8588 5.98273L20.5989 6.54779L20.565 13.0799C20.5424 18.0751 20.4972 19.6008 20.3955 19.5556C19.7061 19.273 18.9715 19.1261 18.4404 19.1939C16.8017 19.3861 15.5246 20.5501 15.2421 22.1323C15.163 22.5843 15.1178 26.1216 15.1178 32.7103V42.6102L14.338 43.3787L13.5695 44.1472L12.9706 43.9663C11.8065 43.616 10.3487 43.7968 9.28633 44.4184C8.61956 44.8139 7.80586 45.718 7.45553 46.4752C7.18429 47.0516 7.15039 47.255 7.15039 48.3625C7.15039 49.5492 7.17299 49.6509 7.53463 50.3968C7.87367 51.0861 8.28052 51.5495 10.812 54.1036C12.3942 55.7084 13.8068 57.0419 13.9538 57.0758C14.3832 57.1888 14.7675 57.0306 14.9596 56.6464C15.0952 56.3978 15.1065 56.2282 15.0274 56.0587C14.9709 55.9231 13.6147 54.4878 12.0212 52.8604C10.2808 51.0861 9.04901 49.7413 8.9586 49.504C8.86819 49.2779 8.78908 48.7807 8.78908 48.3964C8.80038 47.2324 9.34284 46.3057 10.3147 45.7858C10.9363 45.4581 12.2699 45.4468 12.914 45.7632C13.5921 46.091 22.667 55.2789 22.9948 55.9683C23.5146 57.0645 23.2208 58.5563 22.328 59.3361C21.1527 60.3645 19.4801 60.2628 18.1804 59.0988C17.6606 58.6241 17.1972 58.5789 16.8356 58.9631C16.7 59.1101 16.587 59.37 16.587 59.5508C16.587 60.195 18.1578 61.3364 19.4236 61.6302C21.4578 62.1049 23.6842 60.9974 24.5883 59.0649C24.8595 58.4998 24.8934 58.2851 24.8934 57.234C24.8934 56.1943 24.8595 55.957 24.5883 55.3128L24.2718 54.5782L25.029 53.8211L25.7862 53.0526H26.7129C29.606 53.0526 32.4314 51.8772 34.5899 49.7865C35.2906 49.1084 36.1608 47.9896 36.5902 47.2098L36.8502 46.7352L39.6868 46.7013L42.5234 46.6673L43.1337 46.3283C43.7891 45.9667 44.3768 45.3225 44.6932 44.6218C44.8741 44.2263 44.8967 43.6951 44.9306 39.6945L44.9645 35.2078L45.5182 35.027C46.9083 34.5637 47.7785 33.3431 47.7785 31.874C47.7785 30.9812 47.5186 30.2692 47.0213 29.7493L46.7388 29.4555L47.0213 29.0713C48.0158 27.7829 48.0384 26.0651 47.0891 24.8785L46.7501 24.4603L47.0891 24.0309C48.0158 22.8895 48.0158 21.0586 47.0891 19.9059L46.7501 19.4878L47.0891 19.0583C48.4566 17.3631 47.6429 14.5265 45.5973 13.8823L44.9645 13.6902L44.9306 10.0625C44.8967 6.51389 44.8854 6.42348 44.6254 5.90362C44.2751 5.19164 43.6535 4.55877 42.9641 4.21973L42.4104 3.9485L36.4659 3.9146C30.7588 3.88069 30.5101 3.89199 30.2615 4.09542C29.9338 4.36665 29.8886 5.03342 30.1824 5.33856C30.3632 5.51938 30.8718 5.53068 36.2512 5.58718C41.947 5.64369 42.1166 5.65499 42.4217 5.88102C42.9189 6.25396 43.1676 6.64951 43.2241 7.21457L43.2919 7.73443H32.8156H22.3506V7.23717C22.3506 6.63821 22.7123 6.06184 23.2547 5.79061C23.5711 5.63239 23.9441 5.58718 25.0403 5.58718C26.3626 5.58718 26.4417 5.57589 26.7016 5.30465C26.8598 5.15774 26.9841 4.89781 26.9841 4.73959C26.9841 4.58137 26.8598 4.32144 26.7016 4.17453C26.4417 3.90329 26.3739 3.89199 24.9273 3.90329C24.1023 3.90329 23.2999 3.9485 23.1417 3.99371ZM43.258 11.5769V13.7241H42.8285C41.2238 13.7241 39.7546 15.2498 39.7546 16.9337C39.7546 17.8604 39.9128 18.3689 40.3875 18.9792L40.7717 19.4991L40.444 19.9172C39.5173 21.0699 39.5173 22.8895 40.4553 24.0422L40.7943 24.4829L40.5118 24.7768C40.0484 25.2853 39.8337 25.8278 39.7772 26.6754C39.7207 27.636 39.8563 28.1445 40.3988 28.913L40.7943 29.4555L40.5005 29.7606C39.7207 30.5743 39.5173 32.1226 40.0258 33.2414C40.5344 34.3377 41.7888 35.1965 42.8737 35.1965H43.258L43.2354 37.3099L43.2015 39.4345H35.1889H27.1876L26.9163 38.4965C26.2157 36.0893 24.9273 34.202 23.1417 32.9815L22.3506 32.439V20.9343V9.42962H32.8043H43.258V11.5769ZM45.3713 15.6453C46.3658 16.2443 46.298 17.8717 45.2583 18.448C44.7384 18.7193 42.7833 18.7193 42.2635 18.4367C41.2238 17.8717 41.1672 16.2443 42.1618 15.6453C42.4669 15.4532 42.7381 15.4193 43.7665 15.4193C44.795 15.4193 45.0662 15.4532 45.3713 15.6453ZM45.3713 20.6179C45.8234 20.8891 46.0833 21.3751 46.0833 21.974C46.0833 22.573 45.8234 23.059 45.3713 23.3302C45.0662 23.5223 44.795 23.5562 43.7891 23.5562C42.9076 23.5562 42.4782 23.511 42.2296 23.3867C41.2238 22.8555 41.1785 21.2056 42.1618 20.6179C42.4669 20.4258 42.7381 20.3919 43.7665 20.3919C44.795 20.3919 45.0662 20.4258 45.3713 20.6179ZM19.8304 21.2508C20.5537 21.7819 20.5424 21.7028 20.5424 27.7151C20.5424 31.1733 20.5876 33.2527 20.6554 33.3883C20.7232 33.5127 21.1414 33.7952 21.5934 34.0325C22.5766 34.5524 23.7407 35.6599 24.2944 36.6092C25.3002 38.3383 25.6845 39.9657 25.5941 42.0225C25.5263 43.7064 25.3342 44.4297 24.6109 45.8763C24.3057 46.5091 24.0458 47.1081 24.0458 47.2324C24.0458 47.5715 24.4979 47.967 24.8934 47.967C25.2776 47.967 25.5489 47.7297 25.9218 47.0968L26.1252 46.7239H30.5214H34.9063L34.7029 47.0855C34.5899 47.2889 34.0135 47.9444 33.4259 48.5321C32.1827 49.7639 31.2221 50.3629 29.5834 50.9166C28.6228 51.2444 28.329 51.2896 26.7355 51.3461L24.9499 51.4139L24.0119 52.3519L23.0626 53.2899L19.0393 49.244L15.0161 45.1982L15.8863 44.3167L16.7565 43.4465L16.813 32.7668C16.8695 22.1662 16.8695 22.0984 17.1068 21.7819C17.2311 21.6124 17.5137 21.3412 17.7284 21.2056C18.0561 20.9795 18.2256 20.9456 18.8133 20.9795C19.2993 21.0134 19.627 21.0925 19.8304 21.2508ZM45.3374 25.5113C46.3658 26.1894 46.3093 27.8394 45.247 28.348C44.9758 28.4723 44.535 28.5288 43.7665 28.5288C42.9981 28.5288 42.5573 28.4723 42.2861 28.348C41.0542 27.7603 41.2238 25.7826 42.5347 25.3644C43.0998 25.1836 44.9871 25.2853 45.3374 25.5113ZM45.1792 30.4274C46.072 30.8682 46.3884 32.1 45.7895 32.8233C45.3035 33.3883 44.9758 33.5014 43.7552 33.5014C42.8511 33.5014 42.5912 33.4562 42.2409 33.264C41.6419 32.925 41.4046 32.439 41.4724 31.7045C41.5402 31.0603 41.834 30.6421 42.4104 30.3822C42.9302 30.1562 44.6932 30.1788 45.1792 30.4274ZM43.258 42.4068C43.258 43.4691 43.2241 43.7064 42.9981 44.1246C42.5008 45.0739 42.9641 45.0287 34.4204 45.0287C30.2615 45.0287 26.8711 44.9948 26.8711 44.9383C26.8711 44.893 26.9502 44.5766 27.0406 44.2376C27.1424 43.8985 27.2441 43.0735 27.2893 42.3955L27.3571 41.1862H35.3019H43.258V42.4068Z" fill="#878787"/>
<path d="M25.9201 13.3964C24.6882 14.6848 24.4961 14.9334 24.4961 15.2611C24.4961 15.8714 25.1855 16.2783 25.7392 15.9844C25.8522 15.9279 26.5642 15.2046 27.3214 14.4022C28.5533 13.08 28.6889 12.8879 28.6324 12.6166C28.5307 12.1985 28.1577 11.916 27.717 11.916C27.3892 11.916 27.1858 12.0855 25.9201 13.3964Z" fill="url(#paint0_linear_55_3756)"/>
<path d="M28.6108 16.0978C25.0509 19.7708 24.5537 20.3245 24.5198 20.6636C24.4746 21.1721 24.8023 21.5225 25.3222 21.5225C25.6499 21.5225 25.955 21.2512 28.4865 18.6745C30.0235 17.1037 31.8995 15.1598 32.6454 14.3688C33.8659 13.0804 34.0016 12.8883 33.945 12.6171C33.8433 12.1989 33.4704 11.9164 33.0409 11.9164C32.7019 11.9164 32.2951 12.3119 28.6108 16.0978Z" fill="url(#paint1_linear_55_3756)"/>
<path d="M16.4171 10.616C16.0555 10.9663 16.0442 11.4523 16.3945 11.78C16.8353 12.1869 17.389 12.0965 17.6716 11.5653C18.1123 10.6951 17.0952 9.92662 16.4171 10.616Z" fill="url(#paint2_linear_55_3756)"/>
<path d="M47.4484 10.8536C47.1545 11.2266 47.1545 11.4639 47.4371 11.8368C47.7422 12.2211 48.036 12.3002 48.4316 12.0968C48.7932 11.9159 48.9062 11.7125 48.9062 11.2831C48.9062 10.5937 47.8891 10.2885 47.4484 10.8536Z" fill="url(#paint3_linear_55_3756)"/>
<path d="M13.1165 13.6111C12.6193 13.8145 12.4724 14.583 12.8566 14.9673C13.173 15.2837 13.7042 15.2611 14.0432 14.9108C14.4162 14.5491 14.3936 14.2327 13.998 13.8258C13.6477 13.4755 13.5234 13.4529 13.1165 13.6111Z" fill="url(#paint4_linear_55_3756)"/>
<path d="M51.1997 13.8373C50.4086 14.165 50.6799 15.4194 51.5501 15.4194C51.9343 15.4194 52.409 14.9561 52.409 14.5944C52.409 14.0181 51.7422 13.6112 51.1997 13.8373Z" fill="url(#paint5_linear_55_3756)"/>
<path d="M10.0187 17.5441C9.6458 17.8492 9.6797 18.4256 10.0752 18.7759C10.4482 19.0924 10.7081 19.1037 11.0924 18.7985C11.3071 18.629 11.3862 18.4595 11.3862 18.177C11.3862 17.4424 10.6064 17.0808 10.0187 17.5441Z" fill="url(#paint6_linear_55_3756)"/>
<path d="M53.8255 17.8491C53.6673 17.996 53.543 18.2559 53.543 18.4141C53.543 18.5723 53.6673 18.8323 53.8255 18.9792C53.9724 19.1374 54.2323 19.2617 54.3906 19.2617C54.5488 19.2617 54.8087 19.1374 54.9556 18.9792C55.1138 18.8323 55.2382 18.5723 55.2382 18.4141C55.2382 18.2559 55.1138 17.996 54.9556 17.8491C54.8087 17.6908 54.5488 17.5665 54.3906 17.5665C54.2323 17.5665 53.9724 17.6908 53.8255 17.8491Z" fill="url(#paint7_linear_55_3756)"/>
<path d="M8.22327 21.601C7.86163 21.7366 7.6582 22.0191 7.6582 22.392C7.6582 23.4092 9.07086 23.5109 9.30819 22.5164C9.3647 22.2677 9.30819 22.1434 9.03696 21.8609C8.69792 21.5218 8.551 21.4766 8.22327 21.601Z" fill="url(#paint8_linear_55_3756)"/>
<path d="M55.8578 22.1434C55.5413 22.4485 55.5187 22.618 55.6995 23.0362C55.9595 23.6125 56.8636 23.6577 57.1461 23.1153C57.6321 22.2225 56.5697 21.4201 55.8578 22.1434Z" fill="url(#paint9_linear_55_3756)"/>
<path d="M6.53845 26.4498C6.26722 26.7889 6.24462 26.9358 6.42544 27.3313C6.61756 27.7495 7.10352 27.9077 7.52166 27.693C8.05282 27.4217 8.16584 26.8341 7.77029 26.4046C7.43125 26.043 6.84359 26.0656 6.53845 26.4498Z" fill="url(#paint10_linear_55_3756)"/>
<path d="M57.3035 26.5173C56.9079 26.7094 56.761 27.1954 56.9758 27.6022C57.0662 27.783 57.2357 27.9639 57.3261 28.0091C58.2302 28.3481 58.9535 27.1954 58.2189 26.619C57.8912 26.3591 57.6764 26.3365 57.3035 26.5173Z" fill="url(#paint11_linear_55_3756)"/>
<path d="M6.44858 30.9132C6.16605 31.0149 5.84961 31.4444 5.84961 31.7043C5.84961 31.806 5.95132 32.0207 6.08694 32.1903C6.53899 32.7666 7.5448 32.4502 7.5448 31.7156C7.5448 31.094 7.00234 30.7098 6.44858 30.9132Z" fill="url(#paint12_linear_55_3756)"/>
<path d="M57.5188 31.388C57.1684 31.7609 57.191 32.2921 57.564 32.5859C58.0499 32.9701 58.5359 32.8797 58.8071 32.3599C59.2479 31.501 58.1742 30.6873 57.5188 31.388Z" fill="url(#paint13_linear_55_3756)"/>
<path d="M6.78818 35.6488C5.99709 35.9765 6.27962 37.231 7.13852 37.231C7.57927 37.231 7.99742 36.8354 7.99742 36.4173C7.99742 35.8409 7.34194 35.4228 6.78818 35.6488Z" fill="url(#paint14_linear_55_3756)"/>
<path d="M57.0672 36.0557C56.7507 36.2705 56.7168 36.9937 57.022 37.265C57.587 37.7735 58.4007 37.4571 58.4007 36.7112C58.4007 35.9992 57.6661 35.6376 57.0672 36.0557Z" fill="url(#paint15_linear_55_3756)"/>
<path d="M7.90779 40.3499C7.58005 40.5759 7.55745 41.2879 7.88518 41.5817C8.42765 42.079 9.24134 41.6721 9.24134 40.9036C9.24134 40.2482 8.49545 39.9317 7.90779 40.3499Z" fill="url(#paint16_linear_55_3756)"/>
<path d="M55.712 40.6212C55.0113 41.2767 55.9719 42.5085 56.7291 41.9322C57.0456 41.6948 57.1586 41.2767 56.9891 40.8924C56.763 40.35 56.1415 40.2144 55.712 40.6212Z" fill="url(#paint17_linear_55_3756)"/>
<path d="M53.5862 44.8367C52.9759 45.3679 53.315 46.272 54.1174 46.272C54.8633 46.272 55.191 45.2775 54.6033 44.8141C54.2191 44.509 53.9592 44.5203 53.5862 44.8367Z" fill="url(#paint18_linear_55_3756)"/>
<path d="M50.6029 48.6453C50.0943 49.1539 50.4786 50.0015 51.2131 50.0015C51.6313 50.0015 52.072 49.5946 52.072 49.2104C52.072 49.0974 51.9703 48.8826 51.8347 48.7131C51.5409 48.3402 50.9419 48.3063 50.6029 48.6453Z" fill="url(#paint19_linear_55_3756)"/>
<path d="M47.4381 51.5494C47.0652 51.6851 46.873 51.9676 46.873 52.3857C46.873 52.8717 47.1782 53.1655 47.6641 53.1655C48.1501 53.1655 48.4552 52.8717 48.4552 52.3857C48.4552 51.8094 47.9241 51.3686 47.4381 51.5494Z" fill="url(#paint20_linear_55_3756)"/>
<path d="M43.0985 54.1937C42.8838 54.3632 42.8047 54.5327 42.8047 54.804C42.8047 55.6968 43.9235 55.9793 44.3304 55.1882C44.5338 54.804 44.4208 54.4084 44.0252 54.1372C43.6862 53.8999 43.4602 53.9112 43.0985 54.1937Z" fill="url(#paint21_linear_55_3756)"/>
<path d="M38.6468 55.844C38.5112 55.957 38.3756 56.1831 38.3304 56.3526C38.2739 56.6012 38.3304 56.7255 38.6016 57.008C39.0084 57.4036 39.2797 57.4375 39.6865 57.1098C39.8899 56.9402 39.9804 56.7707 39.9804 56.5108C39.9804 55.8101 39.1667 55.4033 38.6468 55.844Z" fill="url(#paint22_linear_55_3756)"/>
<path d="M29.1416 56.7368C29.006 56.9063 28.9043 57.1211 28.9043 57.2341C28.9043 57.494 29.2998 57.9913 29.5824 58.0817C29.8423 58.1608 30.43 57.8782 30.5317 57.6296C30.8707 56.7255 29.718 56.0022 29.1416 56.7368Z" fill="url(#paint23_linear_55_3756)"/>
<path d="M33.9329 56.7255C33.7747 56.8724 33.6504 57.1324 33.6504 57.2906C33.6504 57.6635 34.125 58.1382 34.498 58.1382C34.8709 58.1382 35.3456 57.6635 35.3456 57.2906C35.3456 56.9176 34.8709 56.443 34.498 56.443C34.3398 56.443 34.0798 56.5673 33.9329 56.7255Z" fill="url(#paint24_linear_55_3756)"/>
<defs>
<linearGradient id="paint0_linear_55_3756" x1="23.6675" y1="12.1918" x2="29.5207" y2="18.2234" gradientUnits="userSpaceOnUse">
<stop stop-color="#D41700"/>
<stop offset="1" stop-color="#7F0011"/>
</linearGradient>
<linearGradient id="paint1_linear_55_3756" x1="22.6294" y1="12.5525" x2="36.1297" y2="26.2873" gradientUnits="userSpaceOnUse">
<stop stop-color="#D41700"/>
<stop offset="1" stop-color="#7F0011"/>
</linearGradient>
<linearGradient id="paint2_linear_55_3756" x1="15.811" y1="10.4612" x2="18.1778" y2="12.8478" gradientUnits="userSpaceOnUse">
<stop stop-color="#D41700"/>
<stop offset="1" stop-color="#7F0011"/>
</linearGradient>
<linearGradient id="paint3_linear_55_3756" x1="46.8909" y1="10.668" x2="49.2019" y2="13.1086" gradientUnits="userSpaceOnUse">
<stop stop-color="#D41700"/>
<stop offset="1" stop-color="#7F0011"/>
</linearGradient>
<linearGradient id="paint4_linear_55_3756" x1="12.3048" y1="13.6279" x2="14.6548" y2="16.0577" gradientUnits="userSpaceOnUse">
<stop stop-color="#D41700"/>
<stop offset="1" stop-color="#7F0011"/>
</linearGradient>
<linearGradient id="paint5_linear_55_3756" x1="50.3951" y1="13.8827" x2="52.7048" y2="16.3216" gradientUnits="userSpaceOnUse">
<stop stop-color="#D41700"/>
<stop offset="1" stop-color="#7F0011"/>
</linearGradient>
<linearGradient id="paint6_linear_55_3756" x1="9.43244" y1="17.449" x2="11.798" y2="19.8186" gradientUnits="userSpaceOnUse">
<stop stop-color="#D41700"/>
<stop offset="1" stop-color="#7F0011"/>
</linearGradient>
<linearGradient id="paint7_linear_55_3756" x1="53.2042" y1="17.6788" x2="55.5856" y2="20.1441" gradientUnits="userSpaceOnUse">
<stop stop-color="#D41700"/>
<stop offset="1" stop-color="#7F0011"/>
</linearGradient>
<linearGradient id="paint8_linear_55_3756" x1="7.32455" y1="21.6485" x2="9.67516" y2="24.0771" gradientUnits="userSpaceOnUse">
<stop stop-color="#D41700"/>
<stop offset="1" stop-color="#7F0011"/>
</linearGradient>
<linearGradient id="paint9_linear_55_3756" x1="55.2496" y1="21.9711" x2="57.5411" y2="24.4154" gradientUnits="userSpaceOnUse">
<stop stop-color="#D41700"/>
<stop offset="1" stop-color="#7F0011"/>
</linearGradient>
<linearGradient id="paint10_linear_55_3756" x1="5.9693" y1="26.2556" x2="8.27139" y2="28.7208" gradientUnits="userSpaceOnUse">
<stop stop-color="#D41700"/>
<stop offset="1" stop-color="#7F0011"/>
</linearGradient>
<linearGradient id="paint11_linear_55_3756" x1="56.5484" y1="26.5102" x2="58.8964" y2="28.9026" gradientUnits="userSpaceOnUse">
<stop stop-color="#D41700"/>
<stop offset="1" stop-color="#7F0011"/>
</linearGradient>
<linearGradient id="paint12_linear_55_3756" x1="5.51088" y1="30.9663" x2="7.7948" y2="33.4264" gradientUnits="userSpaceOnUse">
<stop stop-color="#D41700"/>
<stop offset="1" stop-color="#7F0011"/>
</linearGradient>
<linearGradient id="paint13_linear_55_3756" x1="56.9417" y1="31.2352" x2="59.3307" y2="33.6228" gradientUnits="userSpaceOnUse">
<stop stop-color="#D41700"/>
<stop offset="1" stop-color="#7F0011"/>
</linearGradient>
<linearGradient id="paint14_linear_55_3756" x1="5.98755" y1="35.6953" x2="8.29592" y2="38.1295" gradientUnits="userSpaceOnUse">
<stop stop-color="#D41700"/>
<stop offset="1" stop-color="#7F0011"/>
</linearGradient>
<linearGradient id="paint15_linear_55_3756" x1="56.4928" y1="35.9865" x2="58.7909" y2="38.3004" gradientUnits="userSpaceOnUse">
<stop stop-color="#D41700"/>
<stop offset="1" stop-color="#7F0011"/>
</linearGradient>
<linearGradient id="paint16_linear_55_3756" x1="7.3325" y1="40.2695" x2="9.63597" y2="42.5846" gradientUnits="userSpaceOnUse">
<stop stop-color="#D41700"/>
<stop offset="1" stop-color="#7F0011"/>
</linearGradient>
<linearGradient id="paint17_linear_55_3756" x1="55.1493" y1="40.497" x2="57.5337" y2="42.823" gradientUnits="userSpaceOnUse">
<stop stop-color="#D41700"/>
<stop offset="1" stop-color="#7F0011"/>
</linearGradient>
<linearGradient id="paint18_linear_55_3756" x1="52.9474" y1="44.7034" x2="55.3085" y2="47.0781" gradientUnits="userSpaceOnUse">
<stop stop-color="#D41700"/>
<stop offset="1" stop-color="#7F0011"/>
</linearGradient>
<linearGradient id="paint19_linear_55_3756" x1="50.0312" y1="48.5162" x2="52.2554" y2="50.9786" gradientUnits="userSpaceOnUse">
<stop stop-color="#D41700"/>
<stop offset="1" stop-color="#7F0011"/>
</linearGradient>
<linearGradient id="paint20_linear_55_3756" x1="46.5569" y1="51.6181" x2="48.8861" y2="53.9203" gradientUnits="userSpaceOnUse">
<stop stop-color="#D41700"/>
<stop offset="1" stop-color="#7F0011"/>
</linearGradient>
<linearGradient id="paint21_linear_55_3756" x1="42.48" y1="54.081" x2="44.8445" y2="56.4456" gradientUnits="userSpaceOnUse">
<stop stop-color="#D41700"/>
<stop offset="1" stop-color="#7F0011"/>
</linearGradient>
<linearGradient id="paint22_linear_55_3756" x1="37.9769" y1="55.7716" x2="40.3252" y2="58.2001" gradientUnits="userSpaceOnUse">
<stop stop-color="#D41700"/>
<stop offset="1" stop-color="#7F0011"/>
</linearGradient>
<linearGradient id="paint23_linear_55_3756" x1="28.5669" y1="56.5444" x2="30.8983" y2="58.9984" gradientUnits="userSpaceOnUse">
<stop stop-color="#D41700"/>
<stop offset="1" stop-color="#7F0011"/>
</linearGradient>
<linearGradient id="paint24_linear_55_3756" x1="33.3117" y1="56.5552" x2="35.693" y2="59.0206" gradientUnits="userSpaceOnUse">
<stop stop-color="#D41700"/>
<stop offset="1" stop-color="#7F0011"/>
</linearGradient>
</defs>
</svg>
