<svg width="65" height="65" viewBox="0 0 65 65" fill="none" xmlns="http://www.w3.org/2000/svg">
<path d="M21.2666 4.13251C19.8737 4.58065 18.6141 5.85241 18.1781 7.2695C17.4271 9.65555 18.5051 12.0537 20.8185 13.1317C21.4846 13.4466 21.7995 13.5071 22.6474 13.5435L23.6769 13.5677L23.9312 14.2096C24.0766 14.5609 24.234 14.8516 24.2825 14.8395C24.6095 14.8152 25.9297 14.2339 25.9297 14.1127C25.9297 14.028 25.8207 13.713 25.6875 13.3981L25.4452 12.8289L26.0508 12.296C26.608 11.7873 27.5043 10.2975 27.5043 9.87357C27.5043 9.72823 28.3521 9.704 32.4701 9.704C36.5882 9.704 37.436 9.72823 37.436 9.87357C37.436 10.2975 38.3323 11.7873 38.8895 12.2838L39.4951 12.8289L39.0106 13.9916L38.5382 15.1665L38.8047 15.2634C38.95 15.3239 39.3618 15.4814 39.7131 15.6267C40.3066 15.869 40.355 15.869 40.4277 15.6631C40.4761 15.5541 40.682 15.0332 40.8879 14.5124L41.2634 13.5677L42.2929 13.5435C43.1044 13.5071 43.4678 13.4345 44.0734 13.1559L44.8485 12.8168L48.7243 16.7047L52.6123 20.5805L52.2731 21.3557C51.9946 21.9613 51.9219 22.3246 51.8856 23.1361L51.8613 24.1656L48.4942 25.5101C46.6411 26.2489 45.0302 26.8908 44.9212 26.9393C44.7153 27.0119 44.7153 27.0604 44.9575 27.6539C45.1029 28.0051 45.2603 28.4169 45.3209 28.5623C45.4178 28.8166 45.5026 28.7924 49.015 27.3874L52.6123 25.9461L53.1452 26.5396C53.6418 27.0967 55.1316 27.993 55.5555 27.993C55.7008 27.993 55.725 28.8408 55.725 32.9589C55.725 37.077 55.7008 37.9248 55.5555 37.9248C55.1316 37.9248 53.6418 38.8211 53.1452 39.3782L52.6123 39.9717L51.2436 39.4267C50.4927 39.1239 49.8386 38.918 49.7781 38.9785C49.6812 39.0875 49.0514 40.6136 49.0998 40.65C49.1119 40.6621 49.7418 40.9164 50.4927 41.2192L51.8613 41.7522L51.8856 42.7817C51.9219 43.5932 51.9946 43.9565 52.2731 44.5621L52.6123 45.3252L51.6554 46.2941L50.6986 47.251L51.4011 47.9414L52.1157 48.6196L53.0604 47.6749L54.0173 46.7302L54.7803 47.0814C55.4465 47.3842 55.6887 47.4327 56.7061 47.4327C57.7962 47.4327 57.9052 47.4084 58.7773 46.9845C59.8794 46.4395 60.5577 45.737 61.0906 44.6106C61.4419 43.8718 61.4782 43.6901 61.4782 42.6484C61.4782 41.6068 61.4419 41.4251 61.0906 40.6863C60.5819 39.5962 59.8794 38.8695 58.8378 38.3487C58.3776 38.1186 57.9173 37.9248 57.8325 37.9248C57.6872 37.9248 57.663 37.077 57.663 32.9589C57.663 28.8408 57.6872 27.993 57.8325 27.993C57.9173 27.993 58.3776 27.7992 58.8378 27.5691C59.8794 27.0483 60.5819 26.3216 61.0906 25.2315C61.4419 24.4927 61.4782 24.311 61.4782 23.2694C61.4782 22.2277 61.4419 22.0461 61.0906 21.3072C60.5577 20.1808 59.8794 19.4783 58.7773 18.9333C57.9052 18.5094 57.7962 18.4851 56.7061 18.4851C55.6887 18.4851 55.4465 18.5336 54.7803 18.8364L54.0051 19.1876L50.1293 15.2997L46.2414 11.4239L46.5927 10.6487C46.8954 9.98257 46.9439 9.74034 46.9439 8.72293C46.9439 7.63286 46.9197 7.52385 46.4958 6.65179C45.9507 5.54961 45.2482 4.87134 44.1218 4.33842C43.383 3.98717 43.2013 3.95083 42.1597 3.95083C41.1181 3.95083 40.9364 3.98717 40.1976 4.33842C39.1075 4.84712 38.3808 5.54961 37.86 6.59124C37.6298 7.05149 37.436 7.51174 37.436 7.59652C37.436 7.74187 36.5882 7.76609 32.4701 7.76609C28.5822 7.76609 27.5043 7.72976 27.5043 7.60863C27.5043 7.29373 26.7775 5.9493 26.3536 5.48905C25.094 4.08406 23.0955 3.55114 21.2666 4.13251ZM23.6769 5.97353C24.343 6.16732 25.3483 7.17261 25.5421 7.83876C25.8813 8.97728 25.639 9.88568 24.7791 10.7335C24.1614 11.3633 23.5437 11.6419 22.7806 11.6419C21.2787 11.6419 19.8737 10.2369 19.8737 8.73505C19.8737 7.97199 20.1523 7.35429 20.7821 6.73658C21.63 5.87663 22.5384 5.6465 23.6769 5.97353ZM43.056 5.97353C44.0976 6.28844 45.0665 7.62075 45.0665 8.73505C45.0665 10.2369 43.6616 11.6419 42.1597 11.6419C41.3966 11.6419 40.7789 11.3633 40.1612 10.7335C38.9258 9.51021 38.9258 7.95988 40.1612 6.73658C41.0091 5.87663 41.9174 5.6465 43.056 5.97353ZM57.5903 20.5078C58.6319 20.8228 59.6009 22.1551 59.6009 23.2694C59.6009 24.7712 58.1959 26.1762 56.694 26.1762C55.931 26.1762 55.3132 25.8976 54.6955 25.2678C53.4601 24.0445 53.4601 22.4942 54.6955 21.2709C55.5434 20.4109 56.4518 20.1808 57.5903 20.5078ZM57.5903 39.8869C58.6319 40.2018 59.6009 41.5342 59.6009 42.6484C59.6009 44.1503 58.1959 45.5553 56.694 45.5553C55.1921 45.5553 53.7871 44.1503 53.7871 42.6484C53.7871 41.8854 54.0657 41.2677 54.6955 40.65C55.5434 39.79 56.4518 39.5599 57.5903 39.8869Z" fill="#878787"/>
<path d="M13.9155 16.2079L10.936 19.1875L10.1608 18.8362C9.49463 18.5334 9.25239 18.485 8.23499 18.485C7.14492 18.485 7.03591 18.5092 6.16385 18.9331C5.06167 19.4782 4.3834 20.1806 3.85047 21.3071C3.49923 22.0459 3.46289 22.2276 3.46289 23.2692C3.46289 24.3108 3.49923 24.4925 3.85047 25.2313C4.35917 26.3214 5.06167 27.0481 6.10329 27.5689C6.56354 27.799 7.0238 27.9928 7.10858 27.9928C7.25392 27.9928 7.27815 28.8407 7.27815 32.9587C7.27815 37.0768 7.25392 37.9246 7.10858 37.9246C7.0238 37.9246 6.56354 38.1184 6.10329 38.3485C5.06167 38.8694 4.35917 39.5961 3.85047 40.6861C3.49923 41.425 3.46289 41.6066 3.46289 42.6604C3.46289 43.7505 3.48711 43.8595 3.91103 44.7315C4.45607 45.8337 5.15856 46.512 6.28497 47.0449C7.0238 47.3961 7.20548 47.4325 8.2471 47.4325C9.25239 47.4325 9.49463 47.384 10.1608 47.0812L10.936 46.73L14.8118 50.6179L18.6997 54.4937L18.3485 55.2689C18.0457 55.9351 17.9972 56.1773 17.9972 57.1947C17.9972 58.2848 18.0214 58.3938 18.4575 59.2658C18.9904 60.368 19.6929 61.0342 20.8435 61.5913C21.5581 61.9305 21.7398 61.9668 22.7814 61.9668C23.823 61.9668 24.0047 61.9305 24.7435 61.5792C25.8336 61.0705 26.5603 60.368 27.0812 59.3264C27.3113 58.8661 27.5051 58.4059 27.5051 58.3211C27.5051 58.1758 28.3529 58.1515 32.471 58.1515C36.589 58.1515 37.4368 58.1758 37.4368 58.3211C37.4368 58.4059 37.6306 58.8661 37.8608 59.3264C38.3816 60.368 39.1083 61.0705 40.1984 61.5792C40.9372 61.9305 41.1189 61.9668 42.1605 61.9668C43.2021 61.9668 43.3838 61.9305 44.1226 61.5792C45.249 61.0463 45.9515 60.368 46.4966 59.2658C46.9205 58.3938 46.9447 58.2848 46.9447 57.1947C46.9447 56.1773 46.8963 55.9351 46.5935 55.2689L46.2422 54.5058L48.3497 52.3863L50.4572 50.2788L49.7547 49.5884L49.0643 48.8859L46.9568 50.9934L44.8372 53.1009L44.0742 52.7496C43.408 52.4468 43.1658 52.3984 42.1605 52.3984C41.1189 52.3984 40.9372 52.4347 40.1984 52.786C39.1083 53.2947 38.3816 53.9971 37.8608 55.0388C37.6306 55.499 37.4368 55.9593 37.4368 56.0441C37.4368 56.1894 36.589 56.2136 32.471 56.2136C28.3529 56.2136 27.5051 56.1894 27.5051 56.0441C27.5051 55.6201 26.6088 54.1304 26.0516 53.6217L25.446 53.0888L25.6883 52.5195C25.8215 52.2046 25.9305 51.8897 25.9305 51.8049C25.9305 51.6717 24.5134 51.0661 24.2712 51.0903C24.2227 51.1024 24.0653 51.381 23.9199 51.7201L23.6777 52.3499L22.6482 52.3741C21.8367 52.4105 21.4733 52.4832 20.8677 52.7617L20.0926 53.1009L16.2168 49.2129L12.3288 45.3371L12.668 44.562C12.9465 43.9564 13.0192 43.593 13.0555 42.7815L13.0798 41.752L16.4469 40.4076C18.3 39.6687 19.9109 39.0268 20.0199 38.9784C20.2258 38.9057 20.2258 38.8572 19.9836 38.2638C19.8382 37.9125 19.6808 37.5007 19.6202 37.3554C19.5233 37.101 19.4385 37.1252 15.9261 38.5302L12.3288 39.9715L11.7959 39.378C11.2993 38.8209 9.80954 37.9246 9.38562 37.9246C9.24028 37.9246 9.21606 37.0768 9.21606 32.9587C9.21606 28.8407 9.24028 27.9928 9.38562 27.9928C9.80954 27.9928 11.2993 27.0966 11.7959 26.5394L12.3288 25.9459L15.9261 27.3872C19.4385 28.7922 19.5233 28.8164 19.6202 28.5621C19.6808 28.4168 19.8382 28.005 19.9836 27.6537C20.2258 27.0602 20.2258 27.0118 20.0199 26.9391C19.9109 26.8907 18.3 26.2487 16.4469 25.5099L13.0798 24.1655L13.0555 23.136C13.0192 22.3245 12.9465 21.9611 12.668 21.3555L12.3288 20.5924L15.3084 17.6008L18.3 14.6092L17.6338 13.9067C17.2826 13.5312 16.9677 13.2163 16.9435 13.2163C16.9192 13.2163 15.5627 14.5607 13.9155 16.2079ZM9.14338 20.5077C10.185 20.8226 11.154 22.1549 11.154 23.2692C11.154 24.7711 9.74898 26.176 8.2471 26.176C7.48405 26.176 6.86634 25.8975 6.24863 25.2677C5.01322 24.0443 5.01322 22.494 6.24863 21.2707C7.09647 20.4108 8.00486 20.1806 9.14338 20.5077ZM9.14338 39.8868C9.80954 40.0805 10.8148 41.0858 11.0086 41.752C11.3478 42.8905 11.1055 43.7989 10.2456 44.6467C9.02227 45.8822 7.47194 45.8822 6.24863 44.6467C5.01322 43.4234 5.01322 41.8731 6.24863 40.6498C7.09647 39.7899 8.00486 39.5597 9.14338 39.8868ZM23.6777 54.4211C24.7193 54.736 25.6883 56.0683 25.6883 57.1826C25.6883 58.6845 24.2833 60.0894 22.7814 60.0894C21.2795 60.0894 19.8746 58.6845 19.8746 57.1826C19.8746 56.4195 20.1531 55.8018 20.7829 55.1841C21.6308 54.3242 22.5392 54.094 23.6777 54.4211ZM43.0568 54.4211C44.0984 54.736 45.0674 56.0683 45.0674 57.1826C45.0674 58.6845 43.6624 60.0894 42.1605 60.0894C40.6586 60.0894 39.2536 58.6845 39.2536 57.1826C39.2536 56.4195 39.5322 55.8018 40.162 55.1841C41.0099 54.3242 41.9183 54.094 43.0568 54.4211Z" fill="#878787"/>
<path d="M24.7666 16.5955C24.1853 16.7409 23.1558 17.3464 22.8287 17.734C22.6592 17.9399 22.3806 18.376 22.211 18.7151C21.9325 19.2601 21.884 19.5145 21.8356 20.8105L21.7871 22.3002H22.7561H23.725L23.7735 20.98C23.8098 19.5508 23.9188 19.2722 24.6455 18.7393C24.9241 18.5213 25.1906 18.485 26.4744 18.4486L27.9763 18.4002L28.4002 19.2601C28.6425 19.7325 28.9453 20.1685 29.0664 20.2412C29.2117 20.3139 30.5077 20.3623 32.4698 20.3623C34.432 20.3623 35.7279 20.3139 35.8733 20.2412C35.9944 20.1685 36.2972 19.7325 36.5273 19.2722L36.9512 18.4244H38.2836C39.846 18.4244 40.282 18.5576 40.7786 19.2238L41.1299 19.6719L41.1662 28.5136L41.1904 37.3554L40.1246 36.3258C38.9982 35.2479 38.3441 34.8966 37.4357 34.8966C35.8612 34.8966 34.4077 36.3501 34.4077 37.9246C34.4077 38.9541 34.7226 39.4628 36.4062 41.1948L37.9929 42.8299L37.7022 43.6172C37.0966 45.216 37.2177 47.3598 37.9808 49.0555C38.1503 49.4067 38.2836 49.8549 38.2836 50.0487V50.3999H39.2525H40.2215V49.8064C40.2215 49.3704 40.1003 48.9586 39.7733 48.2682C39.3252 47.3356 39.3131 47.275 39.3131 45.9669C39.3131 44.6588 39.3252 44.5983 39.7733 43.7262C40.0156 43.2296 40.2215 42.6967 40.2215 42.5393C40.2215 42.3212 39.7007 41.7278 38.2836 40.2864C36.5879 38.5665 36.3456 38.2759 36.3456 37.9367C36.3456 37.3917 36.9149 36.8345 37.4478 36.8345C37.8112 36.8345 38.1261 37.1131 40.5848 39.5597C42.0867 41.0616 43.3706 42.2849 43.4311 42.2849C43.5886 42.2849 44.7029 41.1464 44.7029 41.001C44.7029 40.9405 44.3516 40.5287 43.9156 40.1048L43.1283 39.3296V35.8656V32.4137L44.2184 33.5038C44.933 34.2063 45.4296 34.8361 45.6476 35.26L45.9746 35.9261L46.011 41.7156L46.0473 47.493H47.0041H47.9731V41.9216C47.9731 38.3485 47.9247 36.132 47.8399 35.7202C47.5492 34.3395 47.0768 33.637 45.042 31.5659L43.1404 29.6158L43.1041 24.4804L43.0678 19.3328L42.7407 18.7151C42.2563 17.7946 41.8929 17.4191 41.0451 16.9589L40.282 16.5471L32.7121 16.5228C28.5456 16.5107 24.9725 16.5471 24.7666 16.5955Z" fill="#878787"/>
<path d="M21.8367 35.8894L21.8731 47.5532L22.2001 48.1709C22.6846 49.0914 23.0479 49.4669 23.8958 49.9271L24.6588 50.3389L30.5089 50.3753L36.3468 50.4116V49.4427V48.4737L30.6784 48.4374L24.9979 48.401L24.5498 48.0498C23.702 47.4079 23.7504 48.0982 23.7504 35.5624V24.2377H22.7815H21.8125L21.8367 35.8894Z" fill="#878787"/>
<path d="M31.1984 26.261C29.7328 26.4669 27.8918 27.2542 26.7533 28.1747C26.3657 28.4896 26.0508 28.7803 26.0508 28.8287C26.0508 28.8772 26.3415 29.2042 26.7048 29.5554L27.371 30.2095L27.8918 29.7613C28.994 28.8166 30.9319 28.1141 32.4701 28.1141C34.0083 28.1141 35.9462 28.8166 37.0484 29.7613L37.5813 30.2095L38.2596 29.5191L38.95 28.8287L38.4655 28.4048C36.576 26.7576 33.7176 25.9097 31.1984 26.261Z" fill="url(#paint0_linear_55_3789)"/>
<path d="M31.1997 29.9912C30.8727 30.088 30.5578 30.1607 30.5214 30.1728C30.3761 30.1728 28.959 31.166 28.959 31.2508C28.959 31.3719 30.1217 32.5952 30.2307 32.5952C30.2792 32.5952 30.473 32.4862 30.6547 32.353C31.1391 32.0138 31.9264 31.7474 32.4714 31.7474C33.0165 31.7474 33.8038 32.0138 34.2882 32.353C34.4699 32.4862 34.6637 32.5952 34.7122 32.5952C34.809 32.5952 35.9839 31.3719 35.9839 31.2629C35.9839 31.1054 34.7243 30.3061 34.1671 30.1002C33.392 29.8337 31.9385 29.7731 31.1997 29.9912Z" fill="url(#paint1_linear_55_3789)"/>
<path d="M27.625 36.8348V37.8037H28.594H29.5629V36.8348V35.8658H28.594H27.625V36.8348Z" fill="url(#paint2_linear_55_3789)"/>
<path d="M31.502 36.8348V37.8037H32.4709H33.4399V36.8348V35.8658H32.4709H31.502V36.8348Z" fill="url(#paint3_linear_55_3789)"/>
<path d="M30.5332 45.5555V46.5244H32.4711H34.409V45.5555V44.5865H32.4711H30.5332V45.5555Z" fill="url(#paint4_linear_55_3789)"/>
<defs>
<linearGradient id="paint0_linear_55_3789" x1="23.4733" y1="26.4492" x2="26.6025" y2="36.8261" gradientUnits="userSpaceOnUse">
<stop stop-color="#D41700"/>
<stop offset="1" stop-color="#7F0011"/>
</linearGradient>
<linearGradient id="paint1_linear_55_3789" x1="27.5553" y1="30.0397" x2="30.0913" y2="36.7789" gradientUnits="userSpaceOnUse">
<stop stop-color="#D41700"/>
<stop offset="1" stop-color="#7F0011"/>
</linearGradient>
<linearGradient id="paint2_linear_55_3789" x1="27.2378" y1="35.9941" x2="29.9601" y2="38.8124" gradientUnits="userSpaceOnUse">
<stop stop-color="#D41700"/>
<stop offset="1" stop-color="#7F0011"/>
</linearGradient>
<linearGradient id="paint3_linear_55_3789" x1="31.1147" y1="35.9941" x2="33.837" y2="38.8124" gradientUnits="userSpaceOnUse">
<stop stop-color="#D41700"/>
<stop offset="1" stop-color="#7F0011"/>
</linearGradient>
<linearGradient id="paint4_linear_55_3789" x1="29.7588" y1="44.7148" x2="31.8922" y2="49.1323" gradientUnits="userSpaceOnUse">
<stop stop-color="#D41700"/>
<stop offset="1" stop-color="#7F0011"/>
</linearGradient>
</defs>
</svg>
