<svg width="65" height="65" viewBox="0 0 65 65" fill="none" xmlns="http://www.w3.org/2000/svg">
<path d="M5.23468 3.41813C4.63785 3.61301 3.61471 4.66051 3.43201 5.2817C3.21277 6.01251 3.21277 58.972 3.43201 59.7028C3.62689 60.3727 4.63785 61.3837 5.30776 61.5786C6.01421 61.7857 33.6633 61.7857 34.3697 61.5786C34.9666 61.3959 35.8313 60.6529 36.1237 60.0561C36.3307 59.6419 36.3551 59.1791 36.416 55.2692L36.4769 50.9453L37.5488 50.8478C38.9008 50.726 41.081 50.1779 42.4817 49.5933C47.4391 47.547 51.3733 43.3083 53.0176 38.217C53.6875 36.1829 53.8946 34.7943 53.8946 32.4923C53.8946 29.4716 53.3343 26.9746 52.0676 24.3924C49.327 18.7652 43.5171 14.6726 37.5122 14.1367L36.4769 14.0393L36.416 9.71529C36.3551 5.80545 36.3307 5.3426 36.1237 4.92847C35.8313 4.33165 34.9666 3.58865 34.3697 3.40595C33.712 3.21107 5.86805 3.22325 5.23468 3.41813ZM8.64514 6.30484C8.96182 7.59594 9.36377 8.21713 10.192 8.70434L10.7767 9.04538H19.8509H28.9252L29.4733 8.74088C30.3015 8.27803 30.74 7.60812 31.0567 6.31702L31.3247 5.20862H32.6036C33.7851 5.20862 33.8947 5.23298 34.1748 5.51313L34.4672 5.80545L34.4428 9.92236L34.4063 14.0393L33.5415 14.1123C30.6304 14.3803 27.7072 15.4278 25.0762 17.1818C23.5293 18.1927 21.1177 20.5922 20.1067 22.1269C18.6694 24.295 17.695 26.7189 17.22 29.2645C16.9033 30.9454 16.9033 34.0392 17.22 35.72C18.0604 40.2876 20.5087 44.2949 24.1505 47.1207C26.9642 49.3009 30.5208 50.6773 33.98 50.9209L34.4063 50.9453L34.4428 55.0622L34.4672 59.1791L34.1748 59.4714L33.8703 59.7759H19.8509H5.83151L5.53919 59.4714L5.23468 59.1791V32.4923V5.80545L5.53919 5.51313C5.80715 5.23298 5.91677 5.20862 7.09825 5.20862H8.37717L8.64514 6.30484ZM29.1566 5.90289C29.047 6.34138 28.8521 6.71896 28.6694 6.87731L28.3649 7.15745H19.8509H11.337L11.0325 6.87731C10.8498 6.71896 10.6549 6.34138 10.5452 5.90289L10.3747 5.20862H19.8509H29.3271L29.1566 5.90289ZM36.6718 16.2317C37.8045 16.8164 38.9617 18.1805 39.8386 20.0076C40.4355 21.2378 40.9348 22.6628 40.813 22.7846C40.6669 22.9308 38.4257 23.4667 37.3661 23.6007C36.0871 23.7591 34.796 23.7591 33.4927 23.6007C32.4452 23.4667 30.2163 22.9308 30.0579 22.7725C29.8509 22.5532 31.0689 19.7152 31.9093 18.485C32.835 17.1209 33.5658 16.4631 34.5524 16.0977C35.1249 15.8907 36.1115 15.9516 36.6718 16.2317ZM30.7278 16.8042C30.6791 16.8894 30.4355 17.267 30.1919 17.6324C29.6073 18.5216 28.8399 20.0563 28.4989 21.0429C28.3405 21.4814 28.1822 21.8711 28.1456 21.9199C27.9995 22.0904 24.857 20.0685 24.8448 19.8127C24.8448 19.7761 25.3077 19.4107 25.8801 18.9966C27.6097 17.7664 31.1298 16.183 30.7278 16.8042ZM41.6535 17.1574C42.1529 17.3645 42.9202 17.7177 43.3587 17.9613C44.2235 18.4363 46.0384 19.6909 46.0384 19.8127C46.0384 20.0563 42.8837 22.0782 42.7497 21.932C42.701 21.8711 42.5426 21.4814 42.3843 21.0429C42.0432 20.0563 41.2759 18.5216 40.6912 17.6324C40.4476 17.267 40.204 16.8894 40.1431 16.792C40.0092 16.5727 40.4233 16.6702 41.6535 17.1574ZM25.1249 22.4801C25.6 22.809 26.343 23.2597 26.7693 23.4789C27.1834 23.686 27.5488 23.9052 27.5732 23.9539C27.5975 23.9905 27.5123 24.5142 27.3905 25.1232C27.1225 26.4143 26.8424 28.6677 26.7327 30.3242L26.6475 31.5179H22.7864H18.9252L19.0227 30.58C19.3637 27.3766 20.9715 23.7591 22.9934 21.6275L23.4197 21.1769L23.8338 21.5301C24.0531 21.725 24.6377 22.1513 25.1249 22.4801ZM48.718 22.6263C50.4354 24.9649 51.5682 27.8151 51.8605 30.58L51.9579 31.5179H48.0846C44.4306 31.5179 44.2113 31.5057 44.2113 31.2986C44.2113 29.9222 43.5658 24.8796 43.2978 24.1854C43.2369 24.0392 43.4074 23.8809 44.053 23.5276C45.0883 22.9552 46.9031 21.7372 47.1955 21.4083C47.4147 21.1647 47.4269 21.1647 47.7801 21.4935C47.975 21.6884 48.3891 22.1878 48.718 22.6263ZM31.1176 25.1232C34.2114 25.8662 36.9154 25.8541 40.0092 25.0623C40.7521 24.8796 41.3855 24.7578 41.4342 24.8066C41.6291 25.0014 42.2625 29.8857 42.2625 31.2864C42.2625 31.5057 42.0067 31.5179 35.4416 31.5179C28.8764 31.5179 28.6207 31.5057 28.6207 31.2864C28.6207 29.9953 29.2297 25.1111 29.4367 24.7822C29.4733 24.7213 29.5829 24.7213 29.7047 24.7578C29.8143 24.8066 30.4477 24.9649 31.1176 25.1232ZM26.7327 34.6482C26.8424 36.3169 27.1225 38.5702 27.3905 39.8613C27.5123 40.4581 27.5975 40.994 27.5732 41.0306C27.5488 41.0793 27.1834 41.2986 26.7693 41.5056C25.8801 41.9685 24.4185 42.9429 23.8338 43.4545L23.4197 43.8077L22.9934 43.357C20.9715 41.2255 19.3637 37.608 19.0227 34.4046L18.9252 33.4667H22.7864H26.6475L26.7327 34.6482ZM42.2625 33.6981C42.2625 35.0988 41.6291 39.9831 41.4342 40.178C41.3855 40.2267 40.7521 40.1049 40.0092 39.9222C36.8301 39.1183 34.053 39.1183 30.874 39.9222C30.1432 40.1049 29.4976 40.2267 29.4489 40.178C29.254 39.9831 28.6207 35.0988 28.6207 33.6981C28.6207 33.4789 28.8764 33.4667 35.4416 33.4667C42.0067 33.4667 42.2625 33.4789 42.2625 33.6981ZM51.8605 34.4046C51.5194 37.608 49.9117 41.2255 47.8897 43.357L47.4634 43.8077L47.0493 43.4545C46.5134 42.9794 45.0761 42.0294 44.053 41.4569C43.4074 41.1037 43.2369 40.9453 43.2978 40.7992C43.5658 40.1049 44.2113 35.0623 44.2113 33.6859C44.2113 33.4789 44.4306 33.4667 48.0846 33.4667H51.9579L51.8605 34.4046ZM37.4757 41.396C38.4135 41.5178 40.0213 41.8954 40.6182 42.1146L40.9227 42.2243L40.5451 43.2961C39.388 46.5726 37.5488 48.765 35.7704 49.0086C34.1748 49.2279 32.4331 47.7784 31.1054 45.0988C30.5451 43.9538 29.9483 42.3582 30.0336 42.2243C30.1067 42.0903 31.9946 41.6031 33.0664 41.4447C34.2966 41.2498 36.2455 41.2255 37.4757 41.396ZM28.4989 43.9417C28.8399 44.9283 29.6073 46.463 30.1919 47.3521C30.4355 47.7175 30.6791 48.0951 30.74 48.1925C30.8253 48.3265 30.7766 48.3387 30.4964 48.2778C29.7778 48.0951 28.2918 47.4496 27.3417 46.9014C26.343 46.329 24.8448 45.2815 24.8448 45.1719C24.857 44.9161 27.9995 42.9063 28.1456 43.0647C28.1822 43.1134 28.3405 43.5032 28.4989 43.9417ZM45.1005 44.4045C45.612 44.7699 46.0384 45.111 46.0384 45.1597C46.0384 45.3302 44.053 46.6578 42.9446 47.2303C41.824 47.7906 40.2284 48.3996 40.131 48.3022C40.0944 48.2778 40.2649 47.9855 40.4964 47.6688C41.2272 46.6335 42.092 44.8552 42.6888 43.1134C42.7619 42.9063 43.7241 43.4179 45.1005 44.4045Z" fill="#878787"/>
<path d="M7.18359 56.8527V57.8271H8.15801H9.13243V56.8527V55.8783H8.15801H7.18359V56.8527Z" fill="#878787"/>
<path d="M11.0801 56.8527V57.8271H19.8498H28.6196V56.8527V55.8783H19.8498H11.0801V56.8527Z" fill="#878787"/>
<path d="M30.5684 56.8527V57.8271H31.5428H32.5172V56.8527V55.8783H31.5428H30.5684V56.8527Z" fill="#878787"/>
<path d="M40.8622 8.52169C40.6064 9.45957 40.3993 10.3122 40.3872 10.4096C40.375 10.5436 40.6186 10.6654 41.1667 10.8238C41.6052 10.9456 42.0193 11.043 42.0802 11.0552C42.1533 11.0552 42.4212 10.2756 42.6649 9.31341C43.1155 7.62036 43.1764 7.27931 43.0546 7.27931C43.0181 7.27931 42.6161 7.16969 42.1533 7.04789L41.325 6.81647L40.8622 8.52169Z" fill="url(#paint0_linear_55_3725)"/>
<path d="M47.2454 10.105C46.9653 10.5922 46.5268 11.3474 46.271 11.7859L45.8203 12.5776L46.4415 12.9674C47.0749 13.3693 47.489 13.552 47.5499 13.4668C47.5743 13.4546 48.0006 12.7116 48.5121 11.8224C49.1699 10.6653 49.3891 10.1903 49.2917 10.105C49.2064 10.0441 48.8288 9.82488 48.4512 9.60563L47.757 9.21587L47.2454 10.105Z" fill="url(#paint1_linear_55_3725)"/>
<path d="M51.9453 14.5876L50.6055 15.9274L51.3119 16.6217L52.0062 17.3281L53.3704 15.9639L54.7467 14.5876L54.0768 13.9177C53.7114 13.5523 53.3826 13.2478 53.346 13.2478C53.3095 13.2478 52.6761 13.8568 51.9453 14.5876Z" fill="url(#paint2_linear_55_3725)"/>
<path d="M56.0614 19.4473C55.1722 19.9589 54.4414 20.4218 54.4414 20.4827C54.4414 20.5436 54.6485 20.9455 54.8921 21.3596L55.3427 22.1392L55.8909 21.8103C56.2075 21.6398 56.9627 21.2013 57.5839 20.8359L58.7045 20.1781L58.3756 19.5691C57.7057 18.3877 57.8762 18.3998 56.0614 19.4473Z" fill="url(#paint3_linear_55_3725)"/>
<path d="M58.5228 25.2819C57.658 25.5255 56.9151 25.7325 56.8907 25.7447C56.8298 25.7934 57.2561 27.4134 57.3535 27.523C57.4144 27.5961 61.0076 26.7191 61.0929 26.6095C61.105 26.5973 60.9954 26.1832 60.8736 25.696C60.5813 24.6485 60.7275 24.6729 58.5228 25.2819Z" fill="url(#paint4_linear_55_3725)"/>
<path d="M57.8535 32.4924V33.4668H59.8023H61.7512V32.4924V31.518H59.8023H57.8535V32.4924Z" fill="url(#paint5_linear_55_3725)"/>
<path d="M57.3041 37.5102C57.1336 38.0583 56.8534 39.2033 56.89 39.2398C56.9996 39.3251 60.544 40.202 60.5806 40.1533C60.6536 40.0802 61.1409 38.3385 61.08 38.3385C61.0556 38.3385 60.2273 38.1192 59.2407 37.8513C58.242 37.5833 57.4137 37.3641 57.4015 37.3641C57.3772 37.3641 57.3406 37.4371 57.3041 37.5102Z" fill="url(#paint6_linear_55_3725)"/>
<path d="M54.8921 43.6249C54.6485 44.0391 54.4414 44.441 54.4414 44.5019C54.4414 44.5628 55.1844 45.0378 56.0857 45.5494L57.7301 46.4751L58.1685 45.7321C58.4243 45.318 58.6436 44.9404 58.6679 44.8917C58.7045 44.8186 58.0589 44.4288 55.8909 43.1743L55.3427 42.8454L54.8921 43.6249Z" fill="url(#paint7_linear_55_3725)"/>
<path d="M51.2754 48.3874L50.6055 49.0573L51.9818 50.4337L53.346 51.7979L54.0403 51.0914L54.7467 50.3971L53.4069 49.0573C52.6761 48.3265 52.0427 47.7175 52.0062 47.7175C51.9697 47.7175 51.6408 48.022 51.2754 48.3874Z" fill="url(#paint8_linear_55_3725)"/>
<path d="M46.5875 51.9319C46.1855 52.1755 45.8445 52.3825 45.8323 52.3947C45.8201 52.4069 46.2464 53.1499 46.7702 54.0512C47.3426 55.0378 47.7933 55.6834 47.8907 55.659C47.976 55.6346 48.3658 55.4276 48.7434 55.1962L49.4376 54.7698L48.4997 53.1377C47.9882 52.2364 47.5132 51.4934 47.4401 51.4934C47.3792 51.4934 46.9894 51.6883 46.5875 51.9319Z" fill="url(#paint9_linear_55_3725)"/>
<path d="M41.1058 54.1729C40.6064 54.319 40.375 54.4408 40.3872 54.5748C40.3994 54.6723 40.6064 55.5249 40.8622 56.4627L41.3251 58.168L42.1533 57.9365C42.6162 57.8147 43.0181 57.7051 43.0546 57.7051C43.1764 57.7051 43.1155 57.3641 42.6649 55.6588C42.1655 53.7344 42.2629 53.8318 41.1058 54.1729Z" fill="url(#paint10_linear_55_3725)"/>
<defs>
<linearGradient id="paint0_linear_55_3725" x1="39.8427" y1="7.09714" x2="45.337" y2="10.7509" gradientUnits="userSpaceOnUse">
<stop stop-color="#D41700"/>
<stop offset="1" stop-color="#7F0011"/>
</linearGradient>
<linearGradient id="paint1_linear_55_3725" x1="45.1223" y1="9.49871" x2="51.044" y2="14.5127" gradientUnits="userSpaceOnUse">
<stop stop-color="#D41700"/>
<stop offset="1" stop-color="#7F0011"/>
</linearGradient>
<linearGradient id="paint2_linear_55_3725" x1="49.778" y1="13.5179" x2="55.5063" y2="19.5369" gradientUnits="userSpaceOnUse">
<stop stop-color="#D41700"/>
<stop offset="1" stop-color="#7F0011"/>
</linearGradient>
<linearGradient id="paint3_linear_55_3725" x1="53.5896" y1="18.9015" x2="58.3247" y2="24.9287" gradientUnits="userSpaceOnUse">
<stop stop-color="#D41700"/>
<stop offset="1" stop-color="#7F0011"/>
</linearGradient>
<linearGradient id="paint4_linear_55_3725" x1="56.0437" y1="25.0357" x2="59.3844" y2="30.4912" gradientUnits="userSpaceOnUse">
<stop stop-color="#D41700"/>
<stop offset="1" stop-color="#7F0011"/>
</linearGradient>
<linearGradient id="paint5_linear_55_3725" x1="57.0747" y1="31.647" x2="59.2202" y2="36.0894" gradientUnits="userSpaceOnUse">
<stop stop-color="#D41700"/>
<stop offset="1" stop-color="#7F0011"/>
</linearGradient>
<linearGradient id="paint6_linear_55_3725" x1="56.0478" y1="37.5489" x2="59.6154" y2="43.1045" gradientUnits="userSpaceOnUse">
<stop stop-color="#D41700"/>
<stop offset="1" stop-color="#7F0011"/>
</linearGradient>
<linearGradient id="paint7_linear_55_3725" x1="53.5966" y1="43.0857" x2="58.6103" y2="49.1319" gradientUnits="userSpaceOnUse">
<stop stop-color="#D41700"/>
<stop offset="1" stop-color="#7F0011"/>
</linearGradient>
<linearGradient id="paint8_linear_55_3725" x1="49.778" y1="47.9877" x2="55.5063" y2="54.0066" gradientUnits="userSpaceOnUse">
<stop stop-color="#D41700"/>
<stop offset="1" stop-color="#7F0011"/>
</linearGradient>
<linearGradient id="paint9_linear_55_3725" x1="45.1116" y1="51.7693" x2="50.9325" y2="56.9845" gradientUnits="userSpaceOnUse">
<stop stop-color="#D41700"/>
<stop offset="1" stop-color="#7F0011"/>
</linearGradient>
<linearGradient id="paint10_linear_55_3725" x1="39.8427" y1="54.256" x2="45.2974" y2="57.9261" gradientUnits="userSpaceOnUse">
<stop stop-color="#D41700"/>
<stop offset="1" stop-color="#7F0011"/>
</linearGradient>
</defs>
</svg>
