<svg width="242" height="626" viewBox="0 0 242 626" fill="none" xmlns="http://www.w3.org/2000/svg">
<path d="M-237.611 489.262L-165.759 447.899L-0.589858 543.006L92.638 489.172L-72.3519 393.886L0.21858 352.882L236.521 489.172L-0.589858 626L-237.701 489.172L-237.611 489.262ZM242 397.026V479.571L4.88885 342.923V282.18L76.7407 240.728V301.291L242 396.667V397.026ZM242 145.8V383.029L170.148 341.577V187.253L242 145.8V145.8ZM236.611 136.828L164.759 178.28L-0.499955 82.9941L-93.7278 136.828L71.3519 232.204L-1.21849 273.208L-237.611 136.738L-0.589858 0L236.611 136.738V136.828ZM-243 229.064V145.8L-5.8889 282.629V343.371L-77.7407 384.824V324.081L-243 228.795V229.064ZM-243 241.356L-171.148 285.589V438.927L-243 480.289V241.087V241.356Z" fill="url(#paint0_linear_55_4199)"/>
<defs>
<linearGradient id="paint0_linear_55_4199" x1="-339.91" y1="584.548" x2="519.023" y2="-104.395" gradientUnits="userSpaceOnUse">
<stop stop-color="#D41700"/>
<stop offset="1" stop-color="#7F0011"/>
</linearGradient>
</defs>
</svg>
