<svg width="65" height="65" viewBox="0 0 65 65" fill="none" xmlns="http://www.w3.org/2000/svg">
<path d="M23.1437 3.99371C22.1604 4.29884 21.2902 5.05603 20.8608 5.98273L20.6009 6.54779L20.567 13.0799C20.5444 18.0751 20.4992 19.6008 20.3974 19.5556C19.7081 19.273 18.9735 19.1261 18.4423 19.1939C16.8036 19.3861 15.5266 20.5501 15.2441 22.1323C15.165 22.5843 15.1197 26.1216 15.1197 32.7103V42.6102L14.34 43.3787L13.5715 44.1472L12.9725 43.9663C11.8085 43.616 10.3506 43.7968 9.28829 44.4184C8.62151 44.8139 7.80782 45.718 7.45748 46.4752C7.18625 47.0516 7.15234 47.255 7.15234 48.3625C7.15234 49.5492 7.17495 49.6509 7.53659 50.3968C7.87563 51.0861 8.28247 51.5495 10.814 54.1036C12.3961 55.7084 13.8088 57.0419 13.9557 57.0758C14.3852 57.1888 14.7694 57.0306 14.9615 56.6464C15.0971 56.3978 15.1084 56.2282 15.0293 56.0587C14.9728 55.9231 13.6167 54.4878 12.0232 52.8604C10.2828 51.0861 9.05096 49.7413 8.96055 49.504C8.87014 49.2779 8.79103 48.7807 8.79103 48.3964C8.80233 47.2324 9.34479 46.3057 10.3167 45.7858C10.9383 45.4581 12.2718 45.4468 12.916 45.7632C13.5941 46.091 22.669 55.2789 22.9967 55.9683C23.5166 57.0645 23.2228 58.5563 22.33 59.3361C21.1546 60.3645 19.482 60.2628 18.1824 59.0988C17.6625 58.6241 17.1992 58.5789 16.8375 58.9631C16.7019 59.1101 16.5889 59.37 16.5889 59.5508C16.5889 60.195 18.1598 61.3364 19.4255 61.6302C21.4598 62.1049 23.6861 60.9974 24.5902 59.0649C24.8615 58.4998 24.8954 58.2851 24.8954 57.234C24.8954 56.1943 24.8615 55.957 24.5902 55.3128L24.2738 54.5782L25.031 53.8211L25.7882 53.0526H26.7149C29.608 53.0526 32.4333 51.8772 34.5919 49.7865C35.2925 49.1084 36.1627 47.9896 36.5922 47.2098L36.8521 46.7352L39.6887 46.7013L42.5253 46.6673L43.1356 46.3283C43.7911 45.9667 44.3788 45.3225 44.6952 44.6218C44.876 44.2263 44.8986 43.6951 44.9325 39.6945L44.9664 35.2078L45.5202 35.027C46.9102 34.5637 47.7804 33.3431 47.7804 31.874C47.7804 30.9812 47.5205 30.2692 47.0233 29.7493L46.7407 29.4555L47.0233 29.0713C48.0178 27.7829 48.0404 26.0651 47.0911 24.8785L46.752 24.4603L47.0911 24.0309C48.0178 22.8895 48.0178 21.0586 47.0911 19.9059L46.752 19.4878L47.0911 19.0583C48.4585 17.3631 47.6448 14.5265 45.5993 13.8823L44.9664 13.6902L44.9325 10.0625C44.8986 6.51389 44.8873 6.42348 44.6274 5.90362C44.2771 5.19164 43.6555 4.55877 42.9661 4.21973L42.4123 3.9485L36.4679 3.9146C30.7607 3.88069 30.5121 3.89199 30.2635 4.09542C29.9357 4.36665 29.8905 5.03342 30.1844 5.33856C30.3652 5.51938 30.8737 5.53068 36.2531 5.58718C41.949 5.64369 42.1185 5.65499 42.4236 5.88102C42.9209 6.25396 43.1695 6.64951 43.226 7.21457L43.2938 7.73443H32.8176H22.3526V7.23717C22.3526 6.63821 22.7142 6.06184 23.2567 5.79061C23.5731 5.63239 23.946 5.58718 25.0423 5.58718C26.3645 5.58718 26.4436 5.57589 26.7036 5.30465C26.8618 5.15774 26.9861 4.89781 26.9861 4.73959C26.9861 4.58137 26.8618 4.32144 26.7036 4.17453C26.4436 3.90329 26.3758 3.89199 24.9293 3.90329C24.1043 3.90329 23.3019 3.9485 23.1437 3.99371ZM43.2599 11.5769V13.7241H42.8305C41.2257 13.7241 39.7565 15.2498 39.7565 16.9337C39.7565 17.8604 39.9148 18.3689 40.3894 18.9792L40.7737 19.4991L40.4459 19.9172C39.5192 21.0699 39.5192 22.8895 40.4572 24.0422L40.7963 24.4829L40.5137 24.7768C40.0504 25.2853 39.8356 25.8278 39.7791 26.6754C39.7226 27.636 39.8582 28.1445 40.4007 28.913L40.7963 29.4555L40.5024 29.7606C39.7226 30.5743 39.5192 32.1226 40.0278 33.2414C40.5363 34.3377 41.7908 35.1965 42.8757 35.1965H43.2599L43.2373 37.3099L43.2034 39.4345H35.1908H27.1895L26.9183 38.4965C26.2176 36.0893 24.9293 34.202 23.1437 32.9815L22.3526 32.439V20.9343V9.42962H32.8062H43.2599V11.5769ZM45.3733 15.6453C46.3678 16.2443 46.3 17.8717 45.2603 18.448C44.7404 18.7193 42.7853 18.7193 42.2654 18.4367C41.2257 17.8717 41.1692 16.2443 42.1637 15.6453C42.4688 15.4532 42.7401 15.4193 43.7685 15.4193C44.7969 15.4193 45.0681 15.4532 45.3733 15.6453ZM45.3733 20.6179C45.8253 20.8891 46.0853 21.3751 46.0853 21.974C46.0853 22.573 45.8253 23.059 45.3733 23.3302C45.0681 23.5223 44.7969 23.5562 43.7911 23.5562C42.9096 23.5562 42.4801 23.511 42.2315 23.3867C41.2257 22.8555 41.1805 21.2056 42.1637 20.6179C42.4688 20.4258 42.7401 20.3919 43.7685 20.3919C44.7969 20.3919 45.0681 20.4258 45.3733 20.6179ZM19.8324 21.2508C20.5557 21.7819 20.5444 21.7028 20.5444 27.7151C20.5444 31.1733 20.5896 33.2527 20.6574 33.3883C20.7252 33.5127 21.1433 33.7952 21.5954 34.0325C22.5786 34.5524 23.7426 35.6599 24.2964 36.6092C25.3022 38.3383 25.6864 39.9657 25.596 42.0225C25.5282 43.7064 25.3361 44.4297 24.6128 45.8763C24.3077 46.5091 24.0478 47.1081 24.0478 47.2324C24.0478 47.5715 24.4998 47.967 24.8954 47.967C25.2796 47.967 25.5508 47.7297 25.9238 47.0968L26.1272 46.7239H30.5234H34.9083L34.7049 47.0855C34.5919 47.2889 34.0155 47.9444 33.4278 48.5321C32.1847 49.7639 31.2241 50.3629 29.5854 50.9166C28.6248 51.2444 28.3309 51.2896 26.7375 51.3461L24.9519 51.4139L24.0139 52.3519L23.0645 53.2899L19.0413 49.244L15.018 45.1982L15.8882 44.3167L16.7584 43.4465L16.8149 32.7668C16.8714 22.1662 16.8714 22.0984 17.1088 21.7819C17.2331 21.6124 17.5156 21.3412 17.7303 21.2056C18.0581 20.9795 18.2276 20.9456 18.8153 20.9795C19.3012 21.0134 19.629 21.0925 19.8324 21.2508ZM45.3394 25.5113C46.3678 26.1894 46.3113 27.8394 45.249 28.348C44.9777 28.4723 44.537 28.5288 43.7685 28.5288C43 28.5288 42.5593 28.4723 42.288 28.348C41.0562 27.7603 41.2257 25.7826 42.5367 25.3644C43.1017 25.1836 44.989 25.2853 45.3394 25.5113ZM45.1812 30.4274C46.074 30.8682 46.3904 32.1 45.7914 32.8233C45.3055 33.3883 44.9777 33.5014 43.7572 33.5014C42.8531 33.5014 42.5932 33.4562 42.2428 33.264C41.6438 32.925 41.4065 32.439 41.4743 31.7045C41.5421 31.0603 41.836 30.6421 42.4123 30.3822C42.9322 30.1562 44.6952 30.1788 45.1812 30.4274ZM43.2599 42.4068C43.2599 43.4691 43.226 43.7064 43 44.1246C42.5027 45.0739 42.9661 45.0287 34.4223 45.0287C30.2635 45.0287 26.8731 44.9948 26.8731 44.9383C26.8731 44.893 26.9522 44.5766 27.0426 44.2376C27.1443 43.8985 27.246 43.0735 27.2912 42.3955L27.359 41.1862H35.3038H43.2599V42.4068Z" fill="#878787"/>
<path d="M25.924 13.3964C24.6921 14.6848 24.5 14.9334 24.5 15.2611C24.5 15.8714 25.1894 16.2783 25.7431 15.9844C25.8562 15.9279 26.5681 15.2046 27.3253 14.4022C28.5572 13.08 28.6928 12.8879 28.6363 12.6166C28.5346 12.1985 28.1616 11.916 27.7209 11.916C27.3931 11.916 27.1897 12.0855 25.924 13.3964Z" fill="url(#paint0_linear_55_3909)"/>
<path d="M28.6108 16.0978C25.0509 19.7708 24.5537 20.3245 24.5198 20.6636C24.4746 21.1721 24.8023 21.5225 25.3222 21.5225C25.6499 21.5225 25.955 21.2512 28.4865 18.6745C30.0235 17.1037 31.8995 15.1598 32.6454 14.3688C33.8659 13.0804 34.0016 12.8883 33.945 12.6171C33.8433 12.1989 33.4704 11.9164 33.0409 11.9164C32.7019 11.9164 32.2951 12.3119 28.6108 16.0978Z" fill="url(#paint1_linear_55_3909)"/>
<path d="M16.4191 10.616C16.0574 10.9663 16.0461 11.4523 16.3965 11.78C16.8372 12.1869 17.391 12.0965 17.6735 11.5653C18.1143 10.6951 17.0971 9.92662 16.4191 10.616Z" fill="url(#paint2_linear_55_3909)"/>
<path d="M47.4484 10.8536C47.1545 11.2266 47.1545 11.4639 47.4371 11.8368C47.7422 12.2211 48.036 12.3002 48.4316 12.0968C48.7932 11.9159 48.9062 11.7125 48.9062 11.2831C48.9062 10.5937 47.8891 10.2885 47.4484 10.8536Z" fill="url(#paint3_linear_55_3909)"/>
<path d="M13.1185 13.6111C12.6212 13.8145 12.4743 14.583 12.8586 14.9673C13.175 15.2837 13.7062 15.2611 14.0452 14.9108C14.4181 14.5491 14.3955 14.2327 14 13.8258C13.6496 13.4755 13.5253 13.4529 13.1185 13.6111Z" fill="url(#paint4_linear_55_3909)"/>
<path d="M51.2036 13.8373C50.4125 14.165 50.6838 15.4194 51.554 15.4194C51.9382 15.4194 52.4129 14.9561 52.4129 14.5944C52.4129 14.0181 51.7461 13.6112 51.2036 13.8373Z" fill="url(#paint5_linear_55_3909)"/>
<path d="M10.0187 17.5441C9.6458 17.8492 9.6797 18.4256 10.0752 18.7759C10.4482 19.0924 10.7081 19.1037 11.0924 18.7985C11.3071 18.629 11.3862 18.4595 11.3862 18.177C11.3862 17.4424 10.6064 17.0808 10.0187 17.5441Z" fill="url(#paint6_linear_55_3909)"/>
<path d="M53.8294 17.8491C53.6712 17.996 53.5469 18.2559 53.5469 18.4141C53.5469 18.5723 53.6712 18.8323 53.8294 18.9792C53.9763 19.1374 54.2363 19.2617 54.3945 19.2617C54.5527 19.2617 54.8126 19.1374 54.9595 18.9792C55.1178 18.8323 55.2421 18.5723 55.2421 18.4141C55.2421 18.2559 55.1178 17.996 54.9595 17.8491C54.8126 17.6908 54.5527 17.5665 54.3945 17.5665C54.2363 17.5665 53.9763 17.6908 53.8294 17.8491Z" fill="url(#paint7_linear_55_3909)"/>
<path d="M8.22522 21.601C7.86358 21.7366 7.66016 22.0191 7.66016 22.392C7.66016 23.4092 9.07282 23.5109 9.31014 22.5164C9.36665 22.2677 9.31014 22.1434 9.03891 21.8609C8.69987 21.5218 8.55296 21.4766 8.22522 21.601Z" fill="url(#paint8_linear_55_3909)"/>
<path d="M55.8617 22.1434C55.5452 22.4485 55.5226 22.618 55.7034 23.0362C55.9634 23.6125 56.8675 23.6577 57.15 23.1153C57.636 22.2225 56.5736 21.4201 55.8617 22.1434Z" fill="url(#paint9_linear_55_3909)"/>
<path d="M6.54236 26.4498C6.27113 26.7889 6.24853 26.9358 6.42935 27.3313C6.62147 27.7495 7.10742 27.9077 7.52557 27.693C8.05673 27.4217 8.16974 26.8341 7.7742 26.4046C7.43516 26.043 6.84749 26.0656 6.54236 26.4498Z" fill="url(#paint10_linear_55_3909)"/>
<path d="M57.3054 26.5173C56.9099 26.7094 56.763 27.1954 56.9777 27.6022C57.0681 27.783 57.2376 27.9639 57.328 28.0091C58.2322 28.3481 58.9554 27.1954 58.2209 26.619C57.8931 26.3591 57.6784 26.3365 57.3054 26.5173Z" fill="url(#paint11_linear_55_3909)"/>
<path d="M6.45053 30.9132C6.168 31.0149 5.85156 31.4444 5.85156 31.7043C5.85156 31.806 5.95327 32.0207 6.08889 32.1903C6.54094 32.7666 7.54675 32.4502 7.54675 31.7156C7.54675 31.094 7.00429 30.7098 6.45053 30.9132Z" fill="url(#paint12_linear_55_3909)"/>
<path d="M57.5188 31.388C57.1684 31.7609 57.191 32.2921 57.564 32.5859C58.0499 32.9701 58.5359 32.8797 58.8071 32.3599C59.2479 31.501 58.1742 30.6873 57.5188 31.388Z" fill="url(#paint13_linear_55_3909)"/>
<path d="M6.79013 35.6488C5.99904 35.9765 6.28157 37.231 7.14047 37.231C7.58122 37.231 7.99937 36.8354 7.99937 36.4173C7.99937 35.8409 7.34389 35.4228 6.79013 35.6488Z" fill="url(#paint14_linear_55_3909)"/>
<path d="M57.0691 36.0557C56.7527 36.2705 56.7188 36.9937 57.0239 37.265C57.589 37.7735 58.4027 37.4571 58.4027 36.7112C58.4027 35.9992 57.6681 35.6376 57.0691 36.0557Z" fill="url(#paint15_linear_55_3909)"/>
<path d="M7.90974 40.3499C7.582 40.5759 7.5594 41.2879 7.88714 41.5817C8.4296 42.079 9.24329 41.6721 9.24329 40.9036C9.24329 40.2482 8.49741 39.9317 7.90974 40.3499Z" fill="url(#paint16_linear_55_3909)"/>
<path d="M55.712 40.6212C55.0113 41.2767 55.9719 42.5085 56.7291 41.9322C57.0456 41.6948 57.1586 41.2767 56.9891 40.8924C56.763 40.35 56.1415 40.2144 55.712 40.6212Z" fill="url(#paint17_linear_55_3909)"/>
<path d="M53.5862 44.8367C52.9759 45.3679 53.315 46.272 54.1174 46.272C54.8633 46.272 55.191 45.2775 54.6033 44.8141C54.2191 44.509 53.9592 44.5203 53.5862 44.8367Z" fill="url(#paint18_linear_55_3909)"/>
<path d="M50.6068 48.6453C50.0982 49.1539 50.4825 50.0015 51.217 50.0015C51.6352 50.0015 52.0759 49.5946 52.0759 49.2104C52.0759 49.0974 51.9742 48.8826 51.8386 48.7131C51.5448 48.3402 50.9458 48.3063 50.6068 48.6453Z" fill="url(#paint19_linear_55_3909)"/>
<path d="M47.4401 51.5494C47.0671 51.6851 46.875 51.9676 46.875 52.3857C46.875 52.8717 47.1801 53.1655 47.6661 53.1655C48.152 53.1655 48.4572 52.8717 48.4572 52.3857C48.4572 51.8094 47.926 51.3686 47.4401 51.5494Z" fill="url(#paint20_linear_55_3909)"/>
<path d="M43.0985 54.1937C42.8838 54.3632 42.8047 54.5327 42.8047 54.804C42.8047 55.6968 43.9235 55.9793 44.3304 55.1882C44.5338 54.804 44.4208 54.4084 44.0252 54.1372C43.6862 53.8999 43.4602 53.9112 43.0985 54.1937Z" fill="url(#paint21_linear_55_3909)"/>
<path d="M38.6488 55.844C38.5131 55.957 38.3775 56.1831 38.3323 56.3526C38.2758 56.6012 38.3323 56.7255 38.6036 57.008C39.0104 57.4036 39.2816 57.4375 39.6885 57.1098C39.8919 56.9402 39.9823 56.7707 39.9823 56.5108C39.9823 55.8101 39.1686 55.4033 38.6488 55.844Z" fill="url(#paint22_linear_55_3909)"/>
<path d="M29.1436 56.7368C29.008 56.9063 28.9062 57.1211 28.9062 57.2341C28.9062 57.494 29.3018 57.9913 29.5843 58.0817C29.8443 58.1608 30.4319 57.8782 30.5336 57.6296C30.8727 56.7255 29.7199 56.0022 29.1436 56.7368Z" fill="url(#paint23_linear_55_3909)"/>
<path d="M33.9349 56.7255C33.7767 56.8724 33.6523 57.1324 33.6523 57.2906C33.6523 57.6635 34.127 58.1382 34.4999 58.1382C34.8729 58.1382 35.3475 57.6635 35.3475 57.2906C35.3475 56.9176 34.8729 56.443 34.4999 56.443C34.3417 56.443 34.0818 56.5673 33.9349 56.7255Z" fill="url(#paint24_linear_55_3909)"/>
<defs>
<linearGradient id="paint0_linear_55_3909" x1="23.6714" y1="12.1918" x2="29.5246" y2="18.2234" gradientUnits="userSpaceOnUse">
<stop stop-color="#D41700"/>
<stop offset="1" stop-color="#7F0011"/>
</linearGradient>
<linearGradient id="paint1_linear_55_3909" x1="22.6294" y1="12.5525" x2="36.1297" y2="26.2873" gradientUnits="userSpaceOnUse">
<stop stop-color="#D41700"/>
<stop offset="1" stop-color="#7F0011"/>
</linearGradient>
<linearGradient id="paint2_linear_55_3909" x1="15.8129" y1="10.4612" x2="18.1798" y2="12.8478" gradientUnits="userSpaceOnUse">
<stop stop-color="#D41700"/>
<stop offset="1" stop-color="#7F0011"/>
</linearGradient>
<linearGradient id="paint3_linear_55_3909" x1="46.8909" y1="10.668" x2="49.2019" y2="13.1086" gradientUnits="userSpaceOnUse">
<stop stop-color="#D41700"/>
<stop offset="1" stop-color="#7F0011"/>
</linearGradient>
<linearGradient id="paint4_linear_55_3909" x1="12.3068" y1="13.6279" x2="14.6568" y2="16.0577" gradientUnits="userSpaceOnUse">
<stop stop-color="#D41700"/>
<stop offset="1" stop-color="#7F0011"/>
</linearGradient>
<linearGradient id="paint5_linear_55_3909" x1="50.399" y1="13.8827" x2="52.7087" y2="16.3216" gradientUnits="userSpaceOnUse">
<stop stop-color="#D41700"/>
<stop offset="1" stop-color="#7F0011"/>
</linearGradient>
<linearGradient id="paint6_linear_55_3909" x1="9.43244" y1="17.449" x2="11.798" y2="19.8186" gradientUnits="userSpaceOnUse">
<stop stop-color="#D41700"/>
<stop offset="1" stop-color="#7F0011"/>
</linearGradient>
<linearGradient id="paint7_linear_55_3909" x1="53.2082" y1="17.6788" x2="55.5895" y2="20.1441" gradientUnits="userSpaceOnUse">
<stop stop-color="#D41700"/>
<stop offset="1" stop-color="#7F0011"/>
</linearGradient>
<linearGradient id="paint8_linear_55_3909" x1="7.3265" y1="21.6485" x2="9.67711" y2="24.0771" gradientUnits="userSpaceOnUse">
<stop stop-color="#D41700"/>
<stop offset="1" stop-color="#7F0011"/>
</linearGradient>
<linearGradient id="paint9_linear_55_3909" x1="55.2535" y1="21.9711" x2="57.545" y2="24.4154" gradientUnits="userSpaceOnUse">
<stop stop-color="#D41700"/>
<stop offset="1" stop-color="#7F0011"/>
</linearGradient>
<linearGradient id="paint10_linear_55_3909" x1="5.97321" y1="26.2556" x2="8.2753" y2="28.7208" gradientUnits="userSpaceOnUse">
<stop stop-color="#D41700"/>
<stop offset="1" stop-color="#7F0011"/>
</linearGradient>
<linearGradient id="paint11_linear_55_3909" x1="56.5503" y1="26.5102" x2="58.8983" y2="28.9026" gradientUnits="userSpaceOnUse">
<stop stop-color="#D41700"/>
<stop offset="1" stop-color="#7F0011"/>
</linearGradient>
<linearGradient id="paint12_linear_55_3909" x1="5.51284" y1="30.9663" x2="7.79675" y2="33.4264" gradientUnits="userSpaceOnUse">
<stop stop-color="#D41700"/>
<stop offset="1" stop-color="#7F0011"/>
</linearGradient>
<linearGradient id="paint13_linear_55_3909" x1="56.9417" y1="31.2352" x2="59.3307" y2="33.6228" gradientUnits="userSpaceOnUse">
<stop stop-color="#D41700"/>
<stop offset="1" stop-color="#7F0011"/>
</linearGradient>
<linearGradient id="paint14_linear_55_3909" x1="5.9895" y1="35.6953" x2="8.29787" y2="38.1295" gradientUnits="userSpaceOnUse">
<stop stop-color="#D41700"/>
<stop offset="1" stop-color="#7F0011"/>
</linearGradient>
<linearGradient id="paint15_linear_55_3909" x1="56.4948" y1="35.9865" x2="58.7928" y2="38.3004" gradientUnits="userSpaceOnUse">
<stop stop-color="#D41700"/>
<stop offset="1" stop-color="#7F0011"/>
</linearGradient>
<linearGradient id="paint16_linear_55_3909" x1="7.33445" y1="40.2695" x2="9.63792" y2="42.5846" gradientUnits="userSpaceOnUse">
<stop stop-color="#D41700"/>
<stop offset="1" stop-color="#7F0011"/>
</linearGradient>
<linearGradient id="paint17_linear_55_3909" x1="55.1493" y1="40.497" x2="57.5337" y2="42.823" gradientUnits="userSpaceOnUse">
<stop stop-color="#D41700"/>
<stop offset="1" stop-color="#7F0011"/>
</linearGradient>
<linearGradient id="paint18_linear_55_3909" x1="52.9474" y1="44.7034" x2="55.3085" y2="47.0781" gradientUnits="userSpaceOnUse">
<stop stop-color="#D41700"/>
<stop offset="1" stop-color="#7F0011"/>
</linearGradient>
<linearGradient id="paint19_linear_55_3909" x1="50.0351" y1="48.5162" x2="52.2594" y2="50.9786" gradientUnits="userSpaceOnUse">
<stop stop-color="#D41700"/>
<stop offset="1" stop-color="#7F0011"/>
</linearGradient>
<linearGradient id="paint20_linear_55_3909" x1="46.5589" y1="51.6181" x2="48.888" y2="53.9203" gradientUnits="userSpaceOnUse">
<stop stop-color="#D41700"/>
<stop offset="1" stop-color="#7F0011"/>
</linearGradient>
<linearGradient id="paint21_linear_55_3909" x1="42.48" y1="54.081" x2="44.8445" y2="56.4456" gradientUnits="userSpaceOnUse">
<stop stop-color="#D41700"/>
<stop offset="1" stop-color="#7F0011"/>
</linearGradient>
<linearGradient id="paint22_linear_55_3909" x1="37.9788" y1="55.7716" x2="40.3272" y2="58.2001" gradientUnits="userSpaceOnUse">
<stop stop-color="#D41700"/>
<stop offset="1" stop-color="#7F0011"/>
</linearGradient>
<linearGradient id="paint23_linear_55_3909" x1="28.5688" y1="56.5444" x2="30.9002" y2="58.9984" gradientUnits="userSpaceOnUse">
<stop stop-color="#D41700"/>
<stop offset="1" stop-color="#7F0011"/>
</linearGradient>
<linearGradient id="paint24_linear_55_3909" x1="33.3136" y1="56.5552" x2="35.6949" y2="59.0206" gradientUnits="userSpaceOnUse">
<stop stop-color="#D41700"/>
<stop offset="1" stop-color="#7F0011"/>
</linearGradient>
</defs>
</svg>
