<svg width="36" height="36" viewBox="0 0 36 36" fill="none" xmlns="http://www.w3.org/2000/svg">
<path d="M0 16H16V0H0V16ZM4 4H12V12H4V4Z" fill="url(#paint0_linear_901_40)"/>
<path d="M0 36H16V20H0V36ZM4 24H12V32H4V24Z" fill="url(#paint1_linear_901_40)"/>
<path d="M20 0V16H36V0H20ZM32 12H24V4H32V12Z" fill="url(#paint2_linear_901_40)"/>
<path d="M36 32H32V36H36V32Z" fill="url(#paint3_linear_901_40)"/>
<path d="M24 20H20V24H24V20Z" fill="url(#paint4_linear_901_40)"/>
<path d="M28 24H24V28H28V24Z" fill="url(#paint5_linear_901_40)"/>
<path d="M24 28H20V32H24V28Z" fill="url(#paint6_linear_901_40)"/>
<path d="M28 32H24V36H28V32Z" fill="url(#paint7_linear_901_40)"/>
<path d="M32 28H28V32H32V28Z" fill="url(#paint8_linear_901_40)"/>
<path d="M32 20H28V24H32V20Z" fill="url(#paint9_linear_901_40)"/>
<path d="M36 24H32V28H36V24Z" fill="url(#paint10_linear_901_40)"/>
<defs>
<linearGradient id="paint0_linear_901_40" x1="-3.19704" y1="14.9405" x2="19.279" y2="-8.32842" gradientUnits="userSpaceOnUse">
<stop stop-color="#D41700"/>
<stop offset="1" stop-color="#7F0011"/>
</linearGradient>
<linearGradient id="paint1_linear_901_40" x1="-3.19704" y1="34.9405" x2="19.279" y2="11.6716" gradientUnits="userSpaceOnUse">
<stop stop-color="#D41700"/>
<stop offset="1" stop-color="#7F0011"/>
</linearGradient>
<linearGradient id="paint2_linear_901_40" x1="16.803" y1="14.9405" x2="39.279" y2="-8.32842" gradientUnits="userSpaceOnUse">
<stop stop-color="#D41700"/>
<stop offset="1" stop-color="#7F0011"/>
</linearGradient>
<linearGradient id="paint3_linear_901_40" x1="31.2007" y1="35.7351" x2="36.8198" y2="29.9179" gradientUnits="userSpaceOnUse">
<stop stop-color="#D41700"/>
<stop offset="1" stop-color="#7F0011"/>
</linearGradient>
<linearGradient id="paint4_linear_901_40" x1="19.2007" y1="23.7351" x2="24.8198" y2="17.9179" gradientUnits="userSpaceOnUse">
<stop stop-color="#D41700"/>
<stop offset="1" stop-color="#7F0011"/>
</linearGradient>
<linearGradient id="paint5_linear_901_40" x1="23.2007" y1="27.7351" x2="28.8198" y2="21.9179" gradientUnits="userSpaceOnUse">
<stop stop-color="#D41700"/>
<stop offset="1" stop-color="#7F0011"/>
</linearGradient>
<linearGradient id="paint6_linear_901_40" x1="19.2007" y1="31.7351" x2="24.8198" y2="25.9179" gradientUnits="userSpaceOnUse">
<stop stop-color="#D41700"/>
<stop offset="1" stop-color="#7F0011"/>
</linearGradient>
<linearGradient id="paint7_linear_901_40" x1="23.2007" y1="35.7351" x2="28.8198" y2="29.9179" gradientUnits="userSpaceOnUse">
<stop stop-color="#D41700"/>
<stop offset="1" stop-color="#7F0011"/>
</linearGradient>
<linearGradient id="paint8_linear_901_40" x1="27.2007" y1="31.7351" x2="32.8198" y2="25.9179" gradientUnits="userSpaceOnUse">
<stop stop-color="#D41700"/>
<stop offset="1" stop-color="#7F0011"/>
</linearGradient>
<linearGradient id="paint9_linear_901_40" x1="27.2007" y1="23.7351" x2="32.8198" y2="17.9179" gradientUnits="userSpaceOnUse">
<stop stop-color="#D41700"/>
<stop offset="1" stop-color="#7F0011"/>
</linearGradient>
<linearGradient id="paint10_linear_901_40" x1="31.2007" y1="27.7351" x2="36.8198" y2="21.9179" gradientUnits="userSpaceOnUse">
<stop stop-color="#D41700"/>
<stop offset="1" stop-color="#7F0011"/>
</linearGradient>
</defs>
</svg>
