<svg width="65" height="65" viewBox="0 0 65 65" fill="none" xmlns="http://www.w3.org/2000/svg">
<path d="M21.2627 4.13251C19.8698 4.58065 18.6102 5.85241 18.1742 7.2695C17.4232 9.65555 18.5012 12.0537 20.8146 13.1317C21.4807 13.4466 21.7956 13.5071 22.6435 13.5435L23.673 13.5677L23.9273 14.2096C24.0727 14.5609 24.2301 14.8516 24.2786 14.8395C24.6056 14.8152 25.9258 14.2339 25.9258 14.1127C25.9258 14.028 25.8168 13.713 25.6836 13.3981L25.4413 12.8289L26.0469 12.296C26.6041 11.7873 27.5003 10.2975 27.5003 9.87357C27.5003 9.72823 28.3482 9.704 32.4662 9.704C36.5843 9.704 37.4321 9.72823 37.4321 9.87357C37.4321 10.2975 38.3284 11.7873 38.8856 12.2838L39.4912 12.8289L39.0067 13.9916L38.5343 15.1665L38.8008 15.2634C38.9461 15.3239 39.3579 15.4814 39.7092 15.6267C40.3027 15.869 40.3511 15.869 40.4238 15.6631C40.4722 15.5541 40.6781 15.0332 40.884 14.5124L41.2595 13.5677L42.289 13.5435C43.1005 13.5071 43.4639 13.4345 44.0695 13.1559L44.8446 12.8168L48.7204 16.7047L52.6084 20.5805L52.2692 21.3557C51.9907 21.9613 51.918 22.3246 51.8817 23.1361L51.8574 24.1656L48.4903 25.5101C46.6372 26.2489 45.0263 26.8908 44.9173 26.9393C44.7114 27.0119 44.7114 27.0604 44.9536 27.6539C45.099 28.0051 45.2564 28.4169 45.317 28.5623C45.4139 28.8166 45.4987 28.7924 49.0111 27.3874L52.6084 25.9461L53.1413 26.5396C53.6379 27.0967 55.1277 27.993 55.5516 27.993C55.6969 27.993 55.7211 28.8408 55.7211 32.9589C55.7211 37.077 55.6969 37.9248 55.5516 37.9248C55.1277 37.9248 53.6379 38.8211 53.1413 39.3782L52.6084 39.9717L51.2397 39.4267C50.4888 39.1239 49.8347 38.918 49.7742 38.9785C49.6773 39.0875 49.0475 40.6136 49.0959 40.65C49.108 40.6621 49.7378 40.9164 50.4888 41.2192L51.8574 41.7522L51.8817 42.7817C51.918 43.5932 51.9907 43.9565 52.2692 44.5621L52.6084 45.3252L51.6515 46.2941L50.6947 47.251L51.3972 47.9414L52.1118 48.6196L53.0565 47.6749L54.0134 46.7302L54.7764 47.0814C55.4426 47.3842 55.6848 47.4327 56.7022 47.4327C57.7923 47.4327 57.9013 47.4084 58.7733 46.9845C59.8755 46.4395 60.5538 45.737 61.0867 44.6106C61.438 43.8718 61.4743 43.6901 61.4743 42.6484C61.4743 41.6068 61.438 41.4251 61.0867 40.6863C60.578 39.5962 59.8755 38.8695 58.8339 38.3487C58.3737 38.1186 57.9134 37.9248 57.8286 37.9248C57.6833 37.9248 57.659 37.077 57.659 32.9589C57.659 28.8408 57.6833 27.993 57.8286 27.993C57.9134 27.993 58.3737 27.7992 58.8339 27.5691C59.8755 27.0483 60.578 26.3216 61.0867 25.2315C61.438 24.4927 61.4743 24.311 61.4743 23.2694C61.4743 22.2277 61.438 22.0461 61.0867 21.3072C60.5538 20.1808 59.8755 19.4783 58.7733 18.9333C57.9013 18.5094 57.7923 18.4851 56.7022 18.4851C55.6848 18.4851 55.4426 18.5336 54.7764 18.8364L54.0012 19.1876L50.1254 15.2997L46.2375 11.4239L46.5887 10.6487C46.8915 9.98257 46.94 9.74034 46.94 8.72293C46.94 7.63286 46.9158 7.52385 46.4918 6.65179C45.9468 5.54961 45.2443 4.87134 44.1179 4.33842C43.3791 3.98717 43.1974 3.95083 42.1558 3.95083C41.1142 3.95083 40.9325 3.98717 40.1936 4.33842C39.1036 4.84712 38.3769 5.54961 37.856 6.59124C37.6259 7.05149 37.4321 7.51174 37.4321 7.59652C37.4321 7.74187 36.5843 7.76609 32.4662 7.76609C28.5783 7.76609 27.5003 7.72976 27.5003 7.60863C27.5003 7.29373 26.7736 5.9493 26.3497 5.48905C25.0901 4.08406 23.0916 3.55114 21.2627 4.13251ZM23.673 5.97353C24.3391 6.16732 25.3444 7.17261 25.5382 7.83876C25.8773 8.97728 25.6351 9.88568 24.7752 10.7335C24.1575 11.3633 23.5397 11.6419 22.7767 11.6419C21.2748 11.6419 19.8698 10.2369 19.8698 8.73505C19.8698 7.97199 20.1484 7.35429 20.7782 6.73658C21.6261 5.87663 22.5345 5.6465 23.673 5.97353ZM43.0521 5.97353C44.0937 6.28844 45.0626 7.62075 45.0626 8.73505C45.0626 10.2369 43.6577 11.6419 42.1558 11.6419C41.3927 11.6419 40.775 11.3633 40.1573 10.7335C38.9219 9.51021 38.9219 7.95988 40.1573 6.73658C41.0051 5.87663 41.9135 5.6465 43.0521 5.97353ZM57.5864 20.5078C58.628 20.8228 59.597 22.1551 59.597 23.2694C59.597 24.7712 58.192 26.1762 56.6901 26.1762C55.927 26.1762 55.3093 25.8976 54.6916 25.2678C53.4562 24.0445 53.4562 22.4942 54.6916 21.2709C55.5395 20.4109 56.4479 20.1808 57.5864 20.5078ZM57.5864 39.8869C58.628 40.2018 59.597 41.5342 59.597 42.6484C59.597 44.1503 58.192 45.5553 56.6901 45.5553C55.1882 45.5553 53.7832 44.1503 53.7832 42.6484C53.7832 41.8854 54.0618 41.2677 54.6916 40.65C55.5395 39.79 56.4479 39.5599 57.5864 39.8869Z" fill="#878787"/>
<path d="M13.9135 16.2079L10.934 19.1875L10.1588 18.8362C9.49268 18.5334 9.25044 18.485 8.23304 18.485C7.14296 18.485 7.03396 18.5092 6.1619 18.9331C5.05971 19.4782 4.38144 20.1806 3.84852 21.3071C3.49727 22.0459 3.46094 22.2276 3.46094 23.2692C3.46094 24.3108 3.49727 24.4925 3.84852 25.2313C4.35722 26.3214 5.05971 27.0481 6.10134 27.5689C6.56159 27.799 7.02184 27.9928 7.10663 27.9928C7.25197 27.9928 7.27619 28.8407 7.27619 32.9587C7.27619 37.0768 7.25197 37.9246 7.10663 37.9246C7.02184 37.9246 6.56159 38.1184 6.10134 38.3485C5.05971 38.8694 4.35722 39.5961 3.84852 40.6861C3.49727 41.425 3.46094 41.6066 3.46094 42.6604C3.46094 43.7505 3.48516 43.8595 3.90908 44.7315C4.45412 45.8337 5.15661 46.512 6.28302 47.0449C7.02184 47.3961 7.20352 47.4325 8.24515 47.4325C9.25044 47.4325 9.49268 47.384 10.1588 47.0812L10.934 46.73L14.8098 50.6179L18.6977 54.4937L18.3465 55.2689C18.0437 55.9351 17.9953 56.1773 17.9953 57.1947C17.9953 58.2848 18.0195 58.3938 18.4555 59.2658C18.9884 60.368 19.6909 61.0342 20.8416 61.5913C21.5562 61.9305 21.7378 61.9668 22.7795 61.9668C23.8211 61.9668 24.0028 61.9305 24.7416 61.5792C25.8317 61.0705 26.5584 60.368 27.0792 59.3264C27.3093 58.8661 27.5031 58.4059 27.5031 58.3211C27.5031 58.1758 28.351 58.1515 32.469 58.1515C36.5871 58.1515 37.4349 58.1758 37.4349 58.3211C37.4349 58.4059 37.6287 58.8661 37.8588 59.3264C38.3796 60.368 39.1063 61.0705 40.1964 61.5792C40.9352 61.9305 41.1169 61.9668 42.1586 61.9668C43.2002 61.9668 43.3819 61.9305 44.1207 61.5792C45.2471 61.0463 45.9496 60.368 46.4946 59.2658C46.9185 58.3938 46.9428 58.2848 46.9428 57.1947C46.9428 56.1773 46.8943 55.9351 46.5915 55.2689L46.2403 54.5058L48.3477 52.3863L50.4552 50.2788L49.7527 49.5884L49.0623 48.8859L46.9549 50.9934L44.8353 53.1009L44.0722 52.7496C43.4061 52.4468 43.1638 52.3984 42.1586 52.3984C41.1169 52.3984 40.9352 52.4347 40.1964 52.786C39.1063 53.2947 38.3796 53.9971 37.8588 55.0388C37.6287 55.499 37.4349 55.9593 37.4349 56.0441C37.4349 56.1894 36.5871 56.2136 32.469 56.2136C28.351 56.2136 27.5031 56.1894 27.5031 56.0441C27.5031 55.6201 26.6068 54.1304 26.0497 53.6217L25.4441 53.0888L25.6863 52.5195C25.8196 52.2046 25.9286 51.8897 25.9286 51.8049C25.9286 51.6717 24.5115 51.0661 24.2692 51.0903C24.2208 51.1024 24.0633 51.381 23.918 51.7201L23.6757 52.3499L22.6462 52.3741C21.8347 52.4105 21.4714 52.4832 20.8658 52.7617L20.0906 53.1009L16.2148 49.2129L12.3269 45.3371L12.666 44.562C12.9446 43.9564 13.0172 43.593 13.0536 42.7815L13.0778 41.752L16.4449 40.4076C18.298 39.6687 19.9089 39.0268 20.0179 38.9784C20.2238 38.9057 20.2238 38.8572 19.9816 38.2638C19.8363 37.9125 19.6788 37.5007 19.6182 37.3554C19.5214 37.101 19.4366 37.1252 15.9241 38.5302L12.3269 39.9715L11.7939 39.378C11.2974 38.8209 9.80759 37.9246 9.38367 37.9246C9.23833 37.9246 9.2141 37.0768 9.2141 32.9587C9.2141 28.8407 9.23833 27.9928 9.38367 27.9928C9.80759 27.9928 11.2974 27.0966 11.7939 26.5394L12.3269 25.9459L15.9241 27.3872C19.4366 28.7922 19.5214 28.8164 19.6182 28.5621C19.6788 28.4168 19.8363 28.005 19.9816 27.6537C20.2238 27.0602 20.2238 27.0118 20.0179 26.9391C19.9089 26.8907 18.298 26.2487 16.4449 25.5099L13.0778 24.1655L13.0536 23.136C13.0172 22.3245 12.9446 21.9611 12.666 21.3555L12.3269 20.5924L15.3064 17.6008L18.298 14.6092L17.6319 13.9067C17.2806 13.5312 16.9657 13.2163 16.9415 13.2163C16.9173 13.2163 15.5608 14.5607 13.9135 16.2079ZM9.14143 20.5077C10.1831 20.8226 11.152 22.1549 11.152 23.2692C11.152 24.7711 9.74703 26.176 8.24515 26.176C7.4821 26.176 6.86439 25.8975 6.24668 25.2677C5.01126 24.0443 5.01126 22.494 6.24668 21.2707C7.09452 20.4108 8.00291 20.1806 9.14143 20.5077ZM9.14143 39.8868C9.80759 40.0805 10.8129 41.0858 11.0067 41.752C11.3458 42.8905 11.1036 43.7989 10.2436 44.6467C9.02031 45.8822 7.46999 45.8822 6.24668 44.6467C5.01126 43.4234 5.01126 41.8731 6.24668 40.6498C7.09452 39.7899 8.00291 39.5597 9.14143 39.8868ZM23.6757 54.4211C24.7174 54.736 25.6863 56.0683 25.6863 57.1826C25.6863 58.6845 24.2813 60.0894 22.7795 60.0894C21.2776 60.0894 19.8726 58.6845 19.8726 57.1826C19.8726 56.4195 20.1512 55.8018 20.781 55.1841C21.6288 54.3242 22.5372 54.094 23.6757 54.4211ZM43.0548 54.4211C44.0965 54.736 45.0654 56.0683 45.0654 57.1826C45.0654 58.6845 43.6604 60.0894 42.1586 60.0894C40.6567 60.0894 39.2517 58.6845 39.2517 57.1826C39.2517 56.4195 39.5303 55.8018 40.1601 55.1841C41.0079 54.3242 41.9163 54.094 43.0548 54.4211Z" fill="#878787"/>
<path d="M24.7647 16.5955C24.1833 16.7409 23.1538 17.3464 22.8268 17.734C22.6572 17.9399 22.3786 18.376 22.2091 18.7151C21.9305 19.2601 21.8821 19.5145 21.8336 20.8105L21.7852 22.3002H22.7541H23.7231L23.7715 20.98C23.8078 19.5508 23.9169 19.2722 24.6436 18.7393C24.9221 18.5213 25.1886 18.485 26.4725 18.4486L27.9744 18.4002L28.3983 19.2601C28.6405 19.7325 28.9433 20.1685 29.0644 20.2412C29.2098 20.3139 30.5057 20.3623 32.4679 20.3623C34.43 20.3623 35.726 20.3139 35.8713 20.2412C35.9924 20.1685 36.2952 19.7325 36.5254 19.2722L36.9493 18.4244H38.2816C39.844 18.4244 40.2801 18.5576 40.7767 19.2238L41.1279 19.6719L41.1642 28.5136L41.1885 37.3554L40.1226 36.3258C38.9962 35.2479 38.3422 34.8966 37.4338 34.8966C35.8592 34.8966 34.4058 36.3501 34.4058 37.9246C34.4058 38.9541 34.7207 39.4628 36.4043 41.1948L37.9909 42.8299L37.7002 43.6172C37.0946 45.216 37.2158 47.3598 37.9788 49.0555C38.1484 49.4067 38.2816 49.8549 38.2816 50.0487V50.3999H39.2506H40.2195V49.8064C40.2195 49.3704 40.0984 48.9586 39.7714 48.2682C39.3232 47.3356 39.3111 47.275 39.3111 45.9669C39.3111 44.6588 39.3232 44.5983 39.7714 43.7262C40.0136 43.2296 40.2195 42.6967 40.2195 42.5393C40.2195 42.3212 39.6987 41.7278 38.2816 40.2864C36.5859 38.5665 36.3437 38.2759 36.3437 37.9367C36.3437 37.3917 36.913 36.8345 37.4459 36.8345C37.8092 36.8345 38.1241 37.1131 40.5829 39.5597C42.0847 41.0616 43.3686 42.2849 43.4292 42.2849C43.5866 42.2849 44.7009 41.1464 44.7009 41.001C44.7009 40.9405 44.3497 40.5287 43.9137 40.1048L43.1264 39.3296V35.8656V32.4137L44.2164 33.5038C44.9311 34.2063 45.4276 34.8361 45.6457 35.26L45.9727 35.9261L46.009 41.7156L46.0454 47.493H47.0022H47.9711V41.9216C47.9711 38.3485 47.9227 36.132 47.8379 35.7202C47.5472 34.3395 47.0749 33.637 45.0401 31.5659L43.1385 29.6158L43.1022 24.4804L43.0658 19.3328L42.7388 18.7151C42.2543 17.7946 41.891 17.4191 41.0431 16.9589L40.2801 16.5471L32.7101 16.5228C28.5436 16.5107 24.9706 16.5471 24.7647 16.5955Z" fill="#878787"/>
<path d="M21.8367 35.8894L21.8731 47.5532L22.2001 48.1709C22.6846 49.0914 23.0479 49.4669 23.8958 49.9271L24.6588 50.3389L30.5089 50.3753L36.3468 50.4116V49.4427V48.4737L30.6784 48.4374L24.9979 48.401L24.5498 48.0498C23.702 47.4079 23.7504 48.0982 23.7504 35.5624V24.2377H22.7815H21.8125L21.8367 35.8894Z" fill="#878787"/>
<path d="M31.1944 26.261C29.7289 26.4669 27.8879 27.2542 26.7494 28.1747C26.3618 28.4896 26.0469 28.7803 26.0469 28.8287C26.0469 28.8772 26.3376 29.2042 26.7009 29.5554L27.3671 30.2095L27.8879 29.7613C28.9901 28.8166 30.928 28.1141 32.4662 28.1141C34.0044 28.1141 35.9423 28.8166 37.0445 29.7613L37.5774 30.2095L38.2557 29.5191L38.9461 28.8287L38.4616 28.4048C36.5721 26.7576 33.7137 25.9097 31.1944 26.261Z" fill="url(#paint0_linear_55_3943)"/>
<path d="M31.1977 29.9912C30.8707 30.088 30.5558 30.1607 30.5195 30.1728C30.3741 30.1728 28.957 31.166 28.957 31.2508C28.957 31.3719 30.1198 32.5952 30.2288 32.5952C30.2772 32.5952 30.471 32.4862 30.6527 32.353C31.1372 32.0138 31.9245 31.7474 32.4695 31.7474C33.0145 31.7474 33.8018 32.0138 34.2863 32.353C34.468 32.4862 34.6617 32.5952 34.7102 32.5952C34.8071 32.5952 35.982 31.3719 35.982 31.2629C35.982 31.1054 34.7223 30.3061 34.1652 30.1002C33.39 29.8337 31.9366 29.7731 31.1977 29.9912Z" fill="url(#paint1_linear_55_3943)"/>
<path d="M27.625 36.8348V37.8037H28.594H29.5629V36.8348V35.8658H28.594H27.625V36.8348Z" fill="url(#paint2_linear_55_3943)"/>
<path d="M31.5 36.8348V37.8037H32.469H33.4379V36.8348V35.8658H32.469H31.5V36.8348Z" fill="url(#paint3_linear_55_3943)"/>
<path d="M30.5312 45.5555V46.5244H32.4692H34.4071V45.5555V44.5865H32.4692H30.5312V45.5555Z" fill="url(#paint4_linear_55_3943)"/>
<defs>
<linearGradient id="paint0_linear_55_3943" x1="23.4694" y1="26.4492" x2="26.5986" y2="36.8261" gradientUnits="userSpaceOnUse">
<stop stop-color="#D41700"/>
<stop offset="1" stop-color="#7F0011"/>
</linearGradient>
<linearGradient id="paint1_linear_55_3943" x1="27.5533" y1="30.0397" x2="30.0894" y2="36.7789" gradientUnits="userSpaceOnUse">
<stop stop-color="#D41700"/>
<stop offset="1" stop-color="#7F0011"/>
</linearGradient>
<linearGradient id="paint2_linear_55_3943" x1="27.2378" y1="35.9941" x2="29.9601" y2="38.8124" gradientUnits="userSpaceOnUse">
<stop stop-color="#D41700"/>
<stop offset="1" stop-color="#7F0011"/>
</linearGradient>
<linearGradient id="paint3_linear_55_3943" x1="31.1128" y1="35.9941" x2="33.8351" y2="38.8124" gradientUnits="userSpaceOnUse">
<stop stop-color="#D41700"/>
<stop offset="1" stop-color="#7F0011"/>
</linearGradient>
<linearGradient id="paint4_linear_55_3943" x1="29.7568" y1="44.7148" x2="31.8903" y2="49.1323" gradientUnits="userSpaceOnUse">
<stop stop-color="#D41700"/>
<stop offset="1" stop-color="#7F0011"/>
</linearGradient>
</defs>
</svg>
